<?xml version="1.0" encoding="UTF-8" standalone="no"?>
<svg
   xmlns:dc="http://purl.org/dc/elements/1.1/"
   xmlns:cc="http://creativecommons.org/ns#"
   xmlns:rdf="http://www.w3.org/1999/02/22-rdf-syntax-ns#"
   xmlns:svg="http://www.w3.org/2000/svg"
   xmlns="http://www.w3.org/2000/svg"
   xmlns:sodipodi="http://sodipodi.sourceforge.net/DTD/sodipodi-0.dtd"
   xmlns:inkscape="http://www.inkscape.org/namespaces/inkscape"
   class="icon"
   height="511.99069"
   viewBox="0 0 493.45865 1023.9814"
   version="1.1"
   id="svg4"
   sodipodi:docname="Complete.svg"
   width="493.45865"
   inkscape:version="0.92.3 (2405546, 2018-03-11)">
  <metadata
     id="metadata10">
    <rdf:RDF>
      <cc:Work
         rdf:about="">
        <dc:format>image/svg+xml</dc:format>
        <dc:type
           rdf:resource="http://purl.org/dc/dcmitype/StillImage" />
      </cc:Work>
    </rdf:RDF>
  </metadata>
  <defs
     id="defs8" />
  <sodipodi:namedview
     pagecolor="#ffffff"
     bordercolor="#666666"
     borderopacity="1"
     objecttolerance="10"
     gridtolerance="10"
     guidetolerance="10"
     inkscape:pageopacity="0"
     inkscape:pageshadow="2"
     inkscape:window-width="1920"
     inkscape:window-height="1017"
     id="namedview6"
     showgrid="false"
     inkscape:zoom="1.1210937"
     inkscape:cx="337.67933"
     inkscape:cy="256.49296"
     inkscape:window-x="-8"
     inkscape:window-y="-8"
     inkscape:window-maximized="1"
     inkscape:current-layer="svg4" />
  <path
     d="m 399.72167,1018.6295 c -46.75845,0 -91.26858,-9.839 -131.70241,-27.42448 -2.35803,0.6792 -4.69778,1.48689 -7.25688,1.48689 h -469.01053 c -15.02559,0 -27.23617,-12.29873 -27.23617,-27.46107 V 36.362611 c 0,-15.143992 12.21058,-27.4427503 27.23617,-27.4427503 h 707.79314 c 15.02558,0 27.21788,12.2987573 27.21788,27.4427503 V 370.68688 c 121.22838,50.51669 206.83042,170.93437 206.83042,311.23199 0,185.65616 -149.78069,336.71063 -333.87162,336.71063 z M 472.30882,63.823716 H -181.03025 V 937.76973 H 183.2581 C 111.54837,875.96388 65.850096,784.29225 65.850096,681.91887 c 0,-185.65617 149.780674,-336.7106 333.871574,-336.7106 24.95127,0 49.18963,2.99208 72.58715,8.26035 z M 399.72167,400.11212 c -154.07628,0 -279.41752,126.42021 -279.41752,281.80675 0,155.36817 125.34124,281.78838 279.41752,281.78838 154.07631,0 279.41753,-126.42021 279.41753,-281.78838 0,-155.38654 -125.34122,-281.80675 -279.41753,-281.80675 z M 595.41996,600.50844 349.91057,835.91032 a 27.144775,27.259186 0 0 1 -18.75457,7.56282 h -0.69462 a 27.144775,27.259186 0 0 1 -19.02876,-8.53571 L 203.07287,719.98994 a 27.418964,27.534531 0 0 1 0.96881,-38.80533 27.089936,27.204116 0 0 1 38.47795,0.97289 l 89.60517,95.0492 225.78602,-216.49485 a 27.053378,27.167404 0 0 1 38.47794,0.99125 27.400685,27.516175 0 0 1 -0.9688,38.80534 z M -108.44312,214.82308 c -15.02559,0 -27.21789,-12.29875 -27.21789,-27.46111 0,-15.14398 12.1923,-27.44275 27.21789,-27.44275 h 508.16479 c 15.0256,0 27.2179,12.29877 27.2179,27.44275 0,15.16236 -12.1923,27.46111 -27.2179,27.46111 z m 0,114.37845 h 322.13628 c 15.04386,0 27.23617,12.29875 27.23617,27.4611 0,15.16235 -12.19231,27.46111 -27.23617,27.46111 h -322.13628 c -15.02559,0 -27.21789,-12.29877 -27.21789,-27.46111 0,-15.16235 12.1923,-27.4611 27.21789,-27.4611 z m 0,146.94261 H 27.682895 c 15.025594,0 27.217897,12.29875 27.217897,27.4611 0,15.16235 -12.192303,27.46111 -27.217897,27.46111 H -108.44312 c -15.02559,0 -27.21789,-12.29876 -27.21789,-27.46111 0,-15.16235 12.1923,-27.4611 27.21789,-27.4611 z m 0,142.84914 H -4.0865412 c 15.0255942,0 27.2178862,12.29876 27.2178862,27.4611 0,15.16236 -12.192292,27.46111 -27.2178862,27.46111 H -108.44312 c -15.02559,0 -27.21789,-12.29875 -27.21789,-27.46111 0,-15.16234 12.1923,-27.4611 27.21789,-27.4611 z m 0,158.63561 H -4.0865412 c 15.0255942,0 27.2178862,12.29876 27.2178862,27.46111 0,15.14399 -12.192292,27.44275 -27.2178862,27.44275 H -108.44312 c -15.02559,0 -27.21789,-12.29876 -27.21789,-27.44275 0,-15.16234 12.1923,-27.46111 27.21789,-27.46111 z"
     id="path2"
     inkscape:connector-curvature="0"
     style="fill:#00c3e8;stroke-width:0.98399097;fill-opacity:1" />
</svg>
