<?xml version="1.0" encoding="UTF-8" standalone="no"?>
<svg
   xmlns:dc="http://purl.org/dc/elements/1.1/"
   xmlns:cc="http://creativecommons.org/ns#"
   xmlns:rdf="http://www.w3.org/1999/02/22-rdf-syntax-ns#"
   xmlns:svg="http://www.w3.org/2000/svg"
   xmlns="http://www.w3.org/2000/svg"
   xmlns:sodipodi="http://sodipodi.sourceforge.net/DTD/sodipodi-0.dtd"
   xmlns:inkscape="http://www.inkscape.org/namespaces/inkscape"
   height="496pt"
   viewBox="0 0 496 496"
   width="496pt"
   version="1.1"
   id="svg9"
   sodipodi:docname="customRange.svg"
   inkscape:version="0.92.3 (2405546, 2018-03-11)">
  <metadata
     id="metadata15">
    <rdf:RDF>
      <cc:Work
         rdf:about="">
        <dc:format>image/svg+xml</dc:format>
        <dc:type
           rdf:resource="http://purl.org/dc/dcmitype/StillImage" />
      </cc:Work>
    </rdf:RDF>
  </metadata>
  <defs
     id="defs13" />
  <sodipodi:namedview
     pagecolor="#ffffff"
     bordercolor="#666666"
     borderopacity="1"
     objecttolerance="10"
     gridtolerance="10"
     guidetolerance="10"
     inkscape:pageopacity="0"
     inkscape:pageshadow="2"
     inkscape:window-width="1920"
     inkscape:window-height="1017"
     id="namedview11"
     showgrid="false"
     inkscape:zoom="0.35685484"
     inkscape:cx="330.66667"
     inkscape:cy="330.66667"
     inkscape:window-x="-8"
     inkscape:window-y="-8"
     inkscape:window-maximized="1"
     inkscape:current-layer="svg9" />
  <linearGradient
     id="a"
     gradientUnits="userSpaceOnUse"
     x1="248"
     x2="248"
     y1="496"
     y2="0">
    <stop
       offset="0"
       stop-color="#9f2fff"
       id="stop2" />
    <stop
       offset="1"
       stop-color="#0bb1d3"
       id="stop4" />
  </linearGradient>
  <path
     d="m 170.72696,284.58849 c 5.04562,7.69763 7.71372,16.60967 7.71372,25.78439 0,25.79962 -20.79761,46.77966 -46.37288,46.77966 -9.09494,0 -17.92949,-2.6915 -25.55264,-7.78138 l 8.53264,-13.0045 c 5.08713,3.39959 10.96677,5.19266 17.02,5.19266 17.05018,0 30.91525,-13.98669 30.91525,-31.18644 0,-6.10633 -1.77748,-12.03754 -5.14751,-17.16929 z m -38.65916,-5.40205 c 6.05323,0 11.94041,1.79307 17.01244,5.18505 l 8.54019,-12.99689 c -7.6156,-5.08987 -16.44637,-7.78138 -25.55263,-7.78138 -25.57528,0 -46.372885,20.98004 -46.372885,46.77966 0,9.17472 2.668102,18.08677 7.713719,25.7844 l 12.891416,-8.60749 c -3.37003,-5.13937 -5.14751,-11.07058 -5.14751,-17.17691 0,-17.19975 13.86507,-31.18644 30.91526,-31.18644 z m 154.57627,54.57627 v 46.77966 h 30.91525 v -15.59322 h -15.45763 v -31.18644 z m 7.72881,-46.77966 c -19.55978,0 -38.66671,6.87533 -53.79979,19.3659 l 9.80065,12.0718 c 10.36295,-8.56181 23.03172,-13.84964 36.27033,-15.35338 v 15.10212 h 15.45762 v -15.13258 c 32.19081,3.60898 57.79628,29.44667 61.37388,61.91224 h -15.00099 v 15.59322 h 14.9708 c -1.49067,13.36236 -6.73252,26.13464 -15.21988,36.5961 l 11.95929,9.87901 c 12.38195,-15.26582 19.20504,-34.54035 19.20504,-54.27172 0,-47.28598 -38.14215,-85.76271 -85.01695,-85.76271 z m 7.72881,155.44111 v -15.10213 h -15.45762 v 15.13258 c -32.19081,-3.60897 -57.79628,-29.44667 -61.37388,-61.91224 h 15.001 v -15.59322 h -14.97081 c 1.49067,-13.36235 6.73252,-26.13463 15.21988,-36.5961 l -11.95928,-9.879 c -12.38195,15.26582 -19.20505,34.54035 -19.20505,54.27171 0,47.28599 38.14215,85.76271 85.01695,85.76271 19.55979,0 38.66671,-6.87533 53.79979,-19.36589 l -9.80065,-12.0718 c -10.36295,8.5618 -23.02416,13.84964 -36.27033,15.35338 z M 441.22034,84.271187 h 46.37288 V 380.54237 h -77.68061 c -4.00404,60.85392 -54.21869,109.15255 -115.53973,109.15255 -51.11659,0 -94.53078,-33.58862 -109.91294,-80.00282 l -3.09077,-2.22706 c -5.15505,2.65724 -10.54032,4.90334 -16.10672,6.70402 l -3.45306,20.94958 h -59.47564 l -3.453056,-20.94958 c -5.566406,-1.80068 -10.951668,-4.04678 -16.106727,-6.70402 L 65.655852,419.79952 23.615334,377.37881 35.835011,360.11434 C 33.193327,354.91406 30.966764,349.48156 29.18174,343.86633 L 8.4067799,340.36775 v -59.98974 l 20.7674131,-3.49096 c 1.785023,-5.62285 4.019134,-11.05535 6.65327,-16.24801 L 23.607786,243.37838 65.644532,200.95385 82.76642,213.28833 c 5.155058,-2.65724 10.54032,-4.90333 16.106726,-6.70401 l 3.453064,-20.9572 h 59.47563 l 3.45306,20.94958 c 5.56641,1.80068 10.95167,4.04678 16.10673,6.70402 l 17.11811,-12.33448 42.04052,42.42072 -12.21968,17.26446 c 2.07184,4.06962 3.78516,8.33339 5.33998,12.67711 6.91744,-4.31326 14.29906,-7.90701 22.08071,-10.68989 v -38.00847 h 46.37288 v 31.58236 c 5.23808,0.35405 10.4271,0.92889 15.45762,1.96819 v -72.5336 h 46.37289 v 93.77632 c 5.5664,4.23331 10.73656,8.9425 15.45762,14.09709 V 146.64407 h 46.37288 v 218.30508 h 15.45763 V 84.271187 Z M 394.84746,314.65188 c 8.56283,15.01076 13.86507,32.07727 15.06515,50.29727 h 0.39247 V 162.23729 h -15.45762 z m -61.83051,-52.03324 c 5.33243,1.91109 10.51768,4.12292 15.45763,6.76874 v -68.16704 h -15.45763 z m -61.83051,-4.46934 c 5.03052,-1.03549 10.21577,-1.61034 15.45763,-1.96438 v -15.98153 h -15.45763 z m -91.27019,132.31776 c -0.87931,-5.79416 -1.47557,-11.67969 -1.47557,-17.7213 0,-0.0685 0.008,-0.14085 0.008,-0.20938 -13.26126,10.04271 -29.50007,15.8026 -46.38043,15.8026 -42.617919,0 -77.288139,-34.97434 -77.288139,-77.9661 0,-42.99176 34.67022,-77.9661 77.288139,-77.9661 37.45531,0 68.75549,27.02165 75.78992,62.76119 3.90214,-4.42747 8.05336,-8.63033 12.57442,-12.41062 -2.019,-6.58981 -4.58521,-12.93598 -7.92128,-18.79866 l -2.46809,-4.33991 10.30257,-14.55774 -23.53363,-23.73245 -14.41228,10.39294 -4.30594,-2.48974 c -6.75517,-3.90592 -14.04244,-6.94385 -21.68823,-9.03386 l -4.78523,-1.30959 -2.92094,-17.668 h -33.27013 l -2.92095,17.66039 -4.78522,1.30958 c -7.63824,2.09001 -14.933065,5.12795 -21.68823,9.03387 l -4.305945,2.48974 -14.412275,-10.39295 -23.533633,23.73246 10.302569,14.55393 -2.468089,4.34371 c -3.864407,6.79158 -6.875926,14.14278 -8.955309,21.87086 l -1.290651,4.8272 -17.50682,2.93896 v 33.56958 l 17.50682,2.93896 1.298199,4.8272 c 2.079383,7.72047 5.090903,15.07928 8.955309,21.87086 l 2.468088,4.34372 -10.302569,14.55392 23.533634,23.73246 14.412275,-10.39294 4.305945,2.48973 c 6.755164,3.90592 14.042442,6.94386 21.688232,9.03387 l 4.78522,1.30959 2.92095,17.66038 h 33.27012 l 2.92095,-17.66038 4.78522,-1.30959 c 7.63825,-2.09001 14.93307,-5.12795 21.68823,-9.03387 z m 13.98206,-80.09418 C 193.89831,275.981 166.16062,248 132.0678,248 c -34.092826,0 -61.830512,27.981 -61.830512,62.37288 0,34.39188 27.737686,62.37288 61.830512,62.37288 19.11447,0 37.26662,-9.10619 48.94663,-24.3644 2.51338,-11.91953 6.8797,-23.13096 12.69896,-33.41731 0.0981,-1.51897 0.18492,-3.03794 0.18492,-4.59117 z m 200.94915,62.37288 c 0,-55.88586 -45.07468,-101.35593 -100.47458,-101.35593 -55.39989,0 -100.47457,45.47007 -100.47457,101.35593 0,55.88586 45.07468,101.35593 100.47457,101.35593 55.3999,0 100.47458,-45.47007 100.47458,-101.35593 z m 61.83051,-7.79661 h 15.45762 V 99.864407 H 456.67797 Z M 441.22034,6.3050849 h 46.37288 V 53.084746 H 472.13559 V 30.326868 L 402.00265,86.920816 379.38983,64.10964 353.87871,89.844545 c 1.45292,3.049357 2.32468,6.418499 2.32468,10.019862 0,12.894103 -10.40446,23.389833 -23.18644,23.389833 -3.14738,0 -6.13626,-0.64718 -8.86474,-1.79307 l -40.3989,45.28353 c 1.78502,3.31204 2.89076,7.05426 2.89076,11.08581 0,12.8941 -10.40446,23.38983 -23.18644,23.38983 -12.78198,0 -23.18644,-10.49573 -23.18644,-23.38983 0,-7.16466 3.27569,-13.50321 8.31753,-17.79363 L 217.51119,76.428893 c -0.14718,0.0076 -0.27926,0.04568 -0.42644,0.04568 -5.49471,0 -10.48749,-2.017677 -14.46134,-5.253575 L 139.2645,110.54668 c 0.33964,1.5913 0.53211,3.22828 0.53211,4.91095 0,12.8941 -10.40446,23.38983 -23.18644,23.38983 -10.06104,0 -18.563494,-6.54032 -21.763706,-15.59322 H 53.356926 c -3.200212,9.0529 -11.702662,15.59322 -21.763705,15.59322 -12.781979,0 -23.1864411,-10.49573 -23.1864411,-23.38983 0,-12.8941 10.4044621,-23.389833 23.1864411,-23.389833 10.061043,0 18.563493,6.540321 21.763705,15.593223 h 41.497087 c 3.200211,-9.052902 11.702657,-15.593223 21.763707,-15.593223 5.4947,0 10.48748,2.017677 14.46133,5.253575 l 63.35891,-39.325676 c -0.34719,-1.5913 -0.53965,-3.228284 -0.53965,-4.91095 0,-12.894101 10.40446,-23.389831 23.18644,-23.389831 12.78197,0 23.18644,10.49573 23.18644,23.389831 0,7.164658 -3.27569,13.503211 -8.31754,17.79363 l 31.07753,83.600374 c 0.14718,0 0.27927,-0.0381 0.42645,-0.0381 3.14737,0 6.13625,0.64718 8.87228,1.79307 l 40.3989,-45.28354 c -1.78502,-3.31204 -2.8983,-7.05425 -2.8983,-11.085803 0,-12.894101 10.40446,-23.389831 23.18644,-23.389831 3.57005,0 6.90989,0.879403 9.93273,2.345075 l 36.44015,-36.759799 23.76006,23.968485 54.6791,-44.130032 H 441.22034 Z M 39.322034,115.45763 c 0,-4.29423 -3.464381,-7.79661 -7.728813,-7.79661 -4.264433,0 -7.728814,3.50238 -7.728814,7.79661 0,4.29422 3.464381,7.79661 7.728814,7.79661 4.264432,0 7.728813,-3.50239 7.728813,-7.79661 z m 85.016946,0 c 0,-4.29423 -3.46438,-7.79661 -7.72881,-7.79661 -4.26443,0 -7.72881,3.50238 -7.72881,7.79661 0,4.29422 3.46438,7.79661 7.72881,7.79661 4.26443,0 7.72881,-3.50239 7.72881,-7.79661 z m 92.74577,-54.576274 c 4.26443,0 7.72881,-3.502383 7.72881,-7.79661 0,-4.294227 -3.46438,-7.79661 -7.72881,-7.79661 -4.26444,0 -7.72882,3.502383 -7.72882,7.79661 0,4.294227 3.46438,7.79661 7.72882,7.79661 z m 54.10169,116.949154 c 0,-4.29423 -3.46438,-7.79661 -7.72881,-7.79661 -4.26444,0 -7.72882,3.50238 -7.72882,7.79661 0,4.29423 3.46438,7.79661 7.72882,7.79661 4.26443,0 7.72881,-3.50238 7.72881,-7.79661 z m 69.55932,-77.966103 c 0,-4.294227 -3.46438,-7.79661 -7.72881,-7.79661 -4.26443,0 -7.72881,3.502383 -7.72881,7.79661 0,4.294223 3.46438,7.796613 7.72881,7.796613 4.26443,0 7.72881,-3.50239 7.72881,-7.796613 z m 0,0"
     id="path7"
     style="fill:#00c3e8;fill-opacity:1;stroke-width:0.9703297"
     inkscape:connector-curvature="0" />
</svg>
