<?xml version="1.0" encoding="UTF-8" standalone="no"?>
<svg
   xmlns:dc="http://purl.org/dc/elements/1.1/"
   xmlns:cc="http://creativecommons.org/ns#"
   xmlns:rdf="http://www.w3.org/1999/02/22-rdf-syntax-ns#"
   xmlns:svg="http://www.w3.org/2000/svg"
   xmlns="http://www.w3.org/2000/svg"
   xmlns:sodipodi="http://sodipodi.sourceforge.net/DTD/sodipodi-0.dtd"
   xmlns:inkscape="http://www.inkscape.org/namespaces/inkscape"
   class="icon"
   height="511.99997"
   viewBox="0 0 511.99973 1023.9999"
   version="1.1"
   id="svg6"
   sodipodi:docname="Failed.svg"
   width="511.99973"
   inkscape:version="0.92.3 (2405546, 2018-03-11)">
  <metadata
     id="metadata12">
    <rdf:RDF>
      <cc:Work
         rdf:about="">
        <dc:format>image/svg+xml</dc:format>
        <dc:type
           rdf:resource="http://purl.org/dc/dcmitype/StillImage" />
      </cc:Work>
    </rdf:RDF>
  </metadata>
  <defs
     id="defs10" />
  <sodipodi:namedview
     pagecolor="#ffffff"
     bordercolor="#666666"
     borderopacity="1"
     objecttolerance="10"
     gridtolerance="10"
     guidetolerance="10"
     inkscape:pageopacity="0"
     inkscape:pageshadow="2"
     inkscape:window-width="1920"
     inkscape:window-height="1017"
     id="namedview8"
     showgrid="false"
     inkscape:zoom="1.1210937"
     inkscape:cx="376.57392"
     inkscape:cy="260.92896"
     inkscape:window-x="-8"
     inkscape:window-y="-8"
     inkscape:window-maximized="1"
     inkscape:current-layer="svg6" />
  <path
     d="m 258.67568,243.32859 a 60.527915,60.527915 0 0 0 -60.44792,60.44791 l 27.75997,250.14365 c 0.08,33.75995 14.41598,60.17592 32.68795,60.17592 18.27197,0 32.60795,-26.39997 32.68795,-60.17592 l 27.72796,-249.59965 0.032,-0.544 a 60.511915,60.511915 0 0 0 -60.44792,-60.44791 z m 0,416.44741 a 60.527915,60.527915 0 0 0 -60.44792,60.44792 c 0,33.32795 27.11997,60.44791 60.44792,60.44791 33.32795,0 60.44791,-27.11996 60.44791,-60.44791 A 60.511915,60.511915 0 0 0 258.67568,659.776 Z"
     id="path2"
     inkscape:connector-curvature="0"
     style="fill:#ff496c" />
  <path
     d="M 722.20094,317.25032 A 501.38153,503.15949 0 0 0 614.40045,156.78264 501.38153,503.15949 0 0 0 454.4998,48.59989 499.9509,501.72378 0 0 0 258.67613,8.9207818 499.93518,501.708 0 0 0 62.836742,48.615667 501.60163,503.38036 0 0 0 -97.063907,156.78264 501.38153,503.15949 0 0 0 -204.8644,317.25032 500.09239,501.86577 0 0 0 -244.4033,513.78418 c 0,68.14078 13.30017,134.26211 39.55462,196.53385 a 501.14571,502.92283 0 0 0 107.800494,160.4519 501.49158,503.26992 0 0 0 355.724316,147.87767 c 67.9,0 133.78769,-13.3473 195.82367,-39.6949 l 5.81685,-2.49277 c 28.7227,-12.47959 51.70714,-24.70676 72.3334,-38.51162 A 296.97407,298.02717 0 0 0 557.128,919.89945 46.927878,47.094289 0 0 0 563.7152,853.999 46.660617,46.82608 0 0 0 527.38343,836.6601 c -10.70616,0 -21.19223,3.73914 -29.50875,10.52324 -4.43339,3.61293 -9.33841,7.25741 -14.55786,10.83879 -47.02221,32.15349 -106.57424,53.95728 -172.24183,63.04482 a 384.54134,385.90496 0 0 1 -52.39886,3.64448 c -109.37261,0 -212.205194,-42.73985 -289.537935,-120.36258 -77.332745,-77.60698 -119.921545,-180.80422 -119.921545,-290.56467 0,-109.76046 42.5888,-212.9577 119.937266,-290.56467 77.31702,-77.60697 180.149604,-120.36258 289.522214,-120.36258 109.37261,0 212.18948,42.73983 289.53794,120.36258 77.33274,77.60697 119.92155,180.80421 119.92155,290.56467 a 413.94004,415.40792 0 0 1 -9.10259,86.6314 47.368072,47.536044 0 0 0 -0.91183,4.14935 l -0.12577,0.67841 a 404.82173,406.25727 0 0 1 -22.48137,69.79736 l -1.68217,4.10201 c -2.57828,5.79016 -5.29805,11.46988 -8.06499,16.88138 a 46.471962,46.636756 0 0 0 -2.90843,35.82952 46.503404,46.66831 0 0 0 23.18883,27.40462 47.006484,47.173174 0 0 0 21.34942,5.19062 46.692059,46.857634 0 0 0 41.67699,-25.52715 c 27.04052,-52.86867 37.82524,-100.59404 40.54502,-114.36734 8.065,-36.06618 12.13681,-73.3314 12.13681,-110.77018 0,-68.14078 -13.30018,-134.26212 -39.5546,-196.53386 z"
     id="path4"
     inkscape:connector-curvature="0"
     style="fill:#ff496c;stroke-width:0.98431903" />
</svg>
