<?xml version="1.0" encoding="UTF-8" standalone="no"?>
<!-- Generator: Adobe Illustrator 16.0.0, SVG Export Plug-In . SVG Version: 6.00 Build 0)  -->

<svg
   xmlns:dc="http://purl.org/dc/elements/1.1/"
   xmlns:cc="http://creativecommons.org/ns#"
   xmlns:rdf="http://www.w3.org/1999/02/22-rdf-syntax-ns#"
   xmlns:svg="http://www.w3.org/2000/svg"
   xmlns="http://www.w3.org/2000/svg"
   xmlns:sodipodi="http://sodipodi.sourceforge.net/DTD/sodipodi-0.dtd"
   xmlns:inkscape="http://www.inkscape.org/namespaces/inkscape"
   version="1.1"
   id="Capa_1"
   x="0px"
   y="0px"
   width="551.613px"
   height="551.613px"
   viewBox="0 0 551.613 551.613"
   style="enable-background:new 0 0 551.613 551.613;"
   xml:space="preserve"
   sodipodi:docname="family.svg"
   inkscape:version="0.92.3 (2405546, 2018-03-11)"><metadata
   id="metadata55"><rdf:RDF><cc:Work
       rdf:about=""><dc:format>image/svg+xml</dc:format><dc:type
         rdf:resource="http://purl.org/dc/dcmitype/StillImage" /></cc:Work></rdf:RDF></metadata><defs
   id="defs53" /><sodipodi:namedview
   pagecolor="#ffffff"
   bordercolor="#666666"
   borderopacity="1"
   objecttolerance="10"
   gridtolerance="10"
   guidetolerance="10"
   inkscape:pageopacity="0"
   inkscape:pageshadow="2"
   inkscape:window-width="1920"
   inkscape:window-height="1017"
   id="namedview51"
   showgrid="false"
   inkscape:zoom="0.8556724"
   inkscape:cx="293.35469"
   inkscape:cy="329.55155"
   inkscape:window-x="-8"
   inkscape:window-y="-8"
   inkscape:window-maximized="1"
   inkscape:current-layer="Capa_1" />
<g
   id="g18"
   style="fill:#00c3e8;fill-opacity:1"
   transform="matrix(0.9914156,0,0,0.97881356,2.3676332,5.8433578)">
	<g
   id="g16"
   style="fill:#00c3e8;fill-opacity:1">
		<circle
   cx="260.15701"
   cy="138.06799"
   r="34.223999"
   id="circle2"
   style="fill:#00c3e8;fill-opacity:1" />
		<circle
   cx="261.24701"
   cy="30.222"
   r="30.222"
   id="circle4"
   style="fill:#00c3e8;fill-opacity:1" />
		<path
   d="m 162.882,550.432 c 7.621,0 15.109,-6.512 15.109,-14.291 0,-0.096 0,-83.529 0,-83.529 0.043,-1.275 1.104,-2.514 2.295,-2.973 10.289,-3.949 10.49,-17.762 10.141,-23.281 -0.082,-1.275 -1.104,-1.768 -2.2,-1.104 l -12.895,7.812 c -1.095,0.66 -3.017,1.199 -4.298,1.199 -13.315,0 -79.67,0 -83.309,0 -2.639,0 -3.088,-3.527 -3.083,-5.98 0.004,-1.281 0.134,-3.348 0.134,-4.623 v -46.268 c 0,-1.283 -0.296,-1.072 -1.449,-0.521 -13.512,6.406 -60.607,32.234 -73.598,39.387 -10.552,6.141 -8.085,22.645 10.868,22.645 h 26.65 c 1.282,0 3.166,0.641 3.534,1.865 0,0 -0.938,95.596 -0.938,96.012 0,7.703 6.058,13.941 13.531,13.941 7.473,0 13.45,-6.238 13.45,-13.941 0,-0.488 -0.153,-41.74 -0.153,-41.74 0,-1.281 1.038,-2.941 2.314,-2.955 h 43.705 c 1.277,-0.02 1.731,0.822 1.057,1.912 -4.279,6.914 -15.429,26.703 -20.55,34.604 -3.925,5.178 -3.523,12.574 1.191,17.287 5.154,5.154 13.741,5.352 18.685,-0.018 0.296,-0.326 15.099,-22.979 22.993,-39.273 0.555,-1.152 1,-1.053 1,0.229 0.01,10.863 0.105,23.027 0.435,29.424 0,0.033 -0.005,0.068 -0.005,0.102 0.015,7.771 7.77,14.078 15.386,14.078 z"
   id="path6"
   style="fill:#00c3e8;fill-opacity:1"
   inkscape:connector-curvature="0" />
		<path
   d="m 289.653,551.607 c 11.489,0 21.229,-10.57 21.319,-20.988 l -0.02,-316.921 37.136,-30.705 c 2.559,-2.113 4.566,-4.819 5.848,-7.879 l 30.38,-72.541 c 4.375,-10.447 -0.55,-22.462 -10.996,-26.837 -8.238,-3.457 -17.399,-1.062 -23.07,5.207 -1.521,1.678 -2.845,3.576 -3.768,5.785 l -3.801,9.075 -43.337,-24.46 c -2.052,-1.157 -4.36,-1.765 -6.713,-1.765 -0.005,0 -0.005,0 -0.005,0 h -64.944 c -2.434,0 -4.819,0.65 -6.918,1.879 l -42.816,25.116 -4.121,-9.845 c -0.43,-1.033 -0.995,-1.965 -1.563,-2.883 -5.221,-8.401 -15.854,-12.059 -25.274,-8.109 -10.447,4.375 -15.372,16.39 -10.997,26.837 l 30.38,72.541 c 1.281,3.06 3.29,5.766 5.848,7.879 l 42.524,35.166 c 0.067,0.33 0.11,312.21 0.11,312.21 0.053,10.418 9.367,21.244 20.856,21.244 10.638,0 19.374,-9.133 20.674,-18.758 0.172,-1.266 0.148,-170.365 0.148,-170.365 0,-1.281 1.038,-2.314 2.314,-2.314 h 8.104 c 1.281,0 2.314,1.039 2.314,2.314 l -0.019,168.219 c 0.096,10.418 8.918,20.898 20.407,20.898 z M 232.631,179.718 202.256,154.597 188.61,122.017 231.397,96.915 h 57.638 l 43.012,24.274 -13.989,33.407 -30.376,25.121 h -55.051 z"
   id="path8"
   style="fill:#00c3e8;fill-opacity:1"
   inkscape:connector-curvature="0" />
		<circle
   cx="392.64499"
   cy="200.492"
   r="21.583"
   id="circle10"
   style="fill:#00c3e8;fill-opacity:1" />
		<path
   d="m 547.758,298.518 -3.639,-17.562 -8.458,-40.817 c 0,0 -3.958,-18.699 -20.76,-18.699 -20.32,0 -30.758,0 -33.995,0 -3.236,0 -7.258,-10.084 -9.944,-10.084 -2.688,0 -27.33,0 -37.361,0 -10.03,0 -13.201,2.807 -13.201,2.807 l -1.563,1.267 -28.229,22.864 c 0,0 -1.1,0.985 -2.232,2.959 -1.215,2.108 -2.467,5.35 -2.467,9.83 0,8.664 0,18.13 0,26.91 0,35.572 28.812,40.133 28.812,40.133 0,0 1.544,0 4.212,0 0.058,0.258 0.067,0.531 -0.005,0.809 l -20.334,78.729 c -0.259,0.998 0.368,1.811 1.4,1.811 h 25.054 c 1.033,0 1.87,0.838 1.87,1.871 v 129.021 c 0,1.033 -0.01,1.926 -0.015,1.998 -0.005,0.043 -0.005,0.092 -0.005,0.135 0,10.184 8.258,18.422 18.441,18.422 10.185,0 18.04,-8.268 18.04,-18.451 0,-1.314 0,-2.605 0,-3.844 V 400.271 c 0,-1.033 0.836,-1.836 1.869,-1.797 l 6.546,0.258 c 1.032,0.039 1.869,0.908 1.869,1.945 v 129.688 c 0,1.033 0.005,1.926 0.015,2.004 0.009,0.07 0.019,0.281 0.023,0.467 0.005,0.145 0.005,0.287 0.005,0.336 0,10.184 7.654,17.752 17.839,17.752 10.184,0 18.714,-8.266 18.714,-18.451 0,-1.314 -0.134,-2.605 -0.134,-3.844 V 401.496 c 0,-1.033 0.837,-1.898 1.869,-1.938 l 19.092,-0.678 c 1.032,-0.039 1.721,-0.889 1.539,-1.908 l -14.123,-78.838 c 1.889,0 3.59,0 5.062,0 29.2,-0.003 24.194,-19.616 24.194,-19.616 z"
   id="path12"
   style="fill:#00c3e8;fill-opacity:1"
   inkscape:connector-curvature="0" />
		<circle
   cx="470.57001"
   cy="166.26801"
   r="34.223999"
   id="circle14"
   style="fill:#00c3e8;fill-opacity:1" />
	</g>
</g>
<g
   id="g20">
</g>
<g
   id="g22">
</g>
<g
   id="g24">
</g>
<g
   id="g26">
</g>
<g
   id="g28">
</g>
<g
   id="g30">
</g>
<g
   id="g32">
</g>
<g
   id="g34">
</g>
<g
   id="g36">
</g>
<g
   id="g38">
</g>
<g
   id="g40">
</g>
<g
   id="g42">
</g>
<g
   id="g44">
</g>
<g
   id="g46">
</g>
<g
   id="g48">
</g>
</svg>