<?xml version="1.0" encoding="UTF-8" standalone="no"?>
<svg
   xmlns:dc="http://purl.org/dc/elements/1.1/"
   xmlns:cc="http://creativecommons.org/ns#"
   xmlns:rdf="http://www.w3.org/1999/02/22-rdf-syntax-ns#"
   xmlns:svg="http://www.w3.org/2000/svg"
   xmlns="http://www.w3.org/2000/svg"
   xmlns:sodipodi="http://sodipodi.sourceforge.net/DTD/sodipodi-0.dtd"
   xmlns:inkscape="http://www.inkscape.org/namespaces/inkscape"
   class="icon"
   height="511.1723"
   viewBox="0 0 508.25354 1022.3446"
   version="1.1"
   id="svg4"
   sodipodi:docname="resetPassword.svg"
   width="508.25354"
   inkscape:version="0.92.3 (2405546, 2018-03-11)">
  <metadata
     id="metadata10">
    <rdf:RDF>
      <cc:Work
         rdf:about="">
        <dc:format>image/svg+xml</dc:format>
        <dc:type
           rdf:resource="http://purl.org/dc/dcmitype/StillImage" />
      </cc:Work>
    </rdf:RDF>
  </metadata>
  <defs
     id="defs8" />
  <sodipodi:namedview
     pagecolor="#ffffff"
     bordercolor="#666666"
     borderopacity="1"
     objecttolerance="10"
     gridtolerance="10"
     guidetolerance="10"
     inkscape:pageopacity="0"
     inkscape:pageshadow="2"
     inkscape:window-width="1920"
     inkscape:window-height="1017"
     id="namedview6"
     showgrid="false"
     inkscape:zoom="0.28027344"
     inkscape:cx="254.13404"
     inkscape:cy="256"
     inkscape:window-x="-8"
     inkscape:window-y="-8"
     inkscape:window-maximized="1"
     inkscape:current-layer="svg4" />
  <path
     d="m 167.52302,754.40097 c 15.36334,0 27.82246,-12.37199 27.82246,-27.44491 v -70.51453 c 21.83975,-10.36808 37.05788,-32.09167 37.05788,-57.61978 0,-35.46057 -29.01318,-64.12525 -64.88034,-64.12525 -35.83811,0 -64.93843,28.66468 -64.93843,64.12525 0,25.44099 15.24717,47.2517 37.05789,57.61978 v 70.51454 c 0,15.07291 12.5172,27.4449 27.88054,27.4449 z m 221.41797,99.49868 H -180.02535 V 429.36033 h 689.23021 v 289.66721 c 34.29888,-31.91741 82.30568,-12.57529 82.30568,-12.57529 V 408.30471 c 0,-32.17879 -29.44882,-58.34584 -65.63544,-58.34584 H 427.33481 V 233.29623 C 427.33481,104.40682 309.62665,0 164.58976,0 19.465726,0 -98.126264,104.40682 -98.126264,233.29623 v 116.66264 h -98.453156 c -36.2447,0 -65.66448,26.13801 -65.66448,58.34584 v 466.56343 c 0,32.09167 29.41978,58.3168 65.66448,58.3168 l 558.13358,-4.32729 c -24.65685,-60.90156 27.38683,-74.98704 27.38683,-74.958 z M -7.7758835,233.29623 c 0,-80.35985 81.8700495,-153.894773 172.4237235,-153.894773 90.43751,0 172.27851,73.505883 172.27851,153.894773 V 349.95887 H -7.7758835 Z M 685.86875,817.01602 617.38717,885.46856 h 51.3757 c 0,56.66139 -46.06097,102.69332 -102.72236,102.69332 -17.30917,0 -33.68899,-4.24016 -47.94873,-11.99444 l -24.88919,25.00536 c 21.02658,13.4175 45.97385,21.1718 72.86696,21.1718 75.62597,0 136.93412,-61.22103 136.93412,-136.93413 h 51.2595 z m -222.63774,68.53966 v 0 c 0,-56.66139 46.00289,-102.75141 102.66428,-102.75141 17.36726,0 33.71803,4.24017 47.97777,11.99445 l 24.88919,-25.00536 c -21.02657,-13.38847 -46.00289,-21.17179 -72.896,-21.17179 -75.62597,0 -136.93411,61.19198 -136.93411,136.93412 h -51.40475 l 68.45254,68.48157 68.42349,-68.48157 z"
     id="path2"
     inkscape:connector-curvature="0"
     style="fill:#00c3e8;fill-opacity:1" />
</svg>
