<?xml version="1.0" encoding="UTF-8" standalone="no"?>
<svg
   xmlns:dc="http://purl.org/dc/elements/1.1/"
   xmlns:cc="http://creativecommons.org/ns#"
   xmlns:rdf="http://www.w3.org/1999/02/22-rdf-syntax-ns#"
   xmlns:svg="http://www.w3.org/2000/svg"
   xmlns="http://www.w3.org/2000/svg"
   xmlns:sodipodi="http://sodipodi.sourceforge.net/DTD/sodipodi-0.dtd"
   xmlns:inkscape="http://www.inkscape.org/namespaces/inkscape"
   class="icon"
   height="653.4328"
   viewBox="0 0 684.32111 1306.8656"
   version="1.1"
   id="svg4"
   sodipodi:docname="newKey.svg"
   width="684.32111"
   inkscape:version="0.92.3 (2405546, 2018-03-11)">
  <metadata
     id="metadata10">
    <rdf:RDF>
      <cc:Work
         rdf:about="">
        <dc:format>image/svg+xml</dc:format>
        <dc:type
           rdf:resource="http://purl.org/dc/dcmitype/StillImage" />
        <dc:title></dc:title>
      </cc:Work>
    </rdf:RDF>
  </metadata>
  <defs
     id="defs8">
    <pattern
       y="0"
       x="0"
       height="6"
       width="6"
       patternUnits="userSpaceOnUse"
       id="EMFhbasepattern" />
  </defs>
  <sodipodi:namedview
     pagecolor="#ffffff"
     bordercolor="#666666"
     borderopacity="1"
     objecttolerance="10"
     gridtolerance="10"
     guidetolerance="10"
     inkscape:pageopacity="0"
     inkscape:pageshadow="2"
     inkscape:window-width="1920"
     inkscape:window-height="1017"
     id="namedview6"
     showgrid="false"
     inkscape:zoom="2.2421875"
     inkscape:cx="242.37714"
     inkscape:cy="332.75078"
     inkscape:window-x="-8"
     inkscape:window-y="-8"
     inkscape:window-maximized="1"
     inkscape:current-layer="svg4" />
  <path
     d="m -274.02251,483.12064 c 83.10529,-83.74475 218.366868,-83.61815 302.110435,0.28279 26.313767,26.36322 39.118563,59.63458 48.944907,93.09377 l 270.573158,1.13024 269.90842,0.26697 c 32.24206,0.0319 57.84006,23.98004 57.9634,56.37663 0.12335,32.39658 -26.1857,58.90806 -58.42829,58.87788 l -22.01934,-0.0206 0.30034,78.88436 c 0.0462,12.11579 -17.73891,53.1654 -29.79712,53.15081 l -59.14205,-0.0715 c -12.05821,-0.0146 -28.32006,-41.07337 -28.36618,-53.18916 l -0.30034,-78.88434 -60.68422,-0.0568 0.30033,78.88435 c 0.0462,12.11579 -12.88487,30.13282 -21.93509,22.10387 -28.01979,-24.85789 -52.44216,-24.88174 -73.26668,-0.0686 -7.76385,9.25089 -22.05745,-10.0293 -22.10357,-22.1451 l -0.30034,-78.88434 -216.13021,-0.20231 c -9.370765,34.56062 -27.530575,67.13763 -54.42718,94.24118 -83.105293,83.74476 -218.36687,83.61814 -302.11043,-0.28278 -83.74356,-83.90093 -84.12996,-219.80839 -1.08995,-303.48735 z m 230.044069,228.7071 C 3.3696957,662.33646 -4.7984021,596.40766 -45.430292,557.35515 -94.929092,509.78042 -155.2794,510.3351 -200.05631,555.45657 c -47.41816,47.78303 -46.1896,110.21092 -0.30422,158.02097 44.15849,46.01075 104.72127,52.34937 156.382089,-1.6498 z"
     id="path2"
     style="fill:#00c3e8;fill-opacity:1;stroke-width:0.92899549"
     inkscape:connector-curvature="0"
     sodipodi:nodetypes="ssccssscssssccssssccsssssssss" />
  <path
     inkscape:connector-curvature="0"
     d="M 381.51104,1306.3361 C 717.7784,1320.6982 1003.3326,1041.1148 1017.7782,683.06497 1032.2228,325.04218 770.17298,22.043598 433.9056,7.6816191 262.79896,0.37363603 101.40264,66.655604 -21.004608,194.9045 c -20.097978,21.03999 -20.509293,55.7874 -0.711671,77.0407 19.7998081,21.19921 52.573651,21.63008 72.672735,0.56307 C 152.91868,165.66388 287.09088,109.81884 429.53938,115.90285 709.51125,127.86044 927.73882,380.33944 915.70116,678.70531 903.66352,977.07116 665.8491,1210.0725 385.87725,1198.1149 c -143.29065,-6.12 -273.129,-73.8508 -366.192367,-190.1087 -18.2541949,-22.75933 -50.104748,-25.00723 -71.670597,-5.6019 -21.513678,19.3805 -24.487481,53.1715 -6.259906,75.9569 110.075038,137.5006 270.15563,220.7312 439.75666,227.9749 z"
     id="path2-0"
     style="fill:#00c3e8;fill-opacity:1;stroke-width:26.29868889"
     sodipodi:nodetypes="ssscccssscccs" />
</svg>
