<?xml version="1.0" encoding="UTF-8" standalone="no"?>
<!-- Created with Inkscape (http://www.inkscape.org/) -->

<svg
   xmlns:dc="http://purl.org/dc/elements/1.1/"
   xmlns:cc="http://creativecommons.org/ns#"
   xmlns:rdf="http://www.w3.org/1999/02/22-rdf-syntax-ns#"
   xmlns:svg="http://www.w3.org/2000/svg"
   xmlns="http://www.w3.org/2000/svg"
   xmlns:sodipodi="http://sodipodi.sourceforge.net/DTD/sodipodi-0.dtd"
   xmlns:inkscape="http://www.inkscape.org/namespaces/inkscape"
   version="1.1"
   id="svg2"
   width="998.32233"
   height="1251.877"
   viewBox="0 0 998.32233 1251.877"
   sodipodi:docname="SensorNodeAvatar.svg"
   inkscape:version="0.92.3 (2405546, 2018-03-11)">
  <metadata
     id="metadata8">
    <rdf:RDF>
      <cc:Work
         rdf:about="">
        <dc:format>image/svg+xml</dc:format>
        <dc:type
           rdf:resource="http://purl.org/dc/dcmitype/StillImage" />
        <dc:title></dc:title>
      </cc:Work>
    </rdf:RDF>
  </metadata>
  <defs
     id="defs6" />
  <sodipodi:namedview
     pagecolor="#ffffff"
     bordercolor="#666666"
     borderopacity="1"
     objecttolerance="10"
     gridtolerance="10"
     guidetolerance="10"
     inkscape:pageopacity="0"
     inkscape:pageshadow="2"
     inkscape:window-width="1920"
     inkscape:window-height="1017"
     id="namedview4"
     showgrid="false"
     inkscape:zoom="0.125"
     inkscape:cx="3216.4503"
     inkscape:cy="1404.5666"
     inkscape:window-x="-8"
     inkscape:window-y="-8"
     inkscape:window-maximized="1"
     inkscape:current-layer="svg2" />
  <path
     style="color:#000000;font-style:normal;font-variant:normal;font-weight:normal;font-stretch:normal;font-size:medium;line-height:normal;font-family:sans-serif;font-variant-ligatures:normal;font-variant-position:normal;font-variant-caps:normal;font-variant-numeric:normal;font-variant-alternates:normal;font-feature-settings:normal;text-indent:0;text-align:start;text-decoration:none;text-decoration-line:none;text-decoration-style:solid;text-decoration-color:#000000;letter-spacing:normal;word-spacing:normal;text-transform:none;writing-mode:lr-tb;direction:ltr;text-orientation:mixed;dominant-baseline:auto;baseline-shift:baseline;text-anchor:start;white-space:normal;shape-padding:0;clip-rule:nonzero;display:inline;overflow:visible;visibility:visible;opacity:1;isolation:auto;mix-blend-mode:normal;color-interpolation:sRGB;color-interpolation-filters:linearRGB;solid-color:#000000;solid-opacity:1;vector-effect:none;fill:#000000;fill-opacity:1;fill-rule:nonzero;stroke:none;stroke-width:40;stroke-linecap:butt;stroke-linejoin:miter;stroke-miterlimit:4;stroke-dasharray:none;stroke-dashoffset:0;stroke-opacity:1;color-rendering:auto;image-rendering:auto;shape-rendering:auto;text-rendering:auto;enable-background:accumulate"
     d="m 794.4649,0 c -5.2477,4.9876 -10.5048,9.9658 -15.7637,14.9414 -5.0202,4.7885 -10.0658,9.5503 -15.1035,14.3203 22.399,10.9407 43.4605,23.2942 62.8613,36.9649 85.7829,60.4461 131.8633,140.3664 131.8633,222.3965 0,82.03 -46.0804,161.9503 -131.8633,222.3964 -15.1506,10.6758 -31.3148,20.5472 -48.3359,29.5723 2.2324,2.1087 4.4636,4.2187 6.6953,6.3281 6.8926,6.5117 13.7615,13.0498 20.6309,19.586 1.06,1.0099 2.1273,2.0118 3.1894,3.0195 14.1814,-8.0176 27.826,-16.6247 40.8594,-25.8086 93.9375,-66.1922 148.8242,-158.0301 148.8242,-255.0937 0,-97.0637 -54.8867,-188.9016 -148.8242,-255.0938 C 832.1758,21.3233 813.7739,10.1357 794.4649,0 Z"
     id="path4977"
     inkscape:connector-curvature="0" />
  <path
     style="color:#000000;font-style:normal;font-variant:normal;font-weight:normal;font-stretch:normal;font-size:medium;line-height:normal;font-family:sans-serif;font-variant-ligatures:normal;font-variant-position:normal;font-variant-caps:normal;font-variant-numeric:normal;font-variant-alternates:normal;font-feature-settings:normal;text-indent:0;text-align:start;text-decoration:none;text-decoration-line:none;text-decoration-style:solid;text-decoration-color:#000000;letter-spacing:normal;word-spacing:normal;text-transform:none;writing-mode:lr-tb;direction:ltr;text-orientation:mixed;dominant-baseline:auto;baseline-shift:baseline;text-anchor:start;white-space:normal;shape-padding:0;clip-rule:nonzero;display:inline;overflow:visible;visibility:visible;opacity:1;isolation:auto;mix-blend-mode:normal;color-interpolation:sRGB;color-interpolation-filters:linearRGB;solid-color:#000000;solid-opacity:1;vector-effect:none;fill:#000000;fill-opacity:1;fill-rule:nonzero;stroke:none;stroke-width:40;stroke-linecap:butt;stroke-linejoin:miter;stroke-miterlimit:4;stroke-dasharray:none;stroke-dashoffset:0;stroke-opacity:1;color-rendering:auto;image-rendering:auto;shape-rendering:auto;text-rendering:auto;enable-background:accumulate"
     d="M 195.4239,4.5215 C 179.175,13.4353 163.6063,23.1119 148.8223,33.5293 54.8848,99.7215 0,191.5594 0,288.6231 c 0,97.0636 54.8848,188.9015 148.8223,255.0937 12.516,8.8193 25.5986,17.1033 39.1758,24.8477 2.2677,-2.2519 4.541,-4.498 6.8086,-6.75 7.5557,-7.5438 15.1178,-15.0835 22.6191,-22.6817 0.01,-0.01 0.01,-0.01 0.016,-0.016 -16.0104,-8.6232 -31.2481,-18.0001 -45.5781,-28.0977 C 86.0809,450.573 40.0004,370.6527 40.0004,288.6227 c 0,-82.0301 46.0805,-161.9504 131.8633,-222.3965 16.6163,-11.7085 34.4522,-22.4489 53.3008,-32.166 -0.7482,-0.7512 -1.4976,-1.501 -2.2461,-2.252 -4.145,-4.1227 -8.3083,-8.2287 -12.4648,-12.3398 -4.0894,-4.0465 -8.1567,-8.1137 -12.2285,-12.1778 -0.9356,-0.9211 -1.866,-1.8476 -2.8008,-2.7695 z"
     id="path5019"
     inkscape:connector-curvature="0" />
  <path
     style="color:#000000;font-style:normal;font-variant:normal;font-weight:normal;font-stretch:normal;font-size:medium;line-height:normal;font-family:sans-serif;font-variant-ligatures:normal;font-variant-position:normal;font-variant-caps:normal;font-variant-numeric:normal;font-variant-alternates:normal;font-feature-settings:normal;text-indent:0;text-align:start;text-decoration:none;text-decoration-line:none;text-decoration-style:solid;text-decoration-color:#000000;letter-spacing:normal;word-spacing:normal;text-transform:none;writing-mode:lr-tb;direction:ltr;text-orientation:mixed;dominant-baseline:auto;baseline-shift:baseline;text-anchor:start;white-space:normal;shape-padding:0;clip-rule:nonzero;display:inline;overflow:visible;visibility:visible;opacity:1;isolation:auto;mix-blend-mode:normal;color-interpolation:sRGB;color-interpolation-filters:linearRGB;solid-color:#000000;solid-opacity:1;vector-effect:none;fill:#000000;fill-opacity:1;fill-rule:nonzero;stroke:none;stroke-width:40;stroke-linecap:butt;stroke-linejoin:miter;stroke-miterlimit:4;stroke-dasharray:none;stroke-dashoffset:0;stroke-opacity:1;color-rendering:auto;image-rendering:auto;shape-rendering:auto;text-rendering:auto;enable-background:accumulate"
     d="m 674.5059,117.7188 c -2.6001,2.6877 -5.2036,5.3723 -7.8008,8.0625 -5.3025,5.4479 -10.5512,10.9478 -15.8183,16.4297 -2.1676,2.2608 -4.338,4.5188 -6.5078,6.7773 20.5949,7.4739 39.391,16.4343 55.8886,26.5781 50.2822,30.9167 78.1153,71.0411 78.1153,113.0567 0,42.0155 -27.8331,82.1418 -78.1153,113.0586 -13.849,8.5153 -29.3172,16.1971 -46.1074,22.8671 2.8461,2.673 5.6867,5.3519 8.543,8.0137 5.4551,5.0796 10.9236,10.1438 16.3886,15.2129 2.373,2.2104 4.7541,4.4125 7.1309,6.6191 12.3279,-5.665 24.0222,-11.8912 34.9961,-18.6386 58.0153,-35.6716 97.1641,-87.5381 97.1641,-147.1328 0,-59.5948 -39.1488,-111.4593 -97.1641,-147.1309 -14.3959,-8.8515 -30.0313,-16.8087 -46.7129,-23.7734 z"
     id="path4985"
     inkscape:connector-curvature="0" />
  <path
     style="color:#000000;font-style:normal;font-variant:normal;font-weight:normal;font-stretch:normal;font-size:medium;line-height:normal;font-family:sans-serif;font-variant-ligatures:normal;font-variant-position:normal;font-variant-caps:normal;font-variant-numeric:normal;font-variant-alternates:normal;font-feature-settings:normal;text-indent:0;text-align:start;text-decoration:none;text-decoration-line:none;text-decoration-style:solid;text-decoration-color:#000000;letter-spacing:normal;word-spacing:normal;text-transform:none;writing-mode:lr-tb;direction:ltr;text-orientation:mixed;dominant-baseline:auto;baseline-shift:baseline;text-anchor:start;white-space:normal;shape-padding:0;clip-rule:nonzero;display:inline;overflow:visible;visibility:visible;opacity:1;isolation:auto;mix-blend-mode:normal;color-interpolation:sRGB;color-interpolation-filters:linearRGB;solid-color:#000000;solid-opacity:1;vector-effect:none;fill:#000000;fill-opacity:1;fill-rule:nonzero;stroke:none;stroke-width:40;stroke-linecap:butt;stroke-linejoin:miter;stroke-miterlimit:4;stroke-dasharray:none;stroke-dashoffset:0;stroke-opacity:1;color-rendering:auto;image-rendering:auto;shape-rendering:auto;text-rendering:auto;enable-background:accumulate"
     d="m 312.6622,122.5996 c -12.5342,5.7337 -24.4204,12.0429 -35.5606,18.8926 -58.0153,35.6716 -97.1641,87.5361 -97.1641,147.1309 0,59.5947 39.1488,111.4612 97.1641,147.1328 8.5701,5.2694 17.5892,10.2147 26.9961,14.8301 0.6378,-0.65 1.2741,-1.3015 1.9121,-1.9512 7.4717,-7.5882 14.9221,-15.1975 22.4082,-22.7715 1.8446,-1.8546 3.6981,-3.7004 5.5449,-5.5527 -12.8924,-5.6242 -24.9098,-11.8652 -35.9101,-18.6289 -50.2822,-30.9168 -78.1153,-71.0431 -78.1153,-113.0586 0,-42.0156 27.8331,-82.14 78.1153,-113.0567 13.2733,-8.1613 28.0396,-15.5536 44.0254,-22.0273 -0.347,-0.3698 -0.6984,-0.7354 -1.045,-1.1055 -4.4854,-4.7631 -8.9517,-9.5459 -13.4726,-14.2754 -4.5365,-4.7703 -9.069,-9.5441 -13.6504,-14.2715 -0.4148,-0.4302 -0.8331,-0.857 -1.248,-1.2871 z"
     id="path5035"
     inkscape:connector-curvature="0" />
  <path
     style="color:#000000;font-style:normal;font-variant:normal;font-weight:normal;font-stretch:normal;font-size:medium;line-height:normal;font-family:sans-serif;font-variant-ligatures:normal;font-variant-position:normal;font-variant-caps:normal;font-variant-numeric:normal;font-variant-alternates:normal;font-feature-settings:normal;text-indent:0;text-align:start;text-decoration:none;text-decoration-line:none;text-decoration-style:solid;text-decoration-color:#000000;letter-spacing:normal;word-spacing:normal;text-transform:none;writing-mode:lr-tb;direction:ltr;text-orientation:mixed;dominant-baseline:auto;baseline-shift:baseline;text-anchor:start;white-space:normal;shape-padding:0;clip-rule:nonzero;display:inline;overflow:visible;visibility:visible;opacity:1;isolation:auto;mix-blend-mode:normal;color-interpolation:sRGB;color-interpolation-filters:linearRGB;solid-color:#000000;solid-opacity:1;vector-effect:none;fill:#000000;fill-opacity:1;fill-rule:nonzero;stroke:none;stroke-width:40;stroke-linecap:butt;stroke-linejoin:miter;stroke-miterlimit:4;stroke-dasharray:none;stroke-dashoffset:0;stroke-opacity:1;color-rendering:auto;image-rendering:auto;shape-rendering:auto;text-rendering:auto;enable-background:accumulate"
     d="m 583.3907,212.4961 c -5.217,5.2841 -10.4684,10.5341 -15.7168,15.7871 -5.1174,5.0954 -10.2279,10.1979 -15.3379,15.3008 9.6127,2.9809 18.2057,6.6814 25.418,10.8691 18.8636,10.9531 26.7578,23.3788 26.7578,34.17 0,10.7911 -7.8942,23.2168 -26.7578,34.1699 -5.8322,3.3863 -12.5669,6.4559 -20.0118,9.084 3.0788,3.0568 6.1552,6.1161 9.2383,9.1679 5.0913,4.9988 10.2334,9.9438 15.3711,14.8946 2.1655,2.0802 4.3232,4.1687 6.4805,6.2578 3.0919,-1.5231 6.1004,-3.1244 9.0078,-4.8125 26.5041,-15.3895 46.6719,-39.3554 46.6719,-68.7617 0,-29.4064 -20.1678,-53.3723 -46.6719,-68.7618 -4.5856,-2.6626 -9.4133,-5.1169 -14.4492,-7.3652 z"
     id="path4993"
     inkscape:connector-curvature="0" />
  <path
     style="color:#000000;font-style:normal;font-variant:normal;font-weight:normal;font-stretch:normal;font-size:medium;line-height:normal;font-family:sans-serif;font-variant-ligatures:normal;font-variant-position:normal;font-variant-caps:normal;font-variant-numeric:normal;font-variant-alternates:normal;font-feature-settings:normal;text-indent:0;text-align:start;text-decoration:none;text-decoration-line:none;text-decoration-style:solid;text-decoration-color:#000000;letter-spacing:normal;word-spacing:normal;text-transform:none;writing-mode:lr-tb;direction:ltr;text-orientation:mixed;dominant-baseline:auto;baseline-shift:baseline;text-anchor:start;white-space:normal;shape-padding:0;clip-rule:nonzero;display:inline;overflow:visible;visibility:visible;opacity:1;isolation:auto;mix-blend-mode:normal;color-interpolation:sRGB;color-interpolation-filters:linearRGB;solid-color:#000000;solid-opacity:1;vector-effect:none;fill:#000000;fill-opacity:1;fill-rule:nonzero;stroke:none;stroke-width:40;stroke-linecap:butt;stroke-linejoin:miter;stroke-miterlimit:4;stroke-dasharray:none;stroke-dashoffset:0;stroke-opacity:1;color-rendering:auto;image-rendering:auto;shape-rendering:auto;text-rendering:auto;enable-background:accumulate"
     d="m 403.8379,217.9785 c -1.1303,0.6171 -2.2522,1.2422 -3.3554,1.8828 -26.5042,15.3895 -46.6719,39.3554 -46.6719,68.7618 0,28.6598 19.1607,52.1471 44.6699,67.5683 4.6573,-4.5922 9.3125,-9.1867 13.9805,-13.7676 5.2769,-5.1964 10.5505,-10.3962 15.8379,-15.582 -2.7214,-1.2897 -5.3062,-2.6411 -7.7305,-4.0488 -18.8637,-10.9531 -26.7578,-23.3788 -26.7578,-34.1699 0,-10.7912 7.8941,-23.2169 26.7578,-34.17 3.9989,-2.3219 8.4426,-4.4843 13.2266,-6.4687 -2.268,-2.2769 -4.5376,-4.5522 -6.8125,-6.8223 -4.9157,-4.9078 -9.8406,-9.8065 -14.7598,-14.7109 -2.8024,-2.8167 -5.5968,-5.6414 -8.3848,-8.4727 z"
     id="path5051"
     inkscape:connector-curvature="0" />
  <g
     inkscape:groupmode="layer"
     id="layer1"
     inkscape:label="svg"
     transform="translate(-1818.7148,-615.8828)">
    <path
       style="color:#000000;font-style:normal;font-variant:normal;font-weight:normal;font-stretch:normal;font-size:medium;line-height:normal;font-family:sans-serif;font-variant-ligatures:normal;font-variant-position:normal;font-variant-caps:normal;font-variant-numeric:normal;font-variant-alternates:normal;font-feature-settings:normal;text-indent:0;text-align:start;text-decoration:none;text-decoration-line:none;text-decoration-style:solid;text-decoration-color:#000000;letter-spacing:normal;word-spacing:normal;text-transform:none;writing-mode:lr-tb;direction:ltr;text-orientation:mixed;dominant-baseline:auto;baseline-shift:baseline;text-anchor:start;white-space:normal;shape-padding:0;clip-rule:nonzero;display:inline;overflow:visible;visibility:visible;opacity:1;isolation:auto;mix-blend-mode:normal;color-interpolation:sRGB;color-interpolation-filters:linearRGB;solid-color:#000000;solid-opacity:1;vector-effect:none;fill:#000000;fill-opacity:1;fill-rule:nonzero;stroke:none;stroke-width:8.18267727;stroke-linecap:butt;stroke-linejoin:miter;stroke-miterlimit:4;stroke-dasharray:none;stroke-dashoffset:0;stroke-opacity:1;color-rendering:auto;image-rendering:auto;shape-rendering:auto;text-rendering:auto;enable-background:accumulate"
       d="m 2361.0957,1266.1659 c -0.3224,4.6604 9.4435,14.4785 16.4824,19.8028 13.5231,10.4934 24.0863,12.2325 24.0863,12.2325 l 129.1224,-0.542 c 11.654,-0.049 13.7898,2.8921 13.8371,14.5462 l 2.1213,522.9289 c 0.047,11.6542 -3.5974,13.7722 -15.2513,13.8372 l -253.6361,1.4142 c -11.654,0.065 -15.8594,-2.1833 -15.9584,-13.8371 l -4.4853,-528.1287 c -0.038,-4.4848 1.38,-8.6084 3.7304,-11.9922 2.5624,-3.7076 4.7515,-9.5179 6.1559,-14.9101 -10.5895,4.3521 -26.1613,11.0095 -26.0703,23.1523 l 4,534 c 0.1202,16.0454 13.0459,29.0899 29.0918,29.0899 h 260 c 16.0458,0 29.0918,-13.044 29.0918,-29.0899 v -530 c 0,-16.0458 -13.046,-29.0917 -29.0918,-29.0918 H 2388.5 h -3.125 z"
       id="rect4636"
       inkscape:connector-curvature="0"
       sodipodi:nodetypes="cccsssssssccsssssscccc" />
    <rect
       style="fill:#ffffff;fill-opacity:1;stroke:#000000;stroke-width:8.18267727;stroke-miterlimit:4;stroke-dasharray:none;stroke-opacity:1"
       id="rect4638"
       width="80"
       height="15"
       x="2387.9651"
       y="1359.7346" />
    <rect
       y="1423.5042"
       x="2387.9651"
       height="15"
       width="80"
       id="rect4640"
       style="fill:#ffffff;fill-opacity:1;stroke:#000000;stroke-width:8.18267727;stroke-miterlimit:4;stroke-dasharray:none;stroke-opacity:1" />
    <rect
       style="fill:#ffffff;fill-opacity:1;stroke:#000000;stroke-width:8.18267727;stroke-miterlimit:4;stroke-dasharray:none;stroke-opacity:1"
       id="rect4642"
       width="160"
       height="15"
       x="2347.9651"
       y="1389.475" />
    <path
       style="color:#000000;font-style:normal;font-variant:normal;font-weight:normal;font-stretch:normal;font-size:medium;line-height:normal;font-family:sans-serif;font-variant-ligatures:normal;font-variant-position:normal;font-variant-caps:normal;font-variant-numeric:normal;font-variant-alternates:normal;font-feature-settings:normal;text-indent:0;text-align:start;text-decoration:none;text-decoration-line:none;text-decoration-style:solid;text-decoration-color:#000000;letter-spacing:normal;word-spacing:normal;text-transform:none;writing-mode:lr-tb;direction:ltr;text-orientation:mixed;dominant-baseline:auto;baseline-shift:baseline;text-anchor:start;white-space:normal;shape-padding:0;clip-rule:nonzero;display:inline;overflow:visible;visibility:visible;opacity:1;isolation:auto;mix-blend-mode:normal;color-interpolation:sRGB;color-interpolation-filters:linearRGB;solid-color:#000000;solid-opacity:1;vector-effect:none;fill:#000000;fill-opacity:1;fill-rule:nonzero;stroke:none;stroke-width:5;stroke-linecap:butt;stroke-linejoin:miter;stroke-miterlimit:4;stroke-dasharray:none;stroke-dashoffset:0;stroke-opacity:1;color-rendering:auto;image-rendering:auto;shape-rendering:auto;text-rendering:auto;enable-background:accumulate"
       d="m 2273.5195,1160.4258 c -1.4493,0.01 -2.8876,0.1936 -4.5156,0.7754 -2.1705,0.7757 -6.7603,2.794 -7.5267,4.9404 -0.7664,2.1464 -0.9955,4.3991 -1.1894,7.4336 l -6.3444,100.8935 c 0.019,-0.3061 -0.087,0.5267 -0.3488,2.6292 -0.4832,1.8815 -0.1915,1.0895 -0.8945,3.2957 -0.563,1.7668 -0.9009,2.3613 -2.5106,6.6298 -1.141,2.1565 -2.5524,4.2304 -3.8586,6.5479 -0.4531,0.5097 3.9465,-1.3953 4.0558,-1.4483 0.4483,-0.2187 0.8973,-0.4397 1.3457,-0.6582 2.4327,-1.1958 11.9758,-1.4295 13.6739,-3.7916 0.269,-1.0445 1.007,-2.2257 1.4277,-3.5267 0.5379,-1.6637 1.1289,-3.3885 1.6211,-4.9532 0.4922,-1.5647 0.9322,-2.7148 1.0449,-4.4785 l 5.012,-100.4043 c 0.1685,-2.6359 3.1159,-4.212 0.6699,-4.8515 2.4319,0.071 0.7013,0.207 6.5935,0.207 h 65.4277 c 6.0533,0 9.9071,-0.052 10.2852,0.096 0.024,0.01 0.023,0 0.033,-0.01 0.01,0.05 0.037,0.1354 0.098,0.2852 0.2486,0.6111 -2.758,2.2664 -2.6146,4.9394 l 6.091,91.1856 6.3518,9.5585 0.2734,0.3926 c 1.1761,1.6877 1.6412,3.2735 2.8183,4.5274 0.1374,0.031 1.056,-0.1249 1.1934,-0.094 3.7893,0.7767 7.5125,1.7471 11.0899,3.0742 0.096,-0.3104 35.6298,-3.3423 27.3446,-3.4484 -7.8481,0.8073 -6.2361,0.3368 -13.2602,-1.4601 -4.5647,-1.5028 -7.6482,-2.9059 -10.9614,-7.0042 -1.5586,-1.6257 -2.7893,-1.9387 -7.8355,-7.8519 l -2.8643,-8.4921 -6.0109,-80.8566 c -0.1667,-3.107 -0.4653,-5.5252 -1.3789,-7.7715 -0.9137,-2.2463 -5.0156,-4.2944 -7.1858,-5.1406 -4.3404,-1.6924 -7.9434,-0.6934 -13.4668,-0.6934 h -65.4277 c -2.717,0 -4.8243,-0.3155 -6.7949,-0.4355 -0.4927,-0.03 -0.9779,-0.047 -1.461,-0.045 z"
       id="path4887"
       inkscape:connector-curvature="0"
       sodipodi:nodetypes="ccscccsccccccscccsscccccccccccccccccsssccc" />
    <path
       style="fill:#ffffff;fill-opacity:1;stroke:#000000;stroke-width:15;stroke-miterlimit:4;stroke-dasharray:none;stroke-opacity:1"
       d="m 2309.4454,875.51478 h 10.391 c 23.0264,0 37.0006,13.73967 37.2751,30.35741 l 4.2888,259.64261 c -28.0986,0.4458 -18.0124,0.4315 -41.0387,0.4315 h -10.3911 c -23.0263,0 -23.4442,0.014 -42.089,-0.4315 l 4.733,-261.22027 c 0.301,-16.61727 13.8045,-28.77975 36.8309,-28.77975 z"
       id="rect4788"
       inkscape:connector-curvature="0"
       sodipodi:nodetypes="ssscsscss" />
    <path
       style="fill:#ffd42a;stroke:#ffd42a;stroke-width:4.64879608;stroke-linecap:butt;stroke-linejoin:miter;stroke-miterlimit:4;stroke-dasharray:none;stroke-opacity:1"
       d="m 2275.7782,1139 c 77.5846,0 77.5846,0 77.5846,0"
       id="path4943"
       inkscape:connector-curvature="0" />
  </g>
</svg>
