<?xml version="1.0" encoding="UTF-8" standalone="no"?>
<svg
   xmlns:dc="http://purl.org/dc/elements/1.1/"
   xmlns:cc="http://creativecommons.org/ns#"
   xmlns:rdf="http://www.w3.org/1999/02/22-rdf-syntax-ns#"
   xmlns:svg="http://www.w3.org/2000/svg"
   xmlns="http://www.w3.org/2000/svg"
   xmlns:sodipodi="http://sodipodi.sourceforge.net/DTD/sodipodi-0.dtd"
   xmlns:inkscape="http://www.inkscape.org/namespaces/inkscape"
   class="icon"
   height="446.56213"
   viewBox="0 0 454.32852 893.12427"
   version="1.1"
   id="svg4"
   sodipodi:docname="QRCode.svg"
   width="454.32852"
   inkscape:version="0.92.3 (2405546, 2018-03-11)">
  <metadata
     id="metadata10">
    <rdf:RDF>
      <cc:Work
         rdf:about="">
        <dc:format>image/svg+xml</dc:format>
        <dc:type
           rdf:resource="http://purl.org/dc/dcmitype/StillImage" />
      </cc:Work>
    </rdf:RDF>
  </metadata>
  <defs
     id="defs8" />
  <sodipodi:namedview
     pagecolor="#ffffff"
     bordercolor="#666666"
     borderopacity="1"
     objecttolerance="10"
     gridtolerance="10"
     guidetolerance="10"
     inkscape:pageopacity="0"
     inkscape:pageshadow="2"
     inkscape:window-width="1920"
     inkscape:window-height="1017"
     id="namedview6"
     showgrid="false"
     inkscape:zoom="1.1210937"
     inkscape:cx="230.95803"
     inkscape:cy="224.30327"
     inkscape:window-x="-8"
     inkscape:window-y="-8"
     inkscape:window-maximized="1"
     inkscape:current-layer="svg4" />
  <path
     d="M -99.590723,419.65983 H 200.71854 V 120.03156 H -99.590723 Z M -52.8325,166.68374 H 153.96033 V 373.00765 H -52.8325 Z m 49.550797,49.44447 H 104.4055 V 323.57123 H -3.281703 Z M 550.78852,120.03156 H 250.47926 V 419.65983 H 550.78852 Z M 504.0303,373.00765 H 297.23747 V 166.68374 H 504.0303 Z M 346.79432,216.12821 H 454.48153 V 323.57123 H 346.79432 Z M -99.590723,767.7518 H 200.71854 V 468.12353 H -99.590723 Z M -52.8325,514.77572 h 206.79283 v 206.32391 l -206.79283,-1e-5 z m 49.550797,49.44044 H 104.4055 V 671.65918 H -3.281703 Z M 368.83316,632.46047 V 580.3526 h 52.22629 v -53.44308 h -52.22629 v -52.10787 h -53.56455 v 52.10787 h -52.22629 v 53.44308 h 52.22629 v 52.10787 z m 164.71245,6.68013 h -52.22529 v -52.10686 h -53.56555 v 52.10686 h -52.22529 v 53.44409 h 52.22529 v 52.10686 h 53.56555 v -52.10686 h 52.22529 z m 13.39165,-39.46254 V 482.10207 h -4.0178 V 468.12152 H 425.07725 v 53.44309 h 68.29444 v 78.11345 z m -239.03411,34.11863 h -53.56454 v 117.57599 h 4.01679 49.54775 68.29545 V 697.9286 H 307.90315 Z M -202.42246,185.96592 c 9.68065,0 17.53458,-7.83612 17.53458,-17.49483 V 42.125538 h 116.895547 c 9.680653,0 17.534582,-7.836122 17.534582,-17.494827 0,-9.658705 -7.853929,-17.4948225 -17.534582,-17.4948225 H -202.42246 c -9.68066,0 -17.53459,7.8361175 -17.53459,17.4948225 V 168.47109 c 0,9.65871 7.85393,17.49483 17.53459,17.49483 z M 657.42209,7.1368962 H 522.99196 c -9.68066,0 -17.53459,7.8361178 -17.53459,17.4948228 0,9.658704 7.85393,17.494822 17.53459,17.494822 H 639.8875 V 168.4721 c 0,9.6587 7.85393,17.49483 17.53459,17.49483 9.68065,0 17.53458,-7.83613 17.53458,-17.49483 V 24.631719 C 674.95566,14.973014 667.10173,7.1368962 657.42209,7.1368962 Z M -69.247828,850.99872 H -186.14338 V 724.65316 c 0,-9.6587 -7.85392,-17.49483 -17.53459,-17.49483 -9.68064,0 -17.53458,7.83613 -17.53458,17.49483 v 143.84038 c 0,9.65871 7.85394,17.49483 17.53458,17.49483 h 134.430142 c 9.680654,0 17.534582,-7.83612 17.534582,-17.49483 0,-9.6587 -7.854934,-17.49482 -17.534582,-17.49482 z M 657.42209,707.15833 c -9.68066,0 -17.53459,7.83613 -17.53459,17.49483 V 850.99872 H 522.99196 c -9.68066,0 -17.53459,7.83612 -17.53459,17.49482 0,9.65871 7.85393,17.49482 17.53459,17.49482 h 134.43013 c 9.68065,0 17.53458,-7.83611 17.53458,-17.49482 V 724.65316 c -9.9e-4,-9.6587 -7.85494,-17.49483 -17.53458,-17.49483 z"
     id="path2"
     style="fill:#00c3e8;fill-opacity:1;stroke-width:0.98513794"
     inkscape:connector-curvature="0" />
</svg>
