<svg id="svg" version="1.1" xmlns="http://www.w3.org/2000/svg" xmlns:xlink="http://www.w3.org/1999/xlink" width="400" height="278.4140969162995" viewBox="0, 0, 400,278.4140969162995"><g id="svgg"><path id="path0" d="M0.000 139.167 L 0.000 278.333 200.000 278.333 L 400.000 278.333 400.000 139.167 L 400.000 0.000 200.000 0.000 L 0.000 0.000 0.000 139.167 M202.333 14.504 C 205.900 14.750,209.130 15.132,211.667 15.606 C 212.904 15.838,214.296 16.095,214.760 16.178 C 215.223 16.260,216.348 16.523,217.260 16.761 C 218.171 16.999,219.446 17.332,220.093 17.500 C 237.719 22.093,255.308 34.726,266.269 50.667 C 267.492 52.445,267.905 53.078,269.066 54.957 L 269.503 55.664 270.376 55.318 C 277.278 52.582,285.263 50.600,293.638 49.545 C 296.556 49.178,309.209 49.122,312.000 49.465 C 327.904 51.416,340.389 55.897,352.500 64.000 C 355.686 66.131,357.455 67.459,360.824 70.246 C 367.219 75.537,374.406 83.971,379.291 91.917 C 381.035 94.754,384.085 100.680,385.013 103.032 C 385.199 103.504,385.495 104.207,385.671 104.594 C 386.344 106.070,388.094 111.181,388.750 113.583 C 388.900 114.133,389.169 115.108,389.347 115.750 C 391.578 123.766,392.790 138.091,391.872 145.583 C 391.760 146.500,391.550 148.300,391.405 149.583 C 390.251 159.835,385.700 173.450,380.549 182.066 C 378.776 185.031,376.761 188.159,375.654 189.667 C 373.851 192.120,373.125 193.067,371.964 194.474 C 358.326 211.023,340.015 221.732,318.667 225.644 C 316.901 225.968,315.682 226.128,310.833 226.672 C 301.266 227.747,287.443 226.271,276.833 223.042 C 268.491 220.504,263.801 211.747,266.489 203.727 C 270.152 192.799,277.895 188.445,288.667 191.256 C 324.294 200.556,358.261 174.559,358.248 138.000 C 358.242 119.475,349.330 102.740,333.917 92.313 C 331.103 90.409,327.289 88.345,324.398 87.162 C 323.491 86.791,322.600 86.419,322.417 86.335 C 321.606 85.966,318.381 84.989,316.142 84.433 C 298.106 79.960,278.584 85.217,265.102 98.177 C 262.853 100.340,262.993 100.310,262.231 98.792 C 251.288 76.987,232.202 58.384,209.312 47.210 C 206.288 45.734,203.104 44.305,202.333 44.079 C 202.104 44.012,201.617 43.820,201.250 43.653 C 200.296 43.219,196.438 41.825,194.000 41.033 C 178.380 35.958,160.977 34.172,145.167 36.021 C 143.563 36.208,141.884 36.403,141.437 36.454 C 140.749 36.532,140.647 36.509,140.770 36.299 C 141.176 35.614,146.231 31.491,149.109 29.498 C 150.089 28.820,151.857 27.646,152.750 27.081 C 156.920 24.442,161.839 21.967,166.583 20.120 C 167.408 19.799,168.584 19.341,169.195 19.102 C 169.807 18.862,170.369 18.667,170.445 18.668 C 170.521 18.668,171.408 18.409,172.417 18.092 C 181.750 15.157,192.729 13.840,202.333 14.504 M104.175 49.336 C 111.441 49.887,121.441 52.026,127.040 54.227 C 134.471 57.149,138.696 65.699,136.565 73.500 C 133.791 83.653,124.157 88.793,114.083 85.495 C 89.852 77.562,61.789 88.289,49.525 110.174 C 46.636 115.329,41.652 138.570,42.272 144.000 C 46.111 177.661,77.975 199.773,110.833 191.578 C 120.646 189.130,131.057 183.000,137.404 175.933 C 138.646 174.550,138.462 174.467,139.684 176.958 C 149.336 196.631,165.695 214.357,184.167 225.157 C 184.854 225.559,185.754 226.092,186.167 226.342 C 191.303 229.455,200.132 233.384,207.500 235.837 C 223.211 241.067,242.142 242.928,258.250 240.824 C 262.443 240.277,262.550 240.268,262.481 240.460 C 262.169 241.326,253.794 247.918,250.029 250.261 C 249.450 250.622,248.700 251.097,248.363 251.316 C 246.601 252.466,241.930 254.905,238.667 256.378 C 222.739 263.571,202.498 265.322,185.000 261.022 C 163.171 255.657,144.271 241.603,132.749 222.167 C 132.124 221.112,131.588 220.220,131.558 220.182 C 131.528 220.145,131.184 220.243,130.793 220.400 C 117.761 225.631,101.715 227.945,89.083 226.416 C 87.983 226.283,87.018 226.172,86.939 226.170 C 86.859 226.168,86.830 225.979,86.874 225.750 C 86.940 225.407,86.888 225.333,86.586 225.333 C 86.136 225.333,85.500 224.810,85.500 224.439 C 85.500 224.269,85.359 224.165,85.125 224.161 C 84.753 224.156,84.753 224.154,85.083 223.889 C 85.354 223.672,85.362 223.641,85.125 223.722 C 84.735 223.857,84.333 223.688,84.333 223.389 C 84.333 223.256,84.258 223.193,84.167 223.250 C 84.075 223.307,84.000 223.274,84.000 223.177 C 84.000 222.942,84.384 222.951,84.624 223.191 C 84.767 223.334,84.794 223.301,84.730 223.059 C 84.664 222.806,84.530 222.750,84.115 222.798 C 83.548 222.864,82.916 221.966,83.393 221.771 C 83.497 221.728,83.426 221.687,83.234 221.680 C 82.803 221.664,82.258 221.091,82.421 220.826 C 82.510 220.682,82.582 220.690,82.696 220.857 C 82.812 221.026,82.837 220.999,82.797 220.750 C 82.757 220.507,82.636 220.432,82.353 220.472 C 82.065 220.513,81.998 220.469,82.097 220.305 C 82.201 220.133,82.167 220.135,81.945 220.315 C 81.585 220.607,81.379 220.430,81.669 220.080 C 81.891 219.813,81.301 219.182,80.940 219.299 C 80.786 219.349,80.347 218.844,80.339 218.607 C 80.336 218.529,80.446 218.508,80.583 218.560 C 81.440 218.889,80.668 218.280,79.622 217.802 C 79.352 217.679,79.195 217.499,79.245 217.370 C 79.293 217.244,79.254 217.196,79.154 217.258 C 79.049 217.323,78.999 217.242,79.031 217.058 C 79.067 216.843,78.996 216.765,78.792 216.799 C 78.575 216.835,78.500 216.735,78.500 216.408 C 78.500 216.109,78.394 215.941,78.167 215.882 C 77.982 215.833,77.833 215.654,77.833 215.481 C 77.833 215.308,77.727 215.167,77.597 215.167 C 77.467 215.167,77.286 214.960,77.194 214.708 C 77.102 214.456,77.020 214.344,77.013 214.458 C 76.991 214.807,76.667 214.690,76.667 214.333 C 76.667 214.148,76.556 214.000,76.417 214.000 C 76.279 214.000,76.167 213.925,76.167 213.833 C 76.167 213.742,76.251 213.667,76.354 213.667 C 76.483 213.667,76.477 213.589,76.333 213.417 C 76.219 213.279,75.981 213.167,75.803 213.167 C 75.626 213.167,75.527 213.091,75.584 212.999 C 75.717 212.784,75.272 212.333,74.929 212.333 C 74.617 212.333,74.578 212.060,74.875 211.951 C 74.990 211.909,74.877 211.820,74.625 211.752 C 74.373 211.685,74.167 211.526,74.167 211.399 C 74.167 211.271,74.088 211.167,73.993 211.167 C 73.897 211.167,73.830 211.073,73.844 210.958 C 73.898 210.518,73.628 209.961,73.474 210.194 C 73.356 210.372,73.293 210.359,73.155 210.125 C 73.061 209.965,72.870 209.833,72.730 209.833 C 72.555 209.833,72.509 209.733,72.582 209.506 C 72.663 209.250,72.589 209.154,72.250 209.068 C 71.968 208.998,71.845 208.876,71.903 208.726 C 71.993 208.492,71.463 207.833,71.186 207.833 C 70.963 207.833,70.855 207.023,71.066 206.936 C 71.167 206.894,71.081 206.854,70.875 206.846 C 70.635 206.838,70.499 206.728,70.497 206.542 C 70.496 206.381,70.416 206.137,70.320 206.000 C 70.184 205.806,70.170 205.838,70.255 206.139 C 70.356 206.497,70.335 206.513,70.003 206.335 C 69.783 206.217,69.678 206.043,69.736 205.893 C 69.809 205.703,69.748 205.671,69.475 205.758 C 69.172 205.854,69.132 205.818,69.210 205.519 C 69.261 205.325,69.229 205.167,69.140 205.167 C 69.051 205.167,69.022 205.027,69.076 204.856 C 69.159 204.596,69.105 204.558,68.754 204.625 C 68.427 204.688,68.332 204.636,68.328 204.394 C 68.322 204.022,67.998 203.590,67.708 203.567 C 67.150 203.522,67.136 203.445,67.667 203.333 L 68.250 203.211 67.667 203.183 C 67.116 203.158,66.167 202.089,66.167 201.495 C 66.167 201.412,66.055 201.387,65.918 201.439 C 65.585 201.567,65.379 201.015,65.684 200.811 C 65.843 200.706,65.779 200.689,65.480 200.758 C 65.104 200.845,65.025 200.793,64.917 200.388 C 64.849 200.129,64.758 200.010,64.716 200.125 C 64.564 200.537,64.335 200.321,64.231 199.667 C 64.172 199.300,64.059 199.000,63.979 199.000 C 63.899 199.000,63.833 198.883,63.833 198.740 C 63.833 198.597,63.762 198.525,63.674 198.579 C 63.485 198.695,62.833 198.173,62.833 197.905 C 62.833 197.519,61.827 196.333,61.499 196.333 C 61.119 196.333,61.074 196.160,61.375 195.857 C 61.542 195.689,61.528 195.668,61.305 195.753 C 60.990 195.873,60.333 195.578,60.333 195.318 C 60.333 195.224,60.408 195.193,60.500 195.250 C 60.692 195.369,60.707 195.299,60.566 194.930 C 60.509 194.783,60.270 194.666,60.024 194.664 C 59.749 194.663,59.660 194.613,59.788 194.532 C 59.938 194.436,59.905 194.339,59.663 194.164 C 59.482 194.033,59.333 193.830,59.333 193.713 C 59.333 193.596,59.261 193.500,59.172 193.500 C 59.083 193.500,59.053 193.369,59.104 193.208 C 59.177 192.983,59.161 192.969,59.034 193.146 C 58.809 193.463,58.547 193.259,58.416 192.665 C 58.341 192.323,58.207 192.167,57.987 192.167 C 57.810 192.167,57.667 192.052,57.667 191.911 C 57.667 191.573,57.165 190.815,57.006 190.913 C 56.937 190.955,56.914 190.786,56.954 190.537 C 56.994 190.283,56.965 190.157,56.888 190.250 C 56.643 190.546,56.109 190.557,56.222 190.264 C 56.290 190.086,56.162 189.920,55.819 189.743 C 55.439 189.546,55.341 189.404,55.419 189.159 C 55.497 188.913,55.460 188.859,55.261 188.936 C 55.117 188.991,55.000 188.959,55.000 188.865 C 55.000 188.771,55.094 188.657,55.208 188.610 C 55.323 188.564,55.173 188.520,54.875 188.513 C 54.525 188.505,54.333 188.416,54.333 188.264 C 54.333 188.134,54.240 187.984,54.125 187.931 C 53.958 187.853,53.958 187.814,54.125 187.736 C 54.452 187.583,54.369 187.333,53.990 187.333 C 53.801 187.333,53.689 187.265,53.740 187.182 C 53.792 187.099,53.673 187.073,53.476 187.125 C 53.164 187.206,53.129 187.162,53.202 186.781 C 53.248 186.540,53.221 186.383,53.143 186.431 C 52.947 186.552,52.180 185.695,52.062 185.222 C 52.005 184.997,51.885 184.880,51.774 184.942 C 51.639 185.018,51.640 184.987,51.779 184.837 C 52.061 184.531,51.859 184.136,51.480 184.256 C 51.138 184.365,51.036 184.074,51.375 183.953 C 51.496 183.910,51.521 183.817,51.436 183.731 C 51.350 183.645,51.257 183.670,51.213 183.792 C 51.107 184.089,50.667 184.050,50.667 183.743 C 50.667 183.502,50.560 183.334,50.042 182.756 C 49.927 182.628,49.833 182.443,49.833 182.345 C 49.833 182.247,49.777 182.166,49.708 182.166 C 49.258 182.165,48.461 181.194,48.850 181.121 L 49.250 181.045 48.833 181.017 C 48.240 180.978,47.714 180.553,47.957 180.310 C 48.207 180.060,47.794 179.628,47.436 179.766 C 47.259 179.833,47.147 179.731,47.073 179.433 C 47.013 179.196,46.895 179.045,46.810 179.098 C 46.725 179.150,46.687 179.016,46.727 178.800 C 46.787 178.468,46.730 178.407,46.367 178.411 C 46.043 178.415,45.911 178.313,45.836 178.000 C 45.781 177.771,45.533 177.485,45.285 177.366 C 44.814 177.139,44.629 176.553,45.083 176.727 C 45.221 176.780,45.333 176.758,45.333 176.679 C 45.333 176.506,44.919 176.333,44.502 176.333 C 44.273 176.333,44.218 176.240,44.280 175.958 C 44.341 175.682,44.320 175.644,44.200 175.813 C 44.005 176.088,43.608 175.893,43.728 175.580 C 43.774 175.460,43.686 175.309,43.531 175.246 C 43.280 175.143,43.285 175.116,43.583 174.994 C 43.872 174.875,43.852 174.855,43.441 174.845 C 43.085 174.836,42.989 174.769,43.062 174.580 C 43.199 174.222,42.512 173.545,42.323 173.851 C 42.141 174.145,41.972 173.958,41.941 173.428 C 41.927 173.171,41.817 172.999,41.667 172.997 C 41.226 172.992,40.647 172.227,40.700 171.722 C 40.734 171.405,40.671 171.251,40.500 171.238 C 40.362 171.226,40.119 171.206,39.958 171.192 C 39.603 171.161,39.565 170.833,39.917 170.833 C 40.124 170.833,40.117 170.781,39.875 170.526 C 39.715 170.358,39.538 170.243,39.482 170.272 C 39.294 170.368,38.500 169.340,38.500 169.001 C 38.500 168.817,38.399 168.667,38.276 168.667 C 37.945 168.667,37.333 168.086,37.333 167.772 C 37.333 167.622,37.200 167.500,37.037 167.500 C 36.723 167.500,36.324 167.114,36.082 166.576 C 35.921 166.218,35.888 166.080,35.839 165.583 C 35.821 165.396,35.770 165.341,35.723 165.458 C 35.549 165.889,34.985 165.701,35.098 165.250 C 35.177 164.935,35.137 164.833,34.935 164.833 C 34.747 164.833,34.667 164.681,34.667 164.323 C 34.667 164.025,34.597 163.856,34.499 163.917 C 34.407 163.974,34.359 164.185,34.392 164.385 C 34.425 164.586,34.419 164.656,34.380 164.542 C 34.341 164.427,34.231 164.333,34.137 164.333 C 34.042 164.333,34.008 164.221,34.060 164.083 C 34.113 163.946,34.071 163.833,33.966 163.833 C 33.732 163.833,33.167 163.337,33.167 163.131 C 33.167 163.048,33.242 163.027,33.333 163.083 C 33.425 163.140,33.500 163.075,33.500 162.940 C 33.500 162.804,33.286 162.646,33.024 162.589 C 32.521 162.478,32.048 161.827,32.243 161.512 C 32.306 161.409,32.296 161.336,32.221 161.349 C 31.711 161.437,31.499 161.300,31.487 160.875 C 31.480 160.623,31.436 160.510,31.390 160.625 C 31.250 160.972,30.970 160.858,31.083 160.500 C 31.161 160.256,31.113 160.167,30.905 160.167 C 30.580 160.167,30.031 159.615,29.667 158.923 C 29.529 158.662,29.281 158.412,29.116 158.369 C 28.946 158.324,28.852 158.191,28.901 158.064 C 28.949 157.940,28.840 157.760,28.660 157.663 C 28.481 157.567,28.333 157.350,28.333 157.180 C 28.333 157.011,28.188 156.834,28.011 156.788 C 27.785 156.729,27.714 156.604,27.775 156.371 C 27.823 156.187,27.781 155.987,27.681 155.926 C 27.580 155.863,27.500 155.929,27.500 156.073 C 27.500 156.434,27.168 156.402,27.161 156.042 C 27.154 155.638,26.768 155.167,26.445 155.167 C 26.261 155.167,26.210 155.075,26.282 154.875 C 26.339 154.715,26.328 154.636,26.257 154.700 C 26.080 154.860,25.620 154.378,25.749 154.168 C 25.809 154.072,25.671 154.000,25.427 154.000 C 24.946 154.000,24.883 153.808,25.244 153.446 C 25.494 153.197,25.389 153.119,24.526 152.912 C 24.403 152.883,24.253 152.803,24.193 152.736 C 24.133 152.669,24.215 152.661,24.375 152.718 C 24.535 152.776,24.667 152.750,24.667 152.661 C 24.667 152.573,24.481 152.500,24.253 152.500 C 23.895 152.500,23.847 152.435,23.896 152.014 C 23.935 151.682,23.888 151.553,23.748 151.607 C 23.636 151.650,23.503 151.531,23.454 151.343 C 23.393 151.108,23.228 151.000,22.932 151.000 C 22.450 151.000,22.339 150.722,22.786 150.636 C 23.036 150.588,23.023 150.535,22.685 150.219 C 22.471 150.020,22.192 149.898,22.065 149.947 C 21.926 150.000,21.833 149.928,21.833 149.768 C 21.833 149.621,21.758 149.500,21.667 149.500 C 21.575 149.500,21.500 149.417,21.500 149.316 C 21.500 149.214,21.616 149.176,21.759 149.230 C 21.913 149.289,21.974 149.260,21.911 149.158 C 21.853 149.064,21.652 149.035,21.465 149.094 C 21.238 149.166,21.163 149.141,21.239 149.018 C 21.305 148.911,21.236 148.833,21.075 148.833 C 20.897 148.833,20.832 148.744,20.894 148.583 C 20.946 148.446,20.926 148.333,20.848 148.333 C 20.769 148.333,20.668 148.188,20.621 148.011 C 20.558 147.770,20.442 147.713,20.159 147.787 C 19.948 147.842,19.823 147.818,19.876 147.733 C 20.012 147.513,19.536 146.458,19.351 146.572 C 19.095 146.731,18.675 146.487,18.698 146.192 C 18.710 146.041,18.702 145.767,18.681 145.583 L 18.643 145.250 18.500 145.583 C 18.373 145.879,18.355 145.864,18.345 145.458 C 18.338 145.167,18.242 145.000,18.083 145.000 C 17.946 145.000,17.833 144.927,17.833 144.839 C 17.833 144.750,17.721 144.720,17.583 144.773 C 17.446 144.826,17.333 144.786,17.333 144.684 C 17.333 144.583,17.408 144.500,17.500 144.500 C 17.592 144.500,17.517 144.350,17.333 144.167 C 17.150 143.983,16.917 143.833,16.816 143.833 C 16.714 143.833,16.674 143.721,16.727 143.583 C 16.815 143.354,16.640 143.253,16.271 143.320 C 16.191 143.335,16.166 143.243,16.214 143.117 C 16.263 142.990,16.236 142.781,16.154 142.652 C 16.049 142.485,16.004 142.478,16.003 142.625 C 16.001 142.740,15.887 142.833,15.750 142.833 C 15.611 142.833,15.500 142.685,15.500 142.500 C 15.500 142.317,15.425 142.167,15.333 142.167 C 15.094 142.167,15.127 141.711,15.375 141.604 C 15.490 141.554,15.369 141.558,15.107 141.613 C 14.645 141.709,14.634 141.695,14.747 141.182 C 14.858 140.677,14.843 140.658,14.431 140.761 C 14.162 140.829,14.000 140.800,14.000 140.685 C 14.000 140.583,14.154 140.500,14.343 140.500 C 14.532 140.500,14.646 140.435,14.597 140.356 C 14.548 140.276,14.326 140.246,14.104 140.289 C 13.763 140.354,13.666 140.272,13.483 139.766 C 13.324 139.327,13.191 139.189,12.989 139.254 C 12.768 139.324,12.728 139.256,12.792 138.921 C 12.840 138.670,12.795 138.500,12.683 138.500 C 12.578 138.500,12.406 138.310,12.301 138.079 C 12.176 137.804,12.067 137.725,11.989 137.852 C 11.809 138.143,11.250 137.539,11.009 136.792 C 10.898 136.448,10.730 136.167,10.636 136.167 C 10.542 136.167,10.508 136.054,10.560 135.917 C 10.613 135.779,10.584 135.667,10.495 135.667 C 10.406 135.667,10.333 135.779,10.333 135.917 C 10.333 136.054,10.258 136.167,10.167 136.167 C 10.075 136.167,9.999 135.960,9.997 135.708 C 9.994 135.104,9.837 134.917,9.333 134.917 C 9.022 134.917,8.917 134.829,8.917 134.569 C 8.917 134.377,8.834 134.115,8.733 133.985 C 8.238 133.351,9.351 124.089,10.602 118.429 C 17.815 85.796,43.412 59.644,75.929 51.688 C 80.087 50.671,85.111 49.811,88.667 49.507 C 89.813 49.410,91.013 49.305,91.333 49.275 C 92.780 49.139,102.157 49.184,104.175 49.336 M8.622 136.037 C 8.587 136.429,8.558 136.150,8.557 135.417 C 8.557 134.683,8.585 134.363,8.621 134.704 C 8.657 135.045,8.657 135.645,8.622 136.037 M9.833 135.411 C 9.833 135.561,9.736 135.619,9.583 135.560 C 9.446 135.508,9.333 135.397,9.333 135.316 C 9.333 135.234,9.446 135.167,9.583 135.167 C 9.721 135.167,9.833 135.277,9.833 135.411 " stroke="none" fill="#fbfcfc" fill-rule="evenodd"></path><path id="path1" d="M191.750 14.669 C 179.233 15.572,167.784 18.907,157.043 24.780 C 154.412 26.219,153.725 26.634,150.917 28.480 C 147.853 30.493,140.812 36.034,141.034 36.256 C 141.062 36.284,142.285 36.164,143.751 35.989 C 150.682 35.160,159.692 34.867,164.750 35.306 C 166.033 35.417,167.571 35.549,168.167 35.600 C 173.465 36.046,179.368 37.016,185.710 38.482 C 190.854 39.671,198.968 42.391,204.167 44.670 C 205.037 45.051,206.237 45.578,206.833 45.840 C 214.188 49.076,224.295 55.260,230.924 60.580 C 242.480 69.855,251.405 79.916,258.499 91.667 C 259.749 93.736,262.570 98.922,262.738 99.458 C 262.911 100.010,263.048 99.944,264.292 98.708 C 282.747 80.375,311.630 77.461,333.333 91.742 C 358.686 108.425,366.074 141.812,350.081 167.424 C 348.618 169.766,345.586 173.815,344.593 174.750 C 344.496 174.842,344.012 175.367,343.517 175.917 C 330.283 190.636,306.888 197.088,287.964 191.240 C 278.158 188.209,268.298 194.678,266.263 205.477 C 264.944 212.475,268.704 219.545,275.167 222.220 C 277.501 223.186,285.231 225.127,288.833 225.651 C 343.216 233.570,390.320 194.518,391.943 140.167 C 393.016 104.226,370.777 69.737,337.833 56.254 C 331.304 53.582,325.553 51.879,318.667 50.578 C 304.161 47.837,286.489 49.466,272.106 54.869 C 270.652 55.415,269.409 55.799,269.344 55.723 C 269.279 55.646,268.710 54.758,268.080 53.750 C 266.911 51.878,264.633 48.550,263.804 47.500 C 245.847 24.759,219.335 12.679,191.750 14.669 M106.500 49.917 C 106.500 50.169,107.314 50.811,107.391 50.620 C 107.437 50.508,107.480 50.613,107.487 50.854 C 107.495 51.137,107.705 51.466,108.083 51.789 C 108.404 52.063,108.667 52.414,108.667 52.568 C 108.667 52.742,108.777 52.829,108.958 52.799 C 109.147 52.767,109.235 52.844,109.207 53.014 C 109.183 53.162,109.351 53.364,109.585 53.470 C 109.816 53.576,110.091 53.850,110.196 54.081 C 110.301 54.311,110.485 54.500,110.605 54.500 C 110.730 54.500,110.782 54.606,110.727 54.750 C 110.666 54.908,110.729 55.000,110.899 55.000 C 111.046 55.000,111.167 55.112,111.167 55.250 C 111.167 55.387,111.242 55.500,111.333 55.500 C 111.425 55.500,111.501 55.594,111.503 55.708 C 111.506 55.965,112.227 56.667,112.486 56.667 C 112.590 56.667,112.719 56.887,112.773 57.157 C 112.842 57.504,113.012 57.696,113.352 57.815 C 113.617 57.907,113.833 58.099,113.833 58.241 C 113.833 58.384,113.916 58.500,114.018 58.500 C 114.119 58.500,114.159 58.612,114.106 58.750 C 114.047 58.905,114.107 59.000,114.265 59.000 C 114.417 59.000,114.471 59.079,114.399 59.195 C 114.318 59.326,114.370 59.355,114.556 59.284 C 114.737 59.214,114.833 59.262,114.833 59.421 C 114.833 59.779,115.534 60.523,115.782 60.427 C 115.900 60.382,115.985 60.399,115.972 60.464 C 115.927 60.679,116.224 61.246,116.490 61.453 C 116.633 61.565,116.690 61.658,116.617 61.661 C 116.545 61.664,116.678 61.873,116.914 62.125 C 117.150 62.377,117.518 62.771,117.732 63.000 C 117.946 63.229,118.167 63.549,118.223 63.710 C 118.278 63.871,118.382 63.990,118.454 63.975 C 118.784 63.904,119.167 64.240,119.167 64.601 C 119.167 64.851,119.264 65.000,119.427 65.000 C 119.569 65.000,119.640 65.076,119.582 65.168 C 119.525 65.261,119.708 65.467,119.988 65.627 C 120.269 65.786,120.498 66.048,120.499 66.208 C 120.500 66.369,120.614 66.500,120.754 66.500 C 120.903 66.500,121.050 66.707,121.108 67.000 C 121.216 67.539,121.327 67.606,121.622 67.312 C 121.762 67.172,121.839 67.275,121.921 67.717 C 121.999 68.132,122.103 68.283,122.266 68.221 C 122.481 68.138,122.568 68.320,122.522 68.752 C 122.512 68.844,122.728 69.019,123.002 69.141 C 123.357 69.298,123.500 69.477,123.500 69.764 C 123.500 70.056,123.592 70.167,123.833 70.167 C 124.017 70.167,124.155 70.223,124.140 70.292 C 124.085 70.551,124.378 71.000,124.601 71.000 C 124.737 71.000,124.833 71.171,124.833 71.413 C 124.833 71.705,124.946 71.855,125.215 71.923 C 125.430 71.977,125.793 72.343,126.044 72.759 C 126.290 73.167,126.598 73.500,126.728 73.500 C 126.957 73.500,127.249 73.949,127.191 74.214 C 127.161 74.351,127.919 75.167,128.076 75.167 C 128.271 75.167,128.833 75.847,128.833 76.083 C 128.833 76.222,128.981 76.333,129.167 76.333 C 129.350 76.333,129.485 76.390,129.467 76.458 C 129.398 76.721,129.699 77.333,129.897 77.333 C 130.011 77.333,130.237 77.610,130.398 77.948 C 130.608 78.388,130.730 78.500,130.827 78.343 C 130.930 78.176,130.990 78.205,131.071 78.463 C 131.131 78.650,131.289 78.845,131.423 78.896 C 131.557 78.947,131.667 79.104,131.667 79.245 C 131.667 79.385,131.742 79.500,131.833 79.500 C 131.925 79.500,132.000 79.604,132.000 79.732 C 132.000 79.860,132.111 80.007,132.247 80.059 C 132.402 80.119,132.454 80.265,132.387 80.452 C 132.186 81.011,133.113 80.015,133.876 78.853 C 139.453 70.352,137.048 59.796,128.470 55.125 C 126.642 54.130,119.853 52.060,116.000 51.323 C 115.037 51.139,113.987 50.919,113.667 50.835 C 113.115 50.690,112.155 50.554,108.958 50.167 C 108.202 50.075,107.340 49.959,107.042 49.909 C 106.744 49.859,106.500 49.863,106.500 49.917 " stroke="none" fill="#07ecfb" fill-rule="evenodd"></path><path id="path2" d="M195.958 14.457 C 196.623 14.489,197.710 14.489,198.375 14.457 C 199.040 14.425,198.496 14.400,197.167 14.400 C 195.838 14.400,195.294 14.425,195.958 14.457 M154.047 35.289 C 154.485 35.324,155.160 35.323,155.547 35.288 C 155.934 35.254,155.575 35.225,154.750 35.226 C 153.925 35.226,153.609 35.255,154.047 35.289 M161.292 35.289 C 161.681 35.324,162.319 35.324,162.708 35.289 C 163.098 35.254,162.779 35.225,162.000 35.225 C 161.221 35.225,160.902 35.254,161.292 35.289 M150.294 35.451 C 150.501 35.491,150.801 35.490,150.960 35.448 C 151.120 35.406,150.950 35.374,150.583 35.375 C 150.217 35.377,150.086 35.411,150.294 35.451 M164.627 35.451 C 164.834 35.491,165.134 35.490,165.294 35.448 C 165.453 35.406,165.283 35.374,164.917 35.375 C 164.550 35.377,164.420 35.411,164.627 35.451 M256.333 38.917 C 256.924 39.512,257.445 40.000,257.490 40.000 C 257.536 40.000,257.091 39.512,256.500 38.917 C 255.909 38.321,255.389 37.833,255.343 37.833 C 255.297 37.833,255.743 38.321,256.333 38.917 M93.875 49.286 C 94.127 49.324,94.540 49.324,94.792 49.286 C 95.044 49.248,94.837 49.217,94.333 49.217 C 93.829 49.217,93.623 49.248,93.875 49.286 M99.628 49.287 C 99.928 49.325,100.378 49.324,100.628 49.286 C 100.878 49.248,100.633 49.217,100.083 49.218 C 99.533 49.219,99.328 49.250,99.628 49.287 M60.000 57.333 C 59.679 57.509,59.492 57.653,59.583 57.653 C 59.675 57.653,60.012 57.509,60.333 57.333 C 60.654 57.158,60.842 57.014,60.750 57.014 C 60.658 57.014,60.321 57.158,60.000 57.333 M57.074 58.745 C 56.896 58.879,56.825 58.989,56.917 58.989 C 57.008 58.989,57.229 58.879,57.407 58.745 C 57.585 58.610,57.655 58.500,57.564 58.500 C 57.472 58.500,57.251 58.610,57.074 58.745 M54.917 59.890 C 44.265 65.620,33.846 74.603,26.682 84.234 C 25.909 85.274,25.638 86.167,26.096 86.167 C 26.250 86.167,26.305 86.245,26.232 86.362 C 26.152 86.492,26.202 86.522,26.381 86.453 C 26.562 86.384,26.622 86.423,26.564 86.573 C 26.517 86.696,26.652 86.986,26.864 87.218 C 27.076 87.450,27.512 87.935,27.833 88.297 C 28.176 88.684,28.514 88.919,28.652 88.866 C 28.824 88.801,28.862 88.873,28.794 89.132 C 28.686 89.544,29.049 89.924,29.368 89.732 C 29.528 89.636,29.525 89.675,29.355 89.885 C 29.157 90.128,29.164 90.167,29.405 90.167 C 29.566 90.167,29.759 90.382,29.862 90.677 C 29.980 91.014,30.121 91.156,30.279 91.095 C 30.412 91.044,30.472 91.077,30.415 91.170 C 30.301 91.354,30.658 91.765,31.317 92.207 C 31.666 92.441,31.691 92.498,31.446 92.499 C 31.087 92.500,31.333 92.810,31.962 93.146 C 32.166 93.256,32.333 93.455,32.333 93.589 C 32.333 93.723,32.418 93.833,32.523 93.833 C 32.811 93.833,33.444 94.584,33.362 94.830 C 33.323 94.949,33.356 95.006,33.437 94.957 C 33.517 94.908,33.680 94.973,33.798 95.101 C 33.936 95.250,33.948 95.333,33.830 95.333 C 33.729 95.333,33.693 95.408,33.750 95.500 C 33.807 95.592,34.055 95.668,34.302 95.669 C 34.581 95.671,34.673 95.721,34.545 95.802 C 34.393 95.898,34.425 96.004,34.667 96.211 C 34.851 96.369,34.951 96.601,34.895 96.745 C 34.832 96.911,34.895 97.000,35.077 97.000 C 35.430 97.000,35.833 97.394,35.833 97.738 C 35.833 97.882,35.946 98.000,36.083 98.000 C 36.221 98.000,36.333 98.120,36.333 98.266 C 36.333 98.412,36.487 98.571,36.675 98.621 C 36.882 98.675,37.054 98.894,37.110 99.176 C 37.171 99.480,37.365 99.708,37.671 99.835 C 37.928 99.941,38.229 100.247,38.339 100.514 C 38.450 100.781,38.627 101.000,38.733 101.000 C 38.839 101.000,39.054 101.150,39.211 101.333 C 39.368 101.517,39.422 101.667,39.332 101.667 C 39.241 101.667,39.167 101.750,39.167 101.851 C 39.167 101.953,39.283 101.991,39.425 101.936 C 39.574 101.879,39.641 101.907,39.582 102.002 C 39.526 102.093,39.602 102.167,39.751 102.167 C 39.952 102.167,39.993 102.259,39.909 102.523 C 39.810 102.835,39.849 102.869,40.226 102.797 C 40.475 102.749,40.615 102.782,40.559 102.873 C 40.428 103.085,40.838 103.833,41.085 103.833 C 41.192 103.833,41.366 104.002,41.472 104.208 C 41.819 104.885,42.075 105.228,42.686 105.834 C 43.018 106.162,43.343 106.602,43.410 106.811 C 43.486 107.053,43.619 107.157,43.774 107.097 C 43.908 107.046,43.975 107.072,43.924 107.155 C 43.801 107.353,44.315 107.864,44.513 107.742 C 44.598 107.690,44.667 107.801,44.667 107.990 C 44.667 108.234,44.775 108.334,45.042 108.336 C 45.278 108.337,45.343 108.385,45.217 108.465 C 45.077 108.555,45.180 108.766,45.565 109.173 C 45.866 109.492,46.205 109.927,46.319 110.140 C 46.441 110.367,46.623 110.489,46.763 110.435 C 46.928 110.371,47.000 110.468,47.000 110.755 C 47.000 111.010,47.095 111.167,47.250 111.167 C 47.387 111.167,47.500 111.282,47.500 111.424 C 47.500 111.573,47.618 111.661,47.781 111.632 C 47.962 111.601,48.100 111.731,48.170 112.000 C 48.275 112.400,48.290 112.391,48.571 111.750 C 49.061 110.630,49.158 110.429,49.375 110.088 C 51.859 106.180,53.011 104.595,55.254 102.000 C 60.796 95.588,68.130 90.254,75.784 87.067 C 76.627 86.716,77.287 86.398,77.249 86.360 C 77.211 86.322,76.876 86.413,76.504 86.562 C 75.667 86.897,75.809 86.922,75.196 86.336 C 74.853 86.009,74.708 85.738,74.770 85.544 C 74.832 85.351,74.815 85.319,74.720 85.450 C 74.537 85.701,74.131 85.469,74.200 85.151 C 74.231 85.007,74.138 84.936,73.958 84.966 C 73.785 84.995,73.667 84.910,73.667 84.757 C 73.667 84.616,73.584 84.500,73.482 84.500 C 73.381 84.500,73.341 84.387,73.394 84.250 C 73.446 84.112,73.412 84.000,73.318 84.000 C 73.224 84.000,73.190 83.930,73.243 83.845 C 73.296 83.760,73.251 83.635,73.144 83.569 C 73.022 83.494,72.993 83.521,73.067 83.641 C 73.133 83.747,73.107 83.833,73.010 83.833 C 72.913 83.833,72.833 83.729,72.833 83.601 C 72.833 83.473,72.720 83.325,72.581 83.272 C 72.442 83.219,72.255 82.981,72.164 82.744 C 72.074 82.507,71.928 82.358,71.839 82.413 C 71.749 82.469,71.630 82.330,71.574 82.106 C 71.518 81.882,71.318 81.658,71.131 81.609 C 70.906 81.550,70.824 81.432,70.890 81.260 C 70.947 81.112,70.902 81.000,70.785 81.000 C 70.673 81.000,70.482 80.775,70.360 80.500 C 70.238 80.225,70.035 80.000,69.908 80.000 C 69.781 80.000,69.717 79.897,69.765 79.772 C 69.817 79.637,69.713 79.507,69.509 79.454 C 69.321 79.405,69.167 79.245,69.167 79.099 C 69.167 78.944,69.027 78.833,68.833 78.833 C 68.642 78.833,68.500 78.722,68.500 78.573 C 68.500 78.429,68.283 78.129,68.018 77.906 C 67.753 77.683,67.490 77.316,67.433 77.090 C 67.364 76.814,67.248 76.710,67.082 76.774 C 66.945 76.826,66.833 76.792,66.833 76.698 C 66.833 76.605,66.927 76.490,67.042 76.444 C 67.166 76.393,67.133 76.354,66.958 76.346 C 66.798 76.339,66.667 76.253,66.667 76.155 C 66.667 75.881,66.272 75.548,66.040 75.625 C 65.921 75.665,65.833 75.552,65.833 75.358 C 65.833 75.167,65.687 74.976,65.493 74.914 C 65.292 74.851,65.114 74.609,65.057 74.325 C 65.003 74.058,64.821 73.799,64.647 73.744 C 64.474 73.689,64.333 73.534,64.333 73.400 C 64.333 73.266,64.202 73.108,64.042 73.048 C 63.649 72.902,63.248 72.432,62.995 71.820 C 62.873 71.527,62.696 71.350,62.572 71.398 C 62.354 71.481,61.778 70.754,61.778 70.396 C 61.778 70.287,61.678 70.237,61.556 70.284 C 61.413 70.338,61.333 70.241,61.333 70.013 C 61.333 69.817,61.208 69.608,61.054 69.549 C 60.649 69.394,60.167 68.872,60.167 68.589 C 60.167 68.439,60.069 68.381,59.917 68.440 C 59.758 68.500,59.667 68.437,59.667 68.268 C 59.667 68.121,59.573 67.999,59.458 67.997 C 59.319 67.996,59.333 67.941,59.500 67.833 C 59.714 67.695,59.708 67.671,59.458 67.669 C 59.279 67.668,59.167 67.539,59.167 67.333 C 59.167 67.121,59.056 67.000,58.861 67.000 C 58.694 67.000,58.451 66.794,58.323 66.542 C 58.195 66.290,57.770 65.763,57.378 65.373 C 56.987 64.982,56.667 64.550,56.667 64.414 C 56.667 64.278,56.603 64.167,56.526 64.167 C 56.228 64.167,55.667 63.528,55.667 63.189 C 55.667 62.993,55.610 62.841,55.542 62.851 C 55.197 62.901,54.667 62.594,54.667 62.345 C 54.667 62.031,54.081 61.333,53.817 61.333 C 53.723 61.333,53.693 61.258,53.750 61.167 C 53.807 61.075,53.759 61.000,53.643 61.000 C 53.306 61.000,53.654 60.749,54.917 60.080 C 55.971 59.521,56.526 59.162,56.325 59.169 C 56.284 59.171,55.650 59.495,54.917 59.890 M239.417 68.167 C 239.775 68.533,240.105 68.833,240.151 68.833 C 240.197 68.833,239.941 68.533,239.583 68.167 C 239.225 67.800,238.895 67.500,238.849 67.500 C 238.803 67.500,239.059 67.800,239.417 68.167 M243.083 71.833 C 243.441 72.200,243.772 72.500,243.818 72.500 C 243.863 72.500,243.608 72.200,243.250 71.833 C 242.892 71.467,242.562 71.167,242.516 71.167 C 242.470 71.167,242.725 71.467,243.083 71.833 M364.667 73.917 C 364.978 74.237,365.270 74.500,365.315 74.500 C 365.361 74.500,365.144 74.237,364.833 73.917 C 364.522 73.596,364.230 73.333,364.185 73.333 C 364.139 73.333,364.356 73.596,364.667 73.917 M245.000 73.885 C 245.000 73.914,245.244 74.158,245.542 74.427 L 246.083 74.917 245.594 74.375 C 245.138 73.870,245.000 73.757,245.000 73.885 M367.250 76.500 C 367.608 76.867,367.938 77.167,367.984 77.167 C 368.030 77.167,367.775 76.867,367.417 76.500 C 367.059 76.133,366.728 75.833,366.682 75.833 C 366.637 75.833,366.892 76.133,367.250 76.500 M131.742 81.708 L 131.083 82.417 131.792 81.758 C 132.450 81.145,132.577 81.000,132.450 81.000 C 132.423 81.000,132.105 81.319,131.742 81.708 M95.367 82.791 C 96.164 82.821,97.514 82.821,98.367 82.791 C 99.219 82.761,98.567 82.736,96.917 82.736 C 95.267 82.735,94.569 82.760,95.367 82.791 M92.211 82.953 C 92.464 82.991,92.839 82.990,93.044 82.951 C 93.249 82.911,93.042 82.880,92.583 82.881 C 92.125 82.882,91.957 82.915,92.211 82.953 M101.208 82.953 C 101.460 82.991,101.873 82.991,102.125 82.953 C 102.377 82.915,102.171 82.883,101.667 82.883 C 101.162 82.883,100.956 82.915,101.208 82.953 M90.542 83.115 C 90.702 83.157,90.965 83.157,91.125 83.115 C 91.285 83.073,91.154 83.039,90.833 83.039 C 90.513 83.039,90.381 83.073,90.542 83.115 M84.250 84.167 C 83.825 84.349,84.263 84.349,84.833 84.167 C 85.168 84.059,85.185 84.032,84.917 84.028 C 84.733 84.026,84.433 84.088,84.250 84.167 M78.417 85.923 C 78.000 86.123,77.986 86.146,78.333 86.062 C 78.806 85.946,79.336 85.676,79.083 85.679 C 78.992 85.681,78.692 85.790,78.417 85.923 M120.708 86.448 C 120.869 86.490,121.131 86.490,121.292 86.448 C 121.452 86.406,121.321 86.372,121.000 86.372 C 120.679 86.372,120.548 86.406,120.708 86.448 M341.917 98.833 C 342.368 99.292,342.775 99.667,342.821 99.667 C 342.867 99.667,342.535 99.292,342.083 98.833 C 341.632 98.375,341.225 98.000,341.179 98.000 C 341.133 98.000,341.465 98.375,341.917 98.833 M391.872 132.667 C 391.872 132.987,391.906 133.119,391.948 132.958 C 391.990 132.798,391.990 132.535,391.948 132.375 C 391.906 132.215,391.872 132.346,391.872 132.667 M358.390 136.083 C 358.391 136.817,358.420 137.096,358.456 136.704 C 358.491 136.312,358.490 135.712,358.454 135.371 C 358.419 135.029,358.390 135.350,358.390 136.083 M392.066 138.000 C 392.066 139.329,392.092 139.873,392.124 139.208 C 392.155 138.544,392.155 137.456,392.124 136.792 C 392.092 136.127,392.066 136.671,392.066 138.000 M358.390 140.083 C 358.391 140.817,358.420 141.096,358.456 140.704 C 358.491 140.312,358.490 139.712,358.454 139.371 C 358.419 139.029,358.390 139.350,358.390 140.083 M391.879 143.500 C 391.879 143.912,391.911 144.081,391.951 143.875 C 391.991 143.669,391.991 143.331,391.951 143.125 C 391.911 142.919,391.879 143.087,391.879 143.500 M136.578 176.853 C 130.484 183.039,123.897 187.257,115.283 190.490 L 114.816 190.665 115.242 191.090 C 115.475 191.324,115.667 191.587,115.667 191.674 C 115.667 191.762,115.747 191.833,115.845 191.833 C 115.943 191.833,116.136 191.946,116.274 192.083 C 116.411 192.221,116.443 192.333,116.345 192.333 C 116.247 192.333,116.167 192.408,116.167 192.500 C 116.167 192.592,116.317 192.667,116.500 192.667 C 116.695 192.667,116.833 192.778,116.833 192.934 C 116.833 193.108,116.924 193.167,117.092 193.103 C 117.240 193.046,117.307 193.074,117.249 193.169 C 117.193 193.259,117.224 193.333,117.318 193.333 C 117.412 193.333,117.444 193.453,117.387 193.599 C 117.292 193.847,118.214 194.832,118.542 194.833 C 118.610 194.833,118.667 194.913,118.667 195.011 C 118.667 195.109,118.929 195.437,119.250 195.739 C 119.571 196.042,119.833 196.412,119.833 196.561 C 119.833 196.711,119.913 196.833,120.010 196.833 C 120.107 196.833,120.140 196.908,120.083 197.000 C 120.023 197.097,120.193 197.167,120.490 197.167 C 120.992 197.167,121.192 197.408,120.799 197.539 C 120.581 197.612,120.629 197.682,121.616 198.732 C 122.043 199.186,122.163 199.244,122.222 199.024 C 122.262 198.872,122.303 198.948,122.314 199.196 C 122.325 199.459,122.574 199.898,122.917 200.261 C 123.237 200.602,123.500 200.982,123.500 201.107 C 123.500 201.231,123.604 201.333,123.731 201.333 C 123.857 201.333,124.000 201.483,124.048 201.667 C 124.100 201.866,124.276 202.000,124.484 202.000 C 124.689 202.000,124.833 202.107,124.833 202.260 C 124.833 202.414,124.912 202.471,125.026 202.401 C 125.142 202.329,125.173 202.355,125.104 202.466 C 125.001 202.634,125.213 202.980,125.792 203.590 C 125.906 203.711,126.001 203.909,126.003 204.030 C 126.004 204.195,126.044 204.189,126.160 204.005 C 126.292 203.797,126.333 203.806,126.433 204.065 C 126.497 204.232,126.734 204.568,126.958 204.810 C 127.183 205.052,127.482 205.475,127.623 205.750 C 127.910 206.310,128.618 207.040,129.149 207.324 C 129.342 207.427,129.500 207.604,129.500 207.716 C 129.500 207.828,129.650 208.013,129.833 208.128 C 130.017 208.242,130.167 208.431,130.167 208.548 C 130.167 208.783,130.748 209.333,130.997 209.333 C 131.084 209.333,131.113 209.446,131.060 209.583 C 131.000 209.740,131.062 209.833,131.227 209.833 C 131.404 209.833,131.455 209.924,131.383 210.112 C 131.302 210.321,131.343 210.365,131.546 210.287 C 131.723 210.220,131.788 210.256,131.736 210.393 C 131.692 210.508,131.808 210.779,131.994 210.994 C 132.181 211.208,132.333 211.446,132.333 211.522 C 132.333 211.598,132.524 211.708,132.756 211.766 C 133.027 211.834,133.263 212.075,133.414 212.436 C 133.573 212.817,133.761 213.000,133.991 213.000 C 134.190 213.000,134.333 213.109,134.333 213.260 C 134.333 213.403,134.408 213.473,134.500 213.417 C 134.595 213.358,134.667 213.498,134.667 213.740 C 134.667 213.975,134.742 214.167,134.833 214.167 C 134.925 214.167,135.000 214.271,135.000 214.399 C 135.000 214.527,135.112 214.674,135.250 214.727 C 135.387 214.780,135.500 214.906,135.500 215.008 C 135.500 215.251,136.765 216.500,137.011 216.500 C 137.116 216.500,137.161 216.608,137.110 216.739 C 137.057 216.878,137.295 217.272,137.676 217.677 C 138.038 218.060,138.333 218.480,138.333 218.608 C 138.333 218.737,138.564 218.888,138.847 218.944 C 139.228 219.021,139.303 219.088,139.138 219.205 C 138.982 219.316,139.031 219.337,139.305 219.277 C 139.594 219.213,139.670 219.252,139.601 219.431 C 139.442 219.846,139.854 220.516,140.238 220.464 C 140.487 220.430,140.598 220.521,140.636 220.788 C 140.665 220.993,140.871 221.304,141.094 221.479 C 141.318 221.654,141.500 221.889,141.500 222.000 C 141.500 222.111,141.612 222.159,141.750 222.106 C 141.902 222.048,142.000 222.106,142.000 222.255 C 142.000 222.671,142.037 222.730,142.715 223.417 C 143.077 223.783,143.448 224.293,143.539 224.549 C 143.630 224.805,143.789 224.987,143.892 224.953 C 144.136 224.871,144.500 225.237,144.500 225.563 C 144.500 225.703,144.631 225.890,144.792 225.980 C 144.952 226.070,145.065 226.186,145.042 226.238 C 144.924 226.506,145.035 226.667,145.337 226.667 C 145.580 226.667,145.703 226.809,145.775 227.169 C 145.831 227.445,145.960 227.653,146.063 227.631 C 146.353 227.568,147.000 228.205,147.000 228.553 C 147.000 228.724,147.148 228.903,147.328 228.950 C 147.508 228.997,147.701 229.178,147.756 229.351 C 147.811 229.525,147.926 229.667,148.011 229.667 C 148.097 229.667,148.167 229.817,148.167 230.000 C 148.167 230.243,148.278 230.333,148.578 230.333 C 148.884 230.333,148.964 230.401,148.889 230.596 C 148.816 230.786,148.875 230.843,149.102 230.804 C 149.345 230.762,149.428 230.865,149.466 231.250 C 149.502 231.610,149.681 231.859,150.107 232.137 C 150.432 232.350,150.656 232.566,150.605 232.617 C 150.451 232.771,150.827 233.333,151.084 233.333 C 151.225 233.333,151.285 233.433,151.230 233.576 C 151.167 233.739,151.281 233.856,151.574 233.929 C 151.858 234.000,152.092 234.232,152.240 234.586 C 152.366 234.887,152.851 235.524,153.318 236.000 C 153.785 236.477,154.167 236.940,154.167 237.028 C 154.167 237.117,154.429 237.437,154.750 237.739 C 155.071 238.042,155.333 238.330,155.333 238.380 C 155.333 238.430,155.595 238.759,155.915 239.111 C 156.873 240.163,157.000 240.326,157.000 240.500 C 157.000 240.592,157.115 240.667,157.255 240.667 C 157.396 240.667,157.556 240.786,157.613 240.933 C 157.669 241.079,158.074 241.559,158.514 241.998 C 158.954 242.438,159.275 242.836,159.228 242.883 C 159.098 243.013,159.862 243.833,160.113 243.833 C 160.234 243.833,160.333 243.988,160.333 244.177 C 160.333 244.365,160.401 244.478,160.484 244.427 C 160.567 244.376,160.711 244.553,160.804 244.821 C 160.968 245.290,161.528 245.750,161.712 245.566 C 161.761 245.516,161.853 245.712,161.917 246.000 C 161.997 246.365,162.105 246.495,162.274 246.430 C 162.414 246.377,162.473 246.409,162.412 246.507 C 162.274 246.730,163.006 247.493,163.362 247.497 C 163.535 247.499,163.682 247.691,163.752 248.008 C 163.813 248.287,163.999 248.601,164.165 248.704 C 164.331 248.808,164.431 248.985,164.388 249.098 C 164.345 249.211,164.458 249.350,164.639 249.408 C 164.821 249.466,165.011 249.622,165.063 249.756 C 165.114 249.890,165.264 250.000,165.396 250.000 C 165.541 250.000,165.606 250.115,165.562 250.292 C 165.514 250.481,165.665 250.700,165.994 250.917 C 166.272 251.100,166.499 251.336,166.500 251.441 C 166.500 251.545,166.612 251.674,166.750 251.727 C 166.887 251.780,167.000 251.924,167.000 252.047 C 167.000 252.170,167.225 252.437,167.500 252.640 C 167.775 252.844,168.000 253.133,168.000 253.283 C 168.000 253.433,168.049 253.507,168.108 253.448 C 168.236 253.319,169.155 254.491,169.162 254.792 C 169.165 254.906,169.317 255.000,169.500 255.000 C 169.683 255.000,169.833 255.094,169.833 255.210 C 169.833 255.577,171.200 256.235,175.167 257.776 C 189.428 263.319,205.364 264.721,220.875 261.795 C 222.867 261.420,223.667 261.204,223.667 261.041 C 223.667 260.916,223.594 260.859,223.505 260.914 C 223.416 260.969,223.295 260.823,223.237 260.590 C 223.178 260.357,223.059 260.167,222.972 260.167 C 222.885 260.167,222.859 260.093,222.915 260.002 C 222.977 259.903,222.897 259.882,222.717 259.950 C 222.452 260.049,222.444 260.029,222.649 259.777 C 222.850 259.530,222.846 259.506,222.623 259.591 C 222.436 259.663,222.334 259.549,222.253 259.178 C 222.188 258.886,222.034 258.667,221.892 258.667 C 221.616 258.667,221.167 258.276,221.167 258.037 C 221.167 257.806,220.564 257.159,220.452 257.270 C 220.399 257.323,220.139 257.020,219.875 256.597 C 219.612 256.173,219.346 255.876,219.286 255.936 C 219.225 255.997,219.095 255.833,218.996 255.572 C 218.897 255.312,218.458 254.758,218.021 254.341 C 217.584 253.924,217.142 253.384,217.040 253.139 C 216.937 252.895,216.699 252.647,216.510 252.587 C 216.321 252.527,216.167 252.358,216.167 252.213 C 216.167 252.067,215.885 251.669,215.542 251.327 C 214.464 250.257,214.138 249.848,214.235 249.690 C 214.287 249.607,214.180 249.499,213.998 249.451 C 213.816 249.404,213.667 249.245,213.667 249.099 C 213.667 248.953,213.559 248.833,213.428 248.833 C 213.297 248.833,213.142 248.683,213.083 248.500 C 213.025 248.317,212.870 248.167,212.739 248.167 C 212.607 248.167,212.500 248.017,212.500 247.833 C 212.500 247.650,212.389 247.500,212.253 247.500 C 212.117 247.500,211.959 247.313,211.902 247.083 C 211.839 246.834,211.678 246.667,211.500 246.667 C 211.324 246.667,211.161 246.501,211.101 246.261 C 211.045 246.038,210.866 245.813,210.702 245.761 C 210.397 245.664,209.833 244.849,209.833 244.504 C 209.833 244.219,209.446 243.879,209.209 243.958 C 209.097 243.996,208.913 243.814,208.802 243.555 C 208.611 243.112,207.503 241.914,207.497 242.144 C 207.496 242.202,207.422 242.137,207.333 242.000 C 207.113 241.659,207.127 241.354,207.349 241.667 C 207.505 241.888,207.517 241.888,207.457 241.667 C 207.420 241.530,207.283 241.410,207.153 241.401 C 206.541 241.357,206.470 241.319,206.560 241.083 C 206.613 240.946,206.584 240.833,206.495 240.833 C 206.406 240.833,206.333 240.721,206.333 240.583 C 206.333 240.446,206.264 240.333,206.180 240.333 C 206.096 240.333,205.975 240.098,205.912 239.811 C 205.831 239.441,205.757 239.354,205.659 239.513 C 205.530 239.722,204.667 239.029,204.667 238.717 C 204.667 238.662,204.404 238.362,204.083 238.050 C 203.762 237.739,203.500 237.447,203.500 237.401 C 203.500 237.355,203.316 237.134,203.091 236.910 C 202.867 236.685,202.561 236.245,202.413 235.932 C 202.250 235.589,201.980 235.323,201.731 235.260 C 201.505 235.203,201.365 235.084,201.420 234.995 C 201.475 234.906,201.440 234.833,201.343 234.833 C 201.246 234.833,201.167 234.655,201.167 234.436 C 201.167 234.167,201.048 234.008,200.799 233.943 C 200.597 233.890,200.472 233.806,200.522 233.756 C 200.571 233.706,201.049 233.816,201.583 234.000 C 202.755 234.403,203.003 234.336,201.879 233.921 C 176.033 224.361,152.662 203.121,139.889 177.583 C 139.201 176.208,138.586 175.064,138.523 175.040 C 138.459 175.016,137.584 175.832,136.578 176.853 M343.158 176.125 L 342.583 176.750 343.208 176.176 C 343.552 175.860,343.833 175.578,343.833 175.551 C 343.833 175.423,343.692 175.543,343.158 176.125 M363.491 203.292 L 362.917 203.917 363.542 203.342 C 363.885 203.026,364.167 202.745,364.167 202.717 C 364.167 202.590,364.026 202.710,363.491 203.292 M265.872 207.000 C 265.872 207.321,265.906 207.452,265.948 207.292 C 265.990 207.131,265.990 206.869,265.948 206.708 C 265.906 206.548,265.872 206.679,265.872 207.000 M265.872 209.667 C 265.872 209.987,265.906 210.119,265.948 209.958 C 265.990 209.798,265.990 209.535,265.948 209.375 C 265.906 209.215,265.872 209.346,265.872 209.667 M302.625 226.954 C 302.923 226.991,303.410 226.991,303.708 226.954 C 304.006 226.917,303.762 226.887,303.167 226.887 C 302.571 226.887,302.327 226.917,302.625 226.954 M203.000 234.485 C 203.292 234.699,205.355 235.367,205.445 235.277 C 205.479 235.243,205.036 235.060,204.462 234.871 C 203.887 234.681,203.267 234.475,203.083 234.414 C 202.812 234.323,202.796 234.336,203.000 234.485 M206.500 235.727 C 206.500 235.837,208.350 236.372,208.436 236.287 C 208.472 236.250,208.183 236.128,207.793 236.016 C 207.403 235.904,206.952 235.774,206.792 235.728 C 206.631 235.682,206.500 235.681,206.500 235.727 M210.417 237.000 C 210.600 237.079,210.862 237.143,211.000 237.143 C 211.158 237.143,211.127 237.090,210.917 237.000 C 210.733 236.921,210.471 236.857,210.333 236.857 C 210.176 236.857,210.207 236.910,210.417 237.000 M211.583 237.333 C 211.767 237.412,212.067 237.474,212.250 237.472 C 212.518 237.468,212.502 237.441,212.167 237.333 C 211.597 237.151,211.159 237.151,211.583 237.333 M262.058 240.447 C 262.121 240.510,261.927 240.829,261.628 241.156 L 261.083 241.750 261.702 241.182 C 262.238 240.689,262.383 240.333,262.046 240.333 C 261.990 240.333,261.996 240.385,262.058 240.447 M230.875 241.115 C 231.035 241.157,231.298 241.157,231.458 241.115 C 231.619 241.073,231.487 241.039,231.167 241.039 C 230.846 241.039,230.715 241.073,230.875 241.115 M232.542 241.282 C 232.702 241.323,232.965 241.323,233.125 241.282 C 233.285 241.240,233.154 241.205,232.833 241.205 C 232.512 241.205,232.381 241.240,232.542 241.282 M234.375 241.448 C 234.535 241.490,234.798 241.490,234.958 241.448 C 235.119 241.406,234.987 241.372,234.667 241.372 C 234.346 241.372,234.215 241.406,234.375 241.448 M236.542 241.615 C 236.702 241.657,236.965 241.657,237.125 241.615 C 237.285 241.573,237.154 241.539,236.833 241.539 C 236.512 241.539,236.381 241.573,236.542 241.615 M239.625 241.784 C 239.831 241.824,240.169 241.824,240.375 241.784 C 240.581 241.745,240.412 241.712,240.000 241.712 C 239.588 241.712,239.419 241.745,239.625 241.784 M247.958 241.784 C 248.165 241.824,248.502 241.824,248.708 241.784 C 248.915 241.745,248.746 241.712,248.333 241.712 C 247.921 241.712,247.752 241.745,247.958 241.784 M242.292 254.429 C 241.645 254.779,241.719 254.900,242.375 254.566 C 243.003 254.247,243.114 254.164,242.903 254.173 C 242.819 254.177,242.544 254.292,242.292 254.429 M231.250 259.000 C 231.040 259.090,231.009 259.143,231.167 259.143 C 231.304 259.143,231.567 259.079,231.750 259.000 C 231.960 258.910,231.991 258.857,231.833 258.857 C 231.696 258.857,231.433 258.921,231.250 259.000 M226.417 260.423 C 225.759 260.650,225.758 260.652,226.333 260.555 C 227.013 260.440,227.708 260.187,227.333 260.190 C 227.196 260.191,226.783 260.296,226.417 260.423 M224.417 260.912 C 223.522 261.207,223.874 261.219,224.917 260.928 C 225.375 260.801,225.600 260.696,225.417 260.694 C 225.233 260.693,224.783 260.791,224.417 260.912 " stroke="none" fill="#9bf3fb" fill-rule="evenodd"></path><path id="path3" d="M192.295 14.621 C 192.594 14.658,193.044 14.657,193.295 14.619 C 193.545 14.581,193.300 14.551,192.750 14.552 C 192.200 14.553,191.995 14.584,192.295 14.621 M201.295 14.621 C 201.594 14.658,202.044 14.657,202.295 14.619 C 202.545 14.581,202.300 14.551,201.750 14.552 C 201.200 14.553,200.995 14.584,201.295 14.621 M157.382 35.124 C 158.004 35.156,158.979 35.156,159.549 35.123 C 160.118 35.091,159.608 35.064,158.417 35.065 C 157.225 35.065,156.759 35.092,157.382 35.124 M152.460 35.285 C 152.668 35.324,152.968 35.323,153.127 35.281 C 153.286 35.239,153.117 35.207,152.750 35.209 C 152.383 35.211,152.253 35.245,152.460 35.285 M254.326 37.042 C 255.017 37.778,255.167 37.910,255.167 37.785 C 255.167 37.758,254.810 37.402,254.375 36.993 L 253.583 36.250 254.326 37.042 M94.167 49.279 C 81.351 49.853,69.679 52.740,58.986 57.981 C 54.910 59.978,53.102 61.000,53.643 61.000 C 53.759 61.000,53.807 61.075,53.750 61.167 C 53.693 61.258,53.723 61.333,53.817 61.333 C 54.081 61.333,54.667 62.031,54.667 62.345 C 54.667 62.594,55.197 62.901,55.542 62.851 C 55.610 62.841,55.667 62.993,55.667 63.189 C 55.667 63.528,56.228 64.167,56.526 64.167 C 56.603 64.167,56.667 64.278,56.667 64.414 C 56.667 64.550,56.987 64.982,57.378 65.373 C 57.770 65.763,58.195 66.290,58.323 66.542 C 58.451 66.794,58.694 67.000,58.861 67.000 C 59.056 67.000,59.167 67.121,59.167 67.333 C 59.167 67.539,59.279 67.668,59.458 67.669 C 59.708 67.671,59.714 67.695,59.500 67.833 C 59.333 67.941,59.319 67.996,59.458 67.997 C 59.573 67.999,59.667 68.121,59.667 68.268 C 59.667 68.437,59.758 68.500,59.917 68.440 C 60.069 68.381,60.167 68.439,60.167 68.589 C 60.167 68.872,60.649 69.394,61.054 69.549 C 61.208 69.608,61.333 69.817,61.333 70.013 C 61.333 70.241,61.413 70.338,61.556 70.284 C 61.678 70.237,61.778 70.287,61.778 70.396 C 61.778 70.754,62.354 71.481,62.572 71.398 C 62.696 71.350,62.873 71.527,62.995 71.820 C 63.248 72.432,63.649 72.902,64.042 73.048 C 64.202 73.108,64.333 73.266,64.333 73.400 C 64.333 73.534,64.474 73.689,64.647 73.744 C 64.821 73.799,65.003 74.058,65.057 74.325 C 65.114 74.609,65.292 74.851,65.493 74.914 C 65.687 74.976,65.833 75.167,65.833 75.358 C 65.833 75.552,65.921 75.665,66.040 75.625 C 66.272 75.548,66.667 75.881,66.667 76.155 C 66.667 76.253,66.798 76.339,66.958 76.346 C 67.133 76.354,67.166 76.393,67.042 76.444 C 66.927 76.490,66.833 76.605,66.833 76.698 C 66.833 76.792,66.945 76.826,67.082 76.774 C 67.248 76.710,67.364 76.814,67.433 77.090 C 67.490 77.316,67.753 77.683,68.018 77.906 C 68.283 78.129,68.500 78.429,68.500 78.573 C 68.500 78.717,68.640 78.833,68.814 78.833 C 68.988 78.833,69.167 78.982,69.215 79.167 C 69.263 79.350,69.430 79.500,69.586 79.500 C 69.769 79.500,69.835 79.588,69.773 79.750 C 69.716 79.898,69.771 80.000,69.908 80.000 C 70.035 80.000,70.238 80.225,70.360 80.500 C 70.482 80.775,70.673 81.000,70.785 81.000 C 70.902 81.000,70.947 81.112,70.890 81.260 C 70.824 81.432,70.906 81.550,71.131 81.609 C 71.318 81.658,71.518 81.882,71.574 82.106 C 71.630 82.330,71.749 82.469,71.839 82.413 C 71.928 82.358,72.074 82.507,72.164 82.744 C 72.255 82.981,72.442 83.219,72.581 83.272 C 72.720 83.325,72.833 83.473,72.833 83.601 C 72.833 83.729,72.913 83.833,73.010 83.833 C 73.107 83.833,73.133 83.747,73.067 83.641 C 72.993 83.521,73.022 83.494,73.144 83.569 C 73.251 83.635,73.296 83.760,73.243 83.845 C 73.190 83.930,73.224 84.000,73.318 84.000 C 73.412 84.000,73.446 84.112,73.394 84.250 C 73.341 84.387,73.381 84.500,73.482 84.500 C 73.584 84.500,73.667 84.616,73.667 84.757 C 73.667 84.910,73.785 84.995,73.958 84.966 C 74.138 84.936,74.231 85.007,74.200 85.151 C 74.131 85.469,74.537 85.701,74.720 85.450 C 74.815 85.319,74.832 85.351,74.770 85.544 C 74.664 85.872,75.602 86.892,75.906 86.780 C 76.004 86.743,76.383 86.618,76.750 86.500 C 77.117 86.382,77.754 86.154,78.167 85.993 C 80.278 85.169,84.126 84.144,87.167 83.597 C 96.263 81.961,104.761 82.516,114.103 85.355 C 119.332 86.944,123.426 86.714,127.647 84.593 C 130.034 83.394,132.981 80.817,133.882 79.139 L 134.181 78.583 133.799 79.074 C 133.105 79.964,132.299 80.757,132.398 80.452 C 132.456 80.272,132.396 80.116,132.247 80.059 C 132.111 80.007,132.000 79.860,132.000 79.732 C 132.000 79.604,131.925 79.500,131.833 79.500 C 131.742 79.500,131.667 79.385,131.667 79.245 C 131.667 79.104,131.557 78.947,131.423 78.896 C 131.289 78.845,131.131 78.650,131.071 78.463 C 130.990 78.205,130.930 78.176,130.827 78.343 C 130.730 78.500,130.608 78.388,130.398 77.948 C 130.237 77.610,130.011 77.333,129.897 77.333 C 129.699 77.333,129.398 76.721,129.467 76.458 C 129.485 76.390,129.350 76.333,129.167 76.333 C 128.981 76.333,128.833 76.222,128.833 76.083 C 128.833 75.847,128.271 75.167,128.076 75.167 C 127.919 75.167,127.161 74.351,127.191 74.214 C 127.249 73.949,126.957 73.500,126.728 73.500 C 126.598 73.500,126.290 73.167,126.044 72.759 C 125.793 72.343,125.430 71.977,125.215 71.923 C 124.946 71.855,124.833 71.705,124.833 71.413 C 124.833 71.171,124.737 71.000,124.601 71.000 C 124.378 71.000,124.085 70.551,124.140 70.292 C 124.155 70.223,124.017 70.167,123.833 70.167 C 123.592 70.167,123.500 70.056,123.500 69.764 C 123.500 69.477,123.357 69.298,123.002 69.141 C 122.728 69.019,122.512 68.844,122.522 68.752 C 122.568 68.320,122.481 68.138,122.266 68.221 C 122.103 68.283,121.999 68.132,121.921 67.717 C 121.839 67.275,121.762 67.172,121.622 67.312 C 121.327 67.606,121.216 67.539,121.108 67.000 C 121.050 66.707,120.903 66.500,120.754 66.500 C 120.614 66.500,120.500 66.369,120.499 66.208 C 120.498 66.048,120.269 65.786,119.988 65.627 C 119.708 65.467,119.525 65.261,119.582 65.168 C 119.640 65.076,119.569 65.000,119.427 65.000 C 119.264 65.000,119.167 64.851,119.167 64.601 C 119.167 64.240,118.784 63.904,118.454 63.975 C 118.382 63.990,118.278 63.871,118.223 63.710 C 118.167 63.549,117.946 63.229,117.732 63.000 C 117.518 62.771,117.150 62.377,116.914 62.125 C 116.678 61.873,116.545 61.664,116.617 61.661 C 116.690 61.658,116.633 61.565,116.490 61.453 C 116.224 61.246,115.927 60.679,115.972 60.464 C 115.985 60.399,115.900 60.382,115.782 60.427 C 115.534 60.523,114.833 59.779,114.833 59.421 C 114.833 59.262,114.737 59.214,114.556 59.284 C 114.370 59.355,114.318 59.326,114.399 59.195 C 114.471 59.079,114.417 59.000,114.265 59.000 C 114.107 59.000,114.047 58.905,114.106 58.750 C 114.159 58.612,114.119 58.500,114.018 58.500 C 113.916 58.500,113.833 58.384,113.833 58.241 C 113.833 58.099,113.617 57.907,113.352 57.815 C 113.012 57.696,112.842 57.504,112.773 57.157 C 112.719 56.887,112.590 56.667,112.486 56.667 C 112.227 56.667,111.506 55.965,111.503 55.708 C 111.501 55.594,111.425 55.500,111.333 55.500 C 111.242 55.500,111.167 55.387,111.167 55.250 C 111.167 55.112,111.046 55.000,110.899 55.000 C 110.729 55.000,110.666 54.908,110.727 54.750 C 110.782 54.606,110.730 54.500,110.605 54.500 C 110.485 54.500,110.301 54.311,110.196 54.081 C 110.091 53.850,109.816 53.576,109.585 53.470 C 109.351 53.364,109.183 53.162,109.207 53.014 C 109.235 52.844,109.147 52.767,108.958 52.799 C 108.777 52.829,108.667 52.742,108.667 52.568 C 108.667 52.414,108.404 52.063,108.083 51.789 C 107.705 51.466,107.495 51.137,107.487 50.854 C 107.480 50.613,107.437 50.508,107.391 50.620 C 107.336 50.756,107.169 50.684,106.887 50.402 C 106.319 49.834,106.333 49.831,108.333 50.082 C 111.331 50.457,112.002 50.516,111.333 50.342 C 110.226 50.055,104.739 49.508,101.250 49.338 C 97.938 49.176,96.698 49.166,94.167 49.279 M301.366 49.291 C 302.346 49.320,303.996 49.320,305.032 49.291 C 306.069 49.262,305.267 49.238,303.250 49.238 C 301.233 49.238,300.385 49.262,301.366 49.291 M114.333 51.000 C 114.563 51.073,114.938 51.132,115.167 51.130 C 115.541 51.128,115.532 51.114,115.083 51.000 C 114.378 50.821,113.773 50.821,114.333 51.000 M119.583 52.167 C 119.767 52.245,120.029 52.310,120.167 52.310 C 120.324 52.310,120.293 52.257,120.083 52.167 C 119.900 52.088,119.638 52.023,119.500 52.023 C 119.342 52.023,119.373 52.076,119.583 52.167 M121.417 52.667 C 121.600 52.745,121.862 52.810,122.000 52.810 C 122.158 52.810,122.127 52.757,121.917 52.667 C 121.733 52.588,121.471 52.523,121.333 52.523 C 121.176 52.523,121.207 52.576,121.417 52.667 M125.750 54.000 C 125.933 54.079,126.196 54.143,126.333 54.143 C 126.491 54.143,126.460 54.090,126.250 54.000 C 126.067 53.921,125.804 53.857,125.667 53.857 C 125.509 53.857,125.540 53.910,125.750 54.000 M127.833 54.743 C 127.833 54.789,128.133 54.980,128.500 55.167 C 128.867 55.354,129.167 55.469,129.167 55.423 C 129.167 55.378,128.867 55.187,128.500 55.000 C 128.133 54.813,127.833 54.697,127.833 54.743 M129.667 55.727 C 129.667 55.773,129.892 55.971,130.167 56.167 C 130.442 56.362,130.667 56.485,130.667 56.439 C 130.667 56.394,130.442 56.196,130.167 56.000 C 129.892 55.804,129.667 55.681,129.667 55.727 M130.833 56.552 C 130.833 56.581,131.077 56.825,131.375 57.094 L 131.917 57.583 131.427 57.042 C 130.971 56.537,130.833 56.423,130.833 56.552 M133.000 58.750 C 133.311 59.071,133.603 59.333,133.649 59.333 C 133.695 59.333,133.478 59.071,133.167 58.750 C 132.856 58.429,132.564 58.167,132.518 58.167 C 132.472 58.167,132.689 58.429,133.000 58.750 M135.201 62.078 C 135.494 62.671,135.760 63.128,135.794 63.095 C 135.869 63.020,134.861 61.000,134.749 61.000 C 134.705 61.000,134.909 61.485,135.201 62.078 M235.833 64.719 C 235.833 64.748,236.077 64.991,236.375 65.260 L 236.917 65.750 236.427 65.208 C 235.971 64.703,235.833 64.590,235.833 64.719 M238.083 66.833 C 238.441 67.200,238.772 67.500,238.818 67.500 C 238.863 67.500,238.608 67.200,238.250 66.833 C 237.892 66.467,237.562 66.167,237.516 66.167 C 237.470 66.167,237.725 66.467,238.083 66.833 M363.333 72.750 C 363.644 73.071,363.936 73.333,363.982 73.333 C 364.028 73.333,363.811 73.071,363.500 72.750 C 363.189 72.429,362.897 72.167,362.851 72.167 C 362.805 72.167,363.022 72.429,363.333 72.750 M244.417 73.167 C 244.775 73.533,245.105 73.833,245.151 73.833 C 245.197 73.833,244.941 73.533,244.583 73.167 C 244.225 72.800,243.895 72.500,243.849 72.500 C 243.803 72.500,244.059 72.800,244.417 73.167 M365.333 74.552 C 365.333 74.581,365.577 74.825,365.875 75.094 L 366.417 75.583 365.927 75.042 C 365.471 74.537,365.333 74.423,365.333 74.552 M135.031 76.758 C 134.529 77.792,134.585 77.936,135.103 76.942 C 135.334 76.498,135.494 76.106,135.460 76.071 C 135.425 76.036,135.232 76.345,135.031 76.758 M368.500 77.917 C 368.811 78.237,369.103 78.500,369.149 78.500 C 369.195 78.500,368.978 78.237,368.667 77.917 C 368.356 77.596,368.064 77.333,368.018 77.333 C 367.972 77.333,368.189 77.596,368.500 77.917 M302.049 82.791 C 302.764 82.822,303.889 82.822,304.549 82.790 C 305.210 82.759,304.625 82.733,303.250 82.733 C 301.875 82.734,301.335 82.759,302.049 82.791 M298.294 82.951 C 298.501 82.991,298.801 82.990,298.960 82.948 C 299.120 82.906,298.950 82.874,298.583 82.875 C 298.217 82.877,298.086 82.911,298.294 82.951 M307.458 82.951 C 307.665 82.991,308.002 82.991,308.208 82.951 C 308.415 82.911,308.246 82.879,307.833 82.879 C 307.421 82.879,307.252 82.911,307.458 82.951 M340.500 97.417 C 340.811 97.737,341.103 98.000,341.149 98.000 C 341.195 98.000,340.978 97.737,340.667 97.417 C 340.356 97.096,340.064 96.833,340.018 96.833 C 339.972 96.833,340.189 97.096,340.500 97.417 M343.493 100.375 C 343.902 100.810,344.258 101.167,344.285 101.167 C 344.410 101.167,344.278 101.017,343.542 100.326 L 342.750 99.583 343.493 100.375 M391.705 131.000 C 391.705 131.321,391.740 131.452,391.782 131.292 C 391.823 131.131,391.823 130.869,391.782 130.708 C 391.740 130.548,391.705 130.679,391.705 131.000 M391.875 133.750 C 391.877 134.117,391.911 134.247,391.951 134.040 C 391.991 133.832,391.990 133.532,391.948 133.373 C 391.906 133.214,391.874 133.383,391.875 133.750 M391.875 142.250 C 391.877 142.617,391.911 142.747,391.951 142.540 C 391.991 142.332,391.990 142.032,391.948 141.873 C 391.906 141.714,391.874 141.883,391.875 142.250 M391.709 145.083 C 391.711 145.450,391.745 145.580,391.785 145.373 C 391.824 145.166,391.823 144.866,391.781 144.706 C 391.739 144.547,391.707 144.717,391.709 145.083 M340.240 179.042 L 339.750 179.583 340.292 179.094 C 340.797 178.638,340.910 178.500,340.781 178.500 C 340.752 178.500,340.509 178.744,340.240 179.042 M282.625 190.451 C 282.831 190.491,283.169 190.491,283.375 190.451 C 283.581 190.411,283.412 190.379,283.000 190.379 C 282.587 190.379,282.419 190.411,282.625 190.451 M271.333 195.250 C 270.928 195.662,270.635 196.000,270.681 196.000 C 270.726 196.000,271.095 195.662,271.500 195.250 C 271.905 194.838,272.199 194.500,272.153 194.500 C 272.107 194.500,271.738 194.838,271.333 195.250 M369.240 197.375 L 368.750 197.917 369.292 197.427 C 369.797 196.971,369.910 196.833,369.781 196.833 C 369.752 196.833,369.509 197.077,369.240 197.375 M365.830 200.958 L 364.083 202.750 365.875 201.003 C 366.860 200.042,367.667 199.236,367.667 199.211 C 367.667 199.091,367.453 199.294,365.830 200.958 M362.406 204.208 L 361.917 204.750 362.458 204.260 C 362.963 203.804,363.077 203.667,362.948 203.667 C 362.919 203.667,362.675 203.910,362.406 204.208 M265.883 208.333 C 265.883 208.838,265.915 209.044,265.953 208.792 C 265.991 208.540,265.991 208.127,265.953 207.875 C 265.915 207.623,265.883 207.829,265.883 208.333 M269.167 217.885 C 269.167 217.914,269.410 218.158,269.708 218.427 L 270.250 218.917 269.760 218.375 C 269.304 217.870,269.167 217.757,269.167 217.885 M292.708 226.282 C 292.869 226.323,293.131 226.323,293.292 226.282 C 293.452 226.240,293.321 226.205,293.000 226.205 C 292.679 226.205,292.548 226.240,292.708 226.282 M298.708 226.788 C 299.052 226.824,299.615 226.824,299.958 226.788 C 300.302 226.752,300.021 226.723,299.333 226.723 C 298.646 226.723,298.365 226.752,298.708 226.788 M307.542 226.782 C 307.702 226.823,307.965 226.823,308.125 226.782 C 308.285 226.740,308.154 226.705,307.833 226.705 C 307.512 226.705,307.381 226.740,307.542 226.782 M200.572 233.815 C 200.635 233.917,200.794 234.000,200.927 234.000 C 201.072 234.000,201.167 234.165,201.167 234.417 C 201.167 234.646,201.246 234.833,201.343 234.833 C 201.440 234.833,201.475 234.906,201.420 234.995 C 201.365 235.084,201.505 235.203,201.731 235.260 C 201.980 235.323,202.250 235.589,202.413 235.932 C 202.561 236.245,202.867 236.685,203.091 236.910 C 203.316 237.134,203.500 237.355,203.500 237.401 C 203.500 237.447,203.762 237.739,204.083 238.050 C 204.404 238.362,204.667 238.662,204.667 238.717 C 204.667 239.029,205.530 239.722,205.659 239.513 C 205.757 239.354,205.831 239.441,205.912 239.811 C 205.975 240.098,206.096 240.333,206.180 240.333 C 206.264 240.333,206.333 240.446,206.333 240.583 C 206.333 240.721,206.406 240.833,206.495 240.833 C 206.584 240.833,206.613 240.946,206.560 241.083 C 206.470 241.319,206.541 241.357,207.153 241.401 C 207.283 241.410,207.420 241.530,207.457 241.667 C 207.517 241.888,207.505 241.888,207.349 241.667 C 207.127 241.354,207.113 241.659,207.333 242.000 C 207.422 242.137,207.496 242.202,207.497 242.144 C 207.503 241.914,208.611 243.112,208.802 243.555 C 208.913 243.814,209.097 243.996,209.209 243.958 C 209.446 243.879,209.833 244.219,209.833 244.504 C 209.833 244.849,210.397 245.664,210.702 245.761 C 210.866 245.813,211.045 246.038,211.101 246.261 C 211.161 246.501,211.324 246.667,211.500 246.667 C 211.678 246.667,211.839 246.834,211.902 247.083 C 211.959 247.313,212.117 247.500,212.253 247.500 C 212.389 247.500,212.500 247.650,212.500 247.833 C 212.500 248.017,212.607 248.167,212.739 248.167 C 212.870 248.167,213.025 248.317,213.083 248.500 C 213.142 248.683,213.297 248.833,213.428 248.833 C 213.559 248.833,213.667 248.953,213.667 249.099 C 213.667 249.245,213.816 249.404,213.998 249.451 C 214.180 249.499,214.287 249.607,214.235 249.690 C 214.138 249.848,214.464 250.257,215.542 251.327 C 215.885 251.669,216.167 252.060,216.167 252.197 C 216.167 252.334,216.348 252.529,216.569 252.630 C 216.790 252.731,217.022 252.986,217.085 253.198 C 217.148 253.410,217.563 253.924,218.008 254.341 C 218.452 254.758,218.897 255.312,218.996 255.572 C 219.095 255.833,219.225 255.997,219.286 255.936 C 219.346 255.876,219.612 256.173,219.875 256.597 C 220.139 257.020,220.399 257.323,220.452 257.270 C 220.564 257.159,221.167 257.806,221.167 258.037 C 221.167 258.276,221.616 258.667,221.892 258.667 C 222.034 258.667,222.188 258.886,222.253 259.178 C 222.334 259.549,222.436 259.663,222.623 259.591 C 222.846 259.506,222.850 259.530,222.649 259.777 C 222.444 260.029,222.452 260.049,222.717 259.950 C 222.897 259.882,222.977 259.903,222.915 260.002 C 222.859 260.093,222.885 260.167,222.972 260.167 C 223.059 260.167,223.178 260.357,223.237 260.590 C 223.295 260.823,223.416 260.969,223.505 260.914 C 223.594 260.859,223.667 260.879,223.667 260.958 C 223.667 261.472,233.097 258.547,237.750 256.589 C 246.061 253.093,257.597 245.584,261.833 240.913 L 262.250 240.454 261.544 240.562 C 256.125 241.392,250.925 241.743,244.083 241.739 C 230.719 241.731,219.146 239.921,207.250 235.979 C 204.854 235.185,203.344 234.664,202.333 234.284 C 200.719 233.676,200.440 233.602,200.572 233.815 " stroke="none" fill="#5cf3fb" fill-rule="evenodd"></path><path id="path4" d="M193.960 14.451 C 194.168 14.491,194.468 14.490,194.627 14.448 C 194.786 14.406,194.617 14.374,194.250 14.375 C 193.883 14.377,193.753 14.411,193.960 14.451 M199.792 14.451 C 199.998 14.491,200.335 14.491,200.542 14.451 C 200.748 14.411,200.579 14.379,200.167 14.379 C 199.754 14.379,199.585 14.411,199.792 14.451 M157.201 35.290 C 157.816 35.322,158.866 35.322,159.534 35.291 C 160.203 35.259,159.700 35.233,158.417 35.232 C 157.133 35.232,156.586 35.258,157.201 35.290 M151.625 35.454 C 151.923 35.491,152.410 35.491,152.708 35.454 C 153.006 35.417,152.762 35.387,152.167 35.387 C 151.571 35.387,151.327 35.417,151.625 35.454 M148.792 35.618 C 148.998 35.657,149.335 35.657,149.542 35.618 C 149.748 35.578,149.579 35.545,149.167 35.545 C 148.754 35.545,148.585 35.578,148.792 35.618 M166.044 35.620 C 166.297 35.658,166.672 35.657,166.877 35.617 C 167.082 35.578,166.875 35.546,166.417 35.548 C 165.958 35.549,165.791 35.581,166.044 35.620 M258.160 40.708 C 258.850 41.444,259.000 41.577,259.000 41.451 C 259.000 41.425,258.644 41.068,258.208 40.660 L 257.417 39.917 258.160 40.708 M92.208 49.286 C 92.460 49.324,92.873 49.324,93.125 49.286 C 93.377 49.248,93.171 49.217,92.667 49.217 C 92.162 49.217,91.956 49.248,92.208 49.286 M101.461 49.287 C 101.761 49.325,102.211 49.324,102.461 49.286 C 102.712 49.248,102.467 49.217,101.917 49.218 C 101.367 49.219,101.162 49.250,101.461 49.287 M298.042 49.286 C 298.294 49.324,298.706 49.324,298.958 49.286 C 299.210 49.248,299.004 49.217,298.500 49.217 C 297.996 49.217,297.790 49.248,298.042 49.286 M307.375 49.286 C 307.627 49.324,308.040 49.324,308.292 49.286 C 308.544 49.248,308.337 49.217,307.833 49.217 C 307.329 49.217,307.123 49.248,307.375 49.286 M89.792 49.451 C 89.998 49.491,90.335 49.491,90.542 49.451 C 90.748 49.411,90.579 49.379,90.167 49.379 C 89.754 49.379,89.585 49.411,89.792 49.451 M104.044 49.453 C 104.297 49.491,104.672 49.490,104.877 49.451 C 105.082 49.411,104.875 49.380,104.417 49.381 C 103.958 49.382,103.791 49.415,104.044 49.453 M295.292 49.451 C 295.498 49.491,295.835 49.491,296.042 49.451 C 296.248 49.411,296.079 49.379,295.667 49.379 C 295.254 49.379,295.085 49.411,295.292 49.451 M310.292 49.451 C 310.498 49.491,310.835 49.491,311.042 49.451 C 311.248 49.411,311.079 49.379,310.667 49.379 C 310.254 49.379,310.085 49.411,310.292 49.451 M87.960 49.618 C 88.168 49.658,88.468 49.656,88.627 49.615 C 88.786 49.573,88.617 49.540,88.250 49.542 C 87.883 49.544,87.753 49.578,87.960 49.618 M106.127 49.618 C 106.334 49.658,106.634 49.656,106.794 49.615 C 106.953 49.573,106.783 49.540,106.417 49.542 C 106.050 49.544,105.920 49.578,106.127 49.618 M293.708 49.615 C 293.869 49.657,294.131 49.657,294.292 49.615 C 294.452 49.573,294.321 49.539,294.000 49.539 C 293.679 49.539,293.548 49.573,293.708 49.615 M41.917 68.435 L 41.250 69.032 41.958 68.502 C 42.568 68.046,42.788 67.826,42.625 67.836 C 42.602 67.837,42.283 68.107,41.917 68.435 M137.052 69.250 C 137.053 69.800,137.084 70.005,137.121 69.705 C 137.158 69.406,137.157 68.956,137.119 68.705 C 137.081 68.455,137.051 68.700,137.052 69.250 M240.917 69.667 C 241.368 70.125,241.775 70.500,241.821 70.500 C 241.867 70.500,241.535 70.125,241.083 69.667 C 240.632 69.208,240.225 68.833,240.179 68.833 C 240.133 68.833,240.465 69.208,240.917 69.667 M39.573 70.375 L 39.083 70.917 39.625 70.427 C 40.130 69.971,40.243 69.833,40.115 69.833 C 40.086 69.833,39.842 70.077,39.573 70.375 M38.215 71.504 C 37.829 71.869,37.570 72.167,37.639 72.167 C 37.709 72.167,38.059 71.867,38.417 71.500 C 39.254 70.642,39.125 70.645,38.215 71.504 M35.912 73.708 L 34.750 74.917 35.958 73.754 C 36.623 73.115,37.167 72.572,37.167 72.546 C 37.167 72.424,36.992 72.586,35.912 73.708 M32.496 77.125 C 18.752 91.603,10.265 110.837,8.762 130.917 C 8.607 132.983,8.599 133.814,8.733 133.985 C 8.834 134.115,8.917 134.377,8.917 134.569 C 8.917 134.829,9.022 134.917,9.333 134.917 C 9.837 134.917,9.994 135.104,9.997 135.708 C 9.999 135.960,10.075 136.167,10.167 136.167 C 10.258 136.167,10.333 136.054,10.333 135.917 C 10.333 135.779,10.406 135.667,10.495 135.667 C 10.584 135.667,10.613 135.779,10.560 135.917 C 10.508 136.054,10.542 136.167,10.636 136.167 C 10.730 136.167,10.898 136.448,11.009 136.792 C 11.250 137.539,11.809 138.143,11.989 137.852 C 12.067 137.725,12.176 137.804,12.301 138.079 C 12.406 138.310,12.578 138.500,12.683 138.500 C 12.795 138.500,12.840 138.670,12.792 138.921 C 12.728 139.256,12.768 139.324,12.989 139.254 C 13.191 139.189,13.324 139.327,13.483 139.766 C 13.666 140.272,13.763 140.354,14.104 140.289 C 14.326 140.246,14.548 140.276,14.597 140.356 C 14.646 140.435,14.532 140.500,14.343 140.500 C 14.154 140.500,14.000 140.583,14.000 140.685 C 14.000 140.800,14.162 140.829,14.431 140.761 C 14.843 140.658,14.858 140.677,14.747 141.182 C 14.634 141.695,14.645 141.709,15.107 141.613 C 15.369 141.558,15.490 141.554,15.375 141.604 C 15.127 141.711,15.094 142.167,15.333 142.167 C 15.425 142.167,15.500 142.317,15.500 142.500 C 15.500 142.685,15.611 142.833,15.750 142.833 C 15.887 142.833,16.001 142.740,16.003 142.625 C 16.004 142.478,16.049 142.485,16.154 142.652 C 16.236 142.781,16.263 142.990,16.214 143.117 C 16.166 143.243,16.191 143.335,16.271 143.320 C 16.640 143.253,16.815 143.354,16.727 143.583 C 16.674 143.721,16.714 143.833,16.816 143.833 C 16.917 143.833,17.150 143.983,17.333 144.167 C 17.517 144.350,17.592 144.500,17.500 144.500 C 17.408 144.500,17.333 144.583,17.333 144.684 C 17.333 144.786,17.446 144.826,17.583 144.773 C 17.721 144.720,17.833 144.750,17.833 144.839 C 17.833 144.927,17.946 145.000,18.083 145.000 C 18.242 145.000,18.338 145.167,18.345 145.458 C 18.355 145.864,18.373 145.879,18.500 145.583 L 18.643 145.250 18.681 145.583 C 18.702 145.767,18.710 146.041,18.698 146.192 C 18.675 146.487,19.095 146.731,19.351 146.572 C 19.536 146.458,20.012 147.513,19.876 147.733 C 19.823 147.818,19.948 147.842,20.159 147.787 C 20.442 147.713,20.558 147.770,20.621 148.011 C 20.668 148.188,20.769 148.333,20.848 148.333 C 20.926 148.333,20.946 148.446,20.894 148.583 C 20.832 148.744,20.897 148.833,21.075 148.833 C 21.236 148.833,21.305 148.911,21.239 149.018 C 21.163 149.141,21.238 149.166,21.465 149.094 C 21.652 149.035,21.853 149.064,21.911 149.158 C 21.974 149.260,21.913 149.289,21.759 149.230 C 21.616 149.176,21.500 149.214,21.500 149.316 C 21.500 149.417,21.575 149.500,21.667 149.500 C 21.758 149.500,21.833 149.621,21.833 149.768 C 21.833 149.928,21.926 150.000,22.065 149.947 C 22.192 149.898,22.471 150.020,22.685 150.219 C 23.023 150.535,23.036 150.588,22.786 150.636 C 22.339 150.722,22.450 151.000,22.932 151.000 C 23.228 151.000,23.393 151.108,23.454 151.343 C 23.503 151.531,23.636 151.650,23.748 151.607 C 23.888 151.553,23.935 151.682,23.896 152.014 C 23.847 152.435,23.895 152.500,24.253 152.500 C 24.481 152.500,24.667 152.573,24.667 152.661 C 24.667 152.750,24.535 152.776,24.375 152.718 C 24.215 152.661,24.133 152.669,24.193 152.736 C 24.253 152.803,24.403 152.883,24.526 152.912 C 25.389 153.119,25.494 153.197,25.244 153.446 C 24.883 153.808,24.946 154.000,25.427 154.000 C 25.671 154.000,25.809 154.072,25.749 154.168 C 25.620 154.378,26.080 154.860,26.257 154.700 C 26.328 154.636,26.339 154.715,26.282 154.875 C 26.210 155.075,26.261 155.167,26.445 155.167 C 26.768 155.167,27.154 155.638,27.161 156.042 C 27.168 156.402,27.500 156.434,27.500 156.073 C 27.500 155.929,27.580 155.863,27.681 155.926 C 27.781 155.987,27.823 156.187,27.775 156.371 C 27.714 156.604,27.785 156.729,28.011 156.788 C 28.188 156.834,28.333 157.011,28.333 157.180 C 28.333 157.350,28.481 157.567,28.660 157.663 C 28.840 157.760,28.949 157.940,28.901 158.064 C 28.852 158.191,28.946 158.324,29.116 158.369 C 29.281 158.412,29.529 158.662,29.667 158.923 C 30.031 159.615,30.580 160.167,30.905 160.167 C 31.113 160.167,31.161 160.256,31.083 160.500 C 30.970 160.858,31.250 160.972,31.390 160.625 C 31.436 160.510,31.480 160.623,31.487 160.875 C 31.499 161.300,31.711 161.437,32.221 161.349 C 32.296 161.336,32.306 161.409,32.243 161.512 C 32.048 161.827,32.521 162.478,33.024 162.589 C 33.286 162.646,33.500 162.804,33.500 162.940 C 33.500 163.075,33.425 163.140,33.333 163.083 C 33.242 163.027,33.167 163.048,33.167 163.131 C 33.167 163.337,33.732 163.833,33.966 163.833 C 34.071 163.833,34.113 163.946,34.060 164.083 C 34.008 164.221,34.042 164.333,34.137 164.333 C 34.231 164.333,34.341 164.427,34.380 164.542 C 34.419 164.656,34.425 164.586,34.392 164.385 C 34.359 164.185,34.407 163.974,34.499 163.917 C 34.597 163.856,34.667 164.025,34.667 164.323 C 34.667 164.681,34.747 164.833,34.935 164.833 C 35.137 164.833,35.177 164.935,35.098 165.250 C 34.985 165.701,35.549 165.889,35.723 165.458 C 35.770 165.341,35.821 165.396,35.839 165.583 C 35.888 166.080,35.921 166.218,36.082 166.576 C 36.324 167.114,36.723 167.500,37.037 167.500 C 37.200 167.500,37.333 167.622,37.333 167.772 C 37.333 168.086,37.945 168.667,38.276 168.667 C 38.399 168.667,38.500 168.817,38.500 169.001 C 38.500 169.340,39.294 170.368,39.482 170.272 C 39.538 170.243,39.715 170.358,39.875 170.526 C 40.117 170.781,40.124 170.833,39.917 170.833 C 39.565 170.833,39.603 171.161,39.958 171.192 C 40.119 171.206,40.362 171.226,40.500 171.238 C 40.671 171.251,40.734 171.405,40.700 171.722 C 40.647 172.227,41.226 172.992,41.667 172.997 C 41.817 172.999,41.927 173.171,41.941 173.428 C 41.972 173.958,42.141 174.145,42.323 173.851 C 42.512 173.545,43.199 174.222,43.062 174.580 C 42.989 174.769,43.085 174.836,43.441 174.845 C 43.852 174.855,43.872 174.875,43.583 174.994 C 43.285 175.116,43.280 175.143,43.531 175.246 C 43.686 175.309,43.774 175.460,43.728 175.580 C 43.608 175.893,44.005 176.088,44.200 175.813 C 44.320 175.644,44.341 175.682,44.280 175.958 C 44.218 176.240,44.273 176.333,44.502 176.333 C 44.919 176.333,45.333 176.506,45.333 176.679 C 45.333 176.758,45.221 176.780,45.083 176.727 C 44.629 176.553,44.814 177.139,45.285 177.366 C 45.533 177.485,45.781 177.771,45.836 178.000 C 45.911 178.313,46.043 178.415,46.367 178.411 C 46.730 178.407,46.787 178.468,46.727 178.800 C 46.687 179.016,46.725 179.150,46.810 179.098 C 46.895 179.045,47.013 179.196,47.073 179.433 C 47.147 179.731,47.259 179.833,47.436 179.766 C 47.794 179.628,48.207 180.060,47.957 180.310 C 47.714 180.553,48.240 180.978,48.833 181.017 L 49.250 181.045 48.850 181.121 C 48.461 181.194,49.258 182.165,49.708 182.166 C 49.777 182.166,49.833 182.247,49.833 182.345 C 49.833 182.443,49.927 182.628,50.042 182.756 C 50.560 183.334,50.667 183.502,50.667 183.743 C 50.667 184.050,51.107 184.089,51.213 183.792 C 51.257 183.670,51.350 183.645,51.436 183.731 C 51.521 183.817,51.496 183.910,51.375 183.953 C 51.036 184.074,51.138 184.365,51.480 184.256 C 51.859 184.136,52.061 184.531,51.779 184.837 C 51.640 184.987,51.639 185.018,51.774 184.942 C 51.885 184.880,52.005 184.997,52.062 185.222 C 52.180 185.695,52.947 186.552,53.143 186.431 C 53.221 186.383,53.248 186.540,53.202 186.781 C 53.129 187.162,53.164 187.206,53.476 187.125 C 53.673 187.073,53.792 187.099,53.740 187.182 C 53.689 187.265,53.801 187.333,53.990 187.333 C 54.369 187.333,54.452 187.583,54.125 187.736 C 53.958 187.814,53.958 187.853,54.125 187.931 C 54.240 187.984,54.333 188.134,54.333 188.264 C 54.333 188.416,54.525 188.505,54.875 188.513 C 55.173 188.520,55.323 188.564,55.208 188.610 C 55.094 188.657,55.000 188.771,55.000 188.865 C 55.000 188.959,55.117 188.991,55.261 188.936 C 55.460 188.859,55.497 188.913,55.419 189.159 C 55.341 189.404,55.439 189.546,55.819 189.743 C 56.162 189.920,56.290 190.086,56.222 190.264 C 56.109 190.557,56.643 190.546,56.888 190.250 C 56.965 190.157,56.994 190.283,56.954 190.537 C 56.914 190.786,56.937 190.955,57.006 190.913 C 57.165 190.815,57.667 191.573,57.667 191.911 C 57.667 192.052,57.810 192.167,57.987 192.167 C 58.207 192.167,58.341 192.323,58.416 192.665 C 58.547 193.259,58.809 193.463,59.034 193.146 C 59.161 192.969,59.177 192.983,59.104 193.208 C 59.053 193.369,59.083 193.500,59.172 193.500 C 59.261 193.500,59.333 193.596,59.333 193.713 C 59.333 193.830,59.482 194.033,59.663 194.164 C 59.905 194.339,59.938 194.436,59.788 194.532 C 59.660 194.613,59.749 194.663,60.024 194.664 C 60.270 194.666,60.509 194.783,60.566 194.930 C 60.707 195.299,60.692 195.369,60.500 195.250 C 60.408 195.193,60.333 195.224,60.333 195.318 C 60.333 195.578,60.990 195.873,61.305 195.753 C 61.528 195.668,61.542 195.689,61.375 195.857 C 61.074 196.160,61.119 196.333,61.499 196.333 C 61.827 196.333,62.833 197.519,62.833 197.905 C 62.833 198.173,63.485 198.695,63.674 198.579 C 63.762 198.525,63.833 198.597,63.833 198.740 C 63.833 198.883,63.899 199.000,63.979 199.000 C 64.059 199.000,64.172 199.300,64.231 199.667 C 64.335 200.321,64.564 200.537,64.716 200.125 C 64.758 200.010,64.849 200.129,64.917 200.388 C 65.025 200.793,65.104 200.845,65.480 200.758 C 65.779 200.689,65.843 200.706,65.684 200.811 C 65.379 201.015,65.585 201.567,65.918 201.439 C 66.055 201.387,66.167 201.412,66.167 201.495 C 66.167 202.089,67.116 203.158,67.667 203.183 L 68.250 203.211 67.667 203.333 C 67.136 203.445,67.150 203.522,67.708 203.567 C 67.998 203.590,68.322 204.022,68.328 204.394 C 68.332 204.636,68.427 204.688,68.754 204.625 C 69.105 204.558,69.159 204.596,69.076 204.856 C 69.022 205.027,69.051 205.167,69.140 205.167 C 69.229 205.167,69.261 205.325,69.210 205.519 C 69.132 205.818,69.172 205.854,69.475 205.758 C 69.748 205.671,69.809 205.703,69.736 205.893 C 69.678 206.043,69.783 206.217,70.003 206.335 C 70.335 206.513,70.356 206.497,70.255 206.139 C 70.170 205.838,70.184 205.806,70.320 206.000 C 70.416 206.137,70.496 206.381,70.497 206.542 C 70.499 206.728,70.635 206.838,70.875 206.846 C 71.081 206.854,71.167 206.894,71.066 206.936 C 70.855 207.023,70.963 207.833,71.186 207.833 C 71.463 207.833,71.993 208.492,71.903 208.726 C 71.845 208.876,71.968 208.998,72.250 209.068 C 72.589 209.154,72.663 209.250,72.582 209.506 C 72.509 209.733,72.555 209.833,72.730 209.833 C 72.870 209.833,73.061 209.965,73.155 210.125 C 73.293 210.359,73.356 210.372,73.474 210.194 C 73.628 209.961,73.898 210.518,73.844 210.958 C 73.830 211.073,73.897 211.167,73.993 211.167 C 74.088 211.167,74.167 211.271,74.167 211.399 C 74.167 211.526,74.373 211.685,74.625 211.752 C 74.877 211.820,74.990 211.909,74.875 211.951 C 74.578 212.060,74.617 212.333,74.929 212.333 C 75.272 212.333,75.717 212.784,75.584 212.999 C 75.527 213.091,75.626 213.167,75.803 213.167 C 75.981 213.167,76.219 213.279,76.333 213.417 C 76.477 213.589,76.483 213.667,76.354 213.667 C 76.251 213.667,76.167 213.742,76.167 213.833 C 76.167 213.925,76.279 214.000,76.417 214.000 C 76.556 214.000,76.667 214.148,76.667 214.333 C 76.667 214.690,76.991 214.807,77.013 214.458 C 77.020 214.344,77.102 214.456,77.194 214.708 C 77.286 214.960,77.467 215.167,77.597 215.167 C 77.727 215.167,77.833 215.308,77.833 215.481 C 77.833 215.654,77.982 215.833,78.167 215.882 C 78.394 215.941,78.500 216.109,78.500 216.408 C 78.500 216.735,78.575 216.835,78.792 216.799 C 78.996 216.765,79.067 216.843,79.031 217.058 C 78.999 217.242,79.049 217.323,79.154 217.258 C 79.254 217.196,79.293 217.244,79.245 217.370 C 79.195 217.499,79.352 217.679,79.622 217.802 C 80.668 218.280,81.440 218.889,80.583 218.560 C 80.446 218.508,80.336 218.529,80.339 218.607 C 80.347 218.844,80.786 219.349,80.940 219.299 C 81.301 219.182,81.891 219.813,81.669 220.080 C 81.379 220.430,81.585 220.607,81.945 220.315 C 82.167 220.135,82.201 220.133,82.097 220.305 C 81.998 220.469,82.065 220.513,82.353 220.472 C 82.636 220.432,82.757 220.507,82.797 220.750 C 82.837 220.999,82.812 221.026,82.696 220.857 C 82.582 220.690,82.510 220.682,82.421 220.826 C 82.258 221.091,82.803 221.664,83.234 221.680 C 83.426 221.687,83.497 221.728,83.393 221.771 C 82.916 221.966,83.548 222.864,84.115 222.798 C 84.530 222.750,84.664 222.806,84.730 223.059 C 84.794 223.301,84.767 223.334,84.624 223.191 C 84.384 222.951,84.000 222.942,84.000 223.177 C 84.000 223.274,84.075 223.307,84.167 223.250 C 84.258 223.193,84.333 223.256,84.333 223.389 C 84.333 223.688,84.735 223.857,85.125 223.722 C 85.362 223.641,85.354 223.672,85.083 223.889 C 84.753 224.154,84.753 224.156,85.125 224.161 C 85.359 224.165,85.500 224.269,85.500 224.439 C 85.500 224.810,86.136 225.333,86.586 225.333 C 86.888 225.333,86.940 225.407,86.874 225.750 C 86.830 225.979,86.859 226.168,86.939 226.170 C 87.018 226.172,87.983 226.283,89.083 226.416 C 101.715 227.945,117.761 225.631,130.793 220.400 C 131.184 220.243,131.528 220.145,131.558 220.182 C 131.588 220.220,132.124 221.112,132.749 222.167 C 140.085 234.542,150.827 245.160,163.208 252.274 C 166.735 254.300,173.387 257.502,173.608 257.280 C 173.644 257.245,173.203 257.010,172.628 256.760 C 170.494 255.829,169.833 255.469,169.833 255.238 C 169.833 255.107,169.683 255.000,169.500 255.000 C 169.317 255.000,169.165 254.906,169.162 254.792 C 169.155 254.491,168.236 253.319,168.108 253.448 C 168.049 253.507,168.000 253.433,168.000 253.283 C 168.000 253.133,167.775 252.844,167.500 252.640 C 167.225 252.437,167.000 252.170,167.000 252.047 C 167.000 251.924,166.887 251.780,166.750 251.727 C 166.613 251.674,166.500 251.545,166.500 251.441 C 166.499 251.336,166.272 251.100,165.994 250.917 C 165.665 250.700,165.514 250.481,165.562 250.292 C 165.606 250.115,165.541 250.000,165.396 250.000 C 165.264 250.000,165.114 249.890,165.063 249.756 C 165.011 249.622,164.821 249.466,164.639 249.408 C 164.458 249.350,164.345 249.211,164.388 249.098 C 164.431 248.985,164.331 248.808,164.165 248.704 C 163.999 248.601,163.813 248.287,163.752 248.008 C 163.682 247.691,163.535 247.499,163.362 247.497 C 163.006 247.493,162.274 246.730,162.412 246.507 C 162.473 246.409,162.414 246.377,162.274 246.430 C 162.105 246.495,161.997 246.365,161.917 246.000 C 161.853 245.712,161.761 245.516,161.712 245.566 C 161.528 245.750,160.968 245.290,160.804 244.821 C 160.711 244.553,160.567 244.376,160.484 244.427 C 160.401 244.478,160.333 244.365,160.333 244.177 C 160.333 243.988,160.234 243.833,160.113 243.833 C 159.862 243.833,159.098 243.013,159.228 242.883 C 159.275 242.836,158.954 242.438,158.514 241.998 C 158.074 241.559,157.669 241.079,157.613 240.933 C 157.556 240.786,157.396 240.667,157.255 240.667 C 157.115 240.667,157.000 240.592,157.000 240.500 C 157.000 240.326,156.873 240.163,155.915 239.111 C 155.595 238.759,155.333 238.430,155.333 238.380 C 155.333 238.330,155.071 238.042,154.750 237.739 C 154.429 237.437,154.167 237.117,154.167 237.028 C 154.167 236.940,153.785 236.477,153.318 236.000 C 152.851 235.524,152.366 234.887,152.240 234.586 C 152.092 234.232,151.858 234.000,151.574 233.929 C 151.281 233.856,151.167 233.739,151.230 233.576 C 151.285 233.433,151.225 233.333,151.084 233.333 C 150.827 233.333,150.451 232.771,150.605 232.617 C 150.656 232.566,150.432 232.350,150.107 232.137 C 149.681 231.859,149.502 231.610,149.466 231.250 C 149.428 230.865,149.345 230.762,149.102 230.804 C 148.875 230.843,148.816 230.786,148.889 230.596 C 148.964 230.401,148.884 230.333,148.578 230.333 C 148.278 230.333,148.167 230.243,148.167 230.000 C 148.167 229.817,148.097 229.667,148.011 229.667 C 147.926 229.667,147.811 229.525,147.756 229.351 C 147.701 229.178,147.508 228.997,147.328 228.950 C 147.148 228.903,147.000 228.724,147.000 228.553 C 147.000 228.205,146.353 227.568,146.063 227.631 C 145.960 227.653,145.831 227.445,145.775 227.169 C 145.703 226.809,145.580 226.667,145.337 226.667 C 145.034 226.667,144.967 226.574,145.015 226.223 C 145.023 226.163,144.911 226.047,144.765 225.965 C 144.619 225.883,144.500 225.703,144.500 225.563 C 144.500 225.237,144.136 224.871,143.892 224.953 C 143.789 224.987,143.630 224.805,143.539 224.549 C 143.448 224.293,143.077 223.783,142.715 223.417 C 142.037 222.730,142.000 222.671,142.000 222.255 C 142.000 222.106,141.902 222.048,141.750 222.106 C 141.612 222.159,141.500 222.111,141.500 222.000 C 141.500 221.889,141.318 221.654,141.094 221.479 C 140.871 221.304,140.665 220.993,140.636 220.788 C 140.598 220.521,140.487 220.430,140.238 220.464 C 139.854 220.516,139.442 219.846,139.601 219.431 C 139.670 219.252,139.594 219.213,139.305 219.277 C 139.031 219.337,138.982 219.316,139.138 219.205 C 139.303 219.088,139.228 219.021,138.847 218.944 C 138.564 218.888,138.333 218.737,138.333 218.608 C 138.333 218.480,138.038 218.060,137.676 217.677 C 137.295 217.272,137.057 216.878,137.110 216.739 C 137.161 216.608,137.116 216.500,137.011 216.500 C 136.765 216.500,135.500 215.251,135.500 215.008 C 135.500 214.906,135.387 214.780,135.250 214.727 C 135.112 214.674,135.000 214.527,135.000 214.399 C 135.000 214.271,134.925 214.167,134.833 214.167 C 134.742 214.167,134.667 213.975,134.667 213.740 C 134.667 213.498,134.595 213.358,134.500 213.417 C 134.408 213.473,134.333 213.403,134.333 213.260 C 134.333 213.109,134.190 213.000,133.991 213.000 C 133.761 213.000,133.573 212.817,133.414 212.436 C 133.263 212.075,133.027 211.834,132.756 211.766 C 132.524 211.708,132.333 211.598,132.333 211.522 C 132.333 211.446,132.181 211.208,131.994 210.994 C 131.808 210.779,131.692 210.508,131.736 210.393 C 131.788 210.256,131.723 210.220,131.546 210.287 C 131.343 210.365,131.302 210.321,131.383 210.112 C 131.455 209.924,131.404 209.833,131.227 209.833 C 131.062 209.833,131.000 209.740,131.060 209.583 C 131.113 209.446,131.084 209.333,130.997 209.333 C 130.748 209.333,130.167 208.783,130.167 208.548 C 130.167 208.431,130.017 208.242,129.833 208.128 C 129.650 208.013,129.500 207.828,129.500 207.716 C 129.500 207.604,129.342 207.427,129.149 207.324 C 128.618 207.040,127.910 206.310,127.623 205.750 C 127.482 205.475,127.183 205.052,126.958 204.810 C 126.734 204.568,126.497 204.232,126.433 204.065 C 126.333 203.806,126.292 203.797,126.160 204.005 C 126.057 204.168,126.004 204.181,126.003 204.044 C 126.000 203.851,125.709 203.437,125.198 202.899 C 125.077 202.773,125.033 202.582,125.098 202.476 C 125.173 202.355,125.145 202.327,125.026 202.401 C 124.912 202.471,124.833 202.414,124.833 202.260 C 124.833 202.107,124.689 202.000,124.484 202.000 C 124.276 202.000,124.100 201.866,124.048 201.667 C 124.000 201.483,123.857 201.333,123.731 201.333 C 123.604 201.333,123.500 201.231,123.500 201.107 C 123.500 200.982,123.238 200.602,122.917 200.261 C 122.574 199.898,122.325 199.459,122.314 199.196 C 122.303 198.948,122.262 198.872,122.222 199.024 C 122.163 199.244,122.043 199.186,121.616 198.732 C 120.629 197.682,120.581 197.612,120.799 197.539 C 121.192 197.408,120.992 197.167,120.490 197.167 C 120.193 197.167,120.023 197.097,120.083 197.000 C 120.140 196.908,120.107 196.833,120.010 196.833 C 119.913 196.833,119.833 196.711,119.833 196.561 C 119.833 196.412,119.571 196.042,119.250 195.739 C 118.929 195.437,118.667 195.109,118.667 195.011 C 118.667 194.913,118.610 194.833,118.542 194.833 C 118.214 194.832,117.292 193.847,117.387 193.599 C 117.444 193.453,117.412 193.333,117.318 193.333 C 117.224 193.333,117.193 193.259,117.249 193.169 C 117.307 193.074,117.240 193.046,117.092 193.103 C 116.924 193.167,116.833 193.108,116.833 192.934 C 116.833 192.778,116.695 192.667,116.500 192.667 C 116.317 192.667,116.167 192.592,116.167 192.500 C 116.167 192.408,116.247 192.333,116.345 192.333 C 116.443 192.333,116.411 192.221,116.274 192.083 C 116.136 191.946,115.943 191.833,115.845 191.833 C 115.747 191.833,115.667 191.762,115.667 191.674 C 115.667 191.587,115.475 191.324,115.242 191.090 L 114.816 190.665 115.283 190.490 C 117.129 189.797,118.846 189.078,119.491 188.727 C 120.428 188.218,120.159 188.301,118.333 189.084 C 107.651 193.669,93.942 194.562,82.667 191.407 C 60.508 185.206,44.880 166.865,42.272 144.000 C 41.693 138.929,45.709 119.392,48.985 111.343 C 49.269 110.644,49.373 110.231,49.235 110.346 C 49.106 110.453,49.000 110.597,49.000 110.666 C 49.000 111.207,48.264 112.385,48.167 112.000 C 48.098 111.730,47.962 111.601,47.781 111.632 C 47.618 111.661,47.500 111.573,47.500 111.424 C 47.500 111.282,47.387 111.167,47.250 111.167 C 47.095 111.167,47.000 111.010,47.000 110.755 C 47.000 110.468,46.928 110.371,46.763 110.435 C 46.623 110.489,46.441 110.367,46.319 110.140 C 46.205 109.927,45.866 109.492,45.565 109.173 C 45.180 108.766,45.077 108.555,45.217 108.465 C 45.343 108.385,45.278 108.337,45.042 108.336 C 44.775 108.334,44.667 108.234,44.667 107.990 C 44.667 107.801,44.598 107.690,44.513 107.742 C 44.315 107.864,43.801 107.353,43.924 107.155 C 43.975 107.072,43.908 107.046,43.774 107.097 C 43.619 107.157,43.486 107.053,43.410 106.811 C 43.343 106.602,43.018 106.162,42.686 105.834 C 42.075 105.228,41.819 104.885,41.472 104.208 C 41.366 104.002,41.192 103.833,41.085 103.833 C 40.838 103.833,40.428 103.085,40.559 102.873 C 40.615 102.782,40.475 102.749,40.226 102.797 C 39.849 102.869,39.810 102.835,39.909 102.523 C 39.993 102.259,39.952 102.167,39.751 102.167 C 39.602 102.167,39.526 102.093,39.582 102.002 C 39.641 101.907,39.574 101.879,39.425 101.936 C 39.283 101.991,39.167 101.953,39.167 101.851 C 39.167 101.750,39.241 101.667,39.332 101.667 C 39.422 101.667,39.368 101.517,39.211 101.333 C 39.054 101.150,38.839 101.000,38.733 101.000 C 38.627 101.000,38.450 100.781,38.339 100.514 C 38.229 100.247,37.928 99.941,37.671 99.835 C 37.357 99.705,37.171 99.481,37.106 99.154 C 37.046 98.856,36.903 98.667,36.739 98.667 C 36.590 98.667,36.430 98.517,36.382 98.333 C 36.334 98.150,36.191 98.000,36.064 98.000 C 35.937 98.000,35.833 97.882,35.833 97.738 C 35.833 97.394,35.430 97.000,35.077 97.000 C 34.895 97.000,34.832 96.911,34.895 96.745 C 34.951 96.601,34.851 96.369,34.667 96.211 C 34.425 96.004,34.393 95.898,34.545 95.802 C 34.673 95.721,34.581 95.671,34.302 95.669 C 34.055 95.668,33.807 95.592,33.750 95.500 C 33.693 95.408,33.729 95.333,33.830 95.333 C 33.948 95.333,33.936 95.250,33.798 95.101 C 33.680 94.973,33.517 94.908,33.437 94.957 C 33.356 95.006,33.323 94.949,33.362 94.830 C 33.444 94.584,32.811 93.833,32.523 93.833 C 32.418 93.833,32.333 93.723,32.333 93.589 C 32.333 93.455,32.166 93.256,31.962 93.146 C 31.333 92.810,31.087 92.500,31.446 92.499 C 31.691 92.498,31.666 92.441,31.317 92.207 C 30.658 91.765,30.301 91.354,30.415 91.170 C 30.472 91.077,30.412 91.044,30.279 91.095 C 30.121 91.156,29.980 91.014,29.862 90.677 C 29.759 90.382,29.566 90.167,29.405 90.167 C 29.164 90.167,29.157 90.128,29.355 89.885 C 29.525 89.675,29.528 89.636,29.368 89.732 C 29.049 89.924,28.686 89.544,28.794 89.132 C 28.862 88.873,28.824 88.801,28.652 88.866 C 28.514 88.919,28.176 88.684,27.833 88.297 C 27.512 87.935,27.076 87.450,26.864 87.218 C 26.652 86.986,26.517 86.696,26.564 86.573 C 26.622 86.423,26.562 86.384,26.381 86.453 C 26.202 86.522,26.152 86.492,26.232 86.362 C 26.305 86.245,26.250 86.167,26.096 86.167 C 25.638 86.167,25.909 85.274,26.682 84.234 C 28.545 81.730,30.889 78.967,33.067 76.708 C 33.796 75.952,34.348 75.333,34.295 75.333 C 34.241 75.333,33.432 76.140,32.496 77.125 M70.792 89.429 C 70.169 89.767,70.207 89.907,70.833 89.583 C 71.108 89.441,71.333 89.289,71.333 89.246 C 71.333 89.138,71.315 89.145,70.792 89.429 M61.073 96.208 L 60.583 96.750 61.125 96.260 C 61.630 95.804,61.743 95.667,61.615 95.667 C 61.586 95.667,61.342 95.910,61.073 96.208 M59.411 97.708 L 58.417 98.750 59.458 97.755 C 60.426 96.831,60.576 96.667,60.453 96.667 C 60.427 96.667,59.959 97.135,59.411 97.708 M264.245 98.875 L 263.250 99.917 264.292 98.922 C 265.259 97.998,265.410 97.833,265.286 97.833 C 265.261 97.833,264.792 98.302,264.245 98.875 M56.732 100.375 C 55.889 101.247,54.891 102.387,53.523 104.042 C 53.390 104.202,53.321 104.333,53.368 104.333 C 53.416 104.333,53.934 103.753,54.519 103.043 C 55.104 102.334,56.099 101.209,56.730 100.543 C 57.360 99.878,57.845 99.333,57.808 99.333 C 57.771 99.333,57.287 99.802,56.732 100.375 M52.278 105.708 C 51.269 107.076,50.455 108.333,50.579 108.333 C 50.625 108.333,50.867 108.015,51.118 107.625 C 51.369 107.235,51.971 106.373,52.455 105.708 C 52.940 105.044,53.298 104.500,53.252 104.500 C 53.207 104.500,52.768 105.044,52.278 105.708 M49.919 109.163 C 49.514 109.805,49.354 110.232,49.640 109.908 C 49.902 109.612,50.528 108.500,50.432 108.500 C 50.380 108.500,50.149 108.799,49.919 109.163 M358.212 133.833 C 358.212 134.246,358.245 134.415,358.284 134.208 C 358.324 134.002,358.324 133.665,358.284 133.458 C 358.245 133.252,358.212 133.421,358.212 133.833 M8.557 135.417 C 8.558 136.150,8.587 136.429,8.622 136.037 C 8.657 135.645,8.657 135.045,8.621 134.704 C 8.585 134.363,8.557 134.683,8.557 135.417 M392.048 134.917 C 392.049 135.375,392.081 135.543,392.120 135.289 C 392.158 135.036,392.157 134.661,392.117 134.456 C 392.078 134.251,392.046 134.458,392.048 134.917 M9.333 135.316 C 9.333 135.397,9.446 135.508,9.583 135.560 C 9.736 135.619,9.833 135.561,9.833 135.411 C 9.833 135.277,9.721 135.167,9.583 135.167 C 9.446 135.167,9.333 135.234,9.333 135.316 M358.381 138.083 C 358.382 138.542,358.415 138.709,358.453 138.456 C 358.491 138.203,358.490 137.828,358.451 137.623 C 358.411 137.418,358.380 137.625,358.381 138.083 M392.048 141.083 C 392.049 141.542,392.081 141.709,392.120 141.456 C 392.158 141.203,392.157 140.828,392.117 140.623 C 392.078 140.418,392.046 140.625,392.048 141.083 M358.212 142.333 C 358.212 142.746,358.245 142.915,358.284 142.708 C 358.324 142.502,358.324 142.165,358.284 141.958 C 358.245 141.752,358.212 141.921,358.212 142.333 M137.906 175.375 L 137.417 175.917 137.945 175.440 C 138.265 175.152,138.554 175.014,138.679 175.091 C 138.811 175.173,138.842 175.149,138.766 175.026 C 138.583 174.729,138.436 174.789,137.906 175.375 M342.073 177.208 L 341.583 177.750 342.125 177.260 C 342.630 176.804,342.743 176.667,342.615 176.667 C 342.586 176.667,342.342 176.910,342.073 177.208 M134.242 179.042 L 133.583 179.750 134.292 179.091 C 134.950 178.478,135.077 178.333,134.950 178.333 C 134.923 178.333,134.605 178.652,134.242 179.042 M129.250 183.013 C 128.261 183.761,128.128 183.972,129.055 183.322 C 129.756 182.831,130.137 182.489,129.968 182.505 C 129.940 182.507,129.617 182.736,129.250 183.013 M127.414 184.273 C 126.563 184.837,126.264 185.135,126.928 184.756 C 127.512 184.422,128.292 183.843,128.164 183.837 C 128.116 183.835,127.779 184.031,127.414 184.273 M125.623 185.396 C 124.823 185.888,124.599 186.120,125.250 185.784 C 125.772 185.514,126.477 185.011,126.333 185.011 C 126.287 185.010,125.968 185.184,125.623 185.396 M123.583 186.580 C 123.033 186.897,122.641 187.159,122.711 187.162 C 122.867 187.168,124.667 186.161,124.667 186.067 C 124.667 185.960,124.633 185.975,123.583 186.580 M121.333 187.750 C 120.737 188.062,120.308 188.321,120.380 188.325 C 120.557 188.336,122.500 187.349,122.500 187.248 C 122.500 187.136,122.539 187.119,121.333 187.750 M146.145 188.583 C 146.235 188.767,146.431 189.067,146.580 189.250 L 146.852 189.583 146.688 189.250 C 146.598 189.067,146.402 188.767,146.253 188.583 L 145.982 188.250 146.145 188.583 M302.042 193.290 C 302.660 193.322,303.673 193.322,304.292 193.290 C 304.910 193.258,304.404 193.232,303.167 193.232 C 301.929 193.232,301.423 193.258,302.042 193.290 M271.158 195.292 L 270.583 195.917 271.208 195.342 C 271.552 195.026,271.833 194.745,271.833 194.717 C 271.833 194.590,271.692 194.710,271.158 195.292 M365.997 200.958 L 364.417 202.583 366.042 201.003 C 367.551 199.536,367.742 199.333,367.622 199.333 C 367.597 199.333,366.866 200.065,365.997 200.958 M156.667 202.417 C 156.978 202.737,157.270 203.000,157.315 203.000 C 157.361 203.000,157.144 202.737,156.833 202.417 C 156.522 202.096,156.230 201.833,156.185 201.833 C 156.139 201.833,156.356 202.096,156.667 202.417 M158.083 204.000 C 158.535 204.458,158.942 204.833,158.987 204.833 C 159.033 204.833,158.701 204.458,158.250 204.000 C 157.799 203.542,157.392 203.167,157.346 203.167 C 157.300 203.167,157.632 203.542,158.083 204.000 M161.750 207.833 C 162.939 209.025,163.949 210.000,163.995 210.000 C 164.041 210.000,163.106 209.025,161.917 207.833 C 160.728 206.642,159.717 205.667,159.671 205.667 C 159.626 205.667,160.561 206.642,161.750 207.833 M265.712 208.333 C 265.712 208.746,265.745 208.915,265.784 208.708 C 265.824 208.502,265.824 208.165,265.784 207.958 C 265.745 207.752,265.712 207.921,265.712 208.333 M165.250 211.167 C 165.701 211.625,166.108 212.000,166.154 212.000 C 166.200 212.000,165.868 211.625,165.417 211.167 C 164.965 210.708,164.558 210.333,164.513 210.333 C 164.467 210.333,164.799 210.708,165.250 211.167 M166.833 212.583 C 167.144 212.904,167.436 213.167,167.482 213.167 C 167.528 213.167,167.311 212.904,167.000 212.583 C 166.689 212.262,166.397 212.000,166.351 212.000 C 166.305 212.000,166.522 212.262,166.833 212.583 M177.500 220.894 C 177.500 220.940,177.725 221.138,178.000 221.333 C 178.275 221.529,178.500 221.652,178.500 221.606 C 178.500 221.560,178.275 221.362,178.000 221.167 C 177.725 220.971,177.500 220.848,177.500 220.894 M308.792 226.784 C 308.998 226.824,309.335 226.824,309.542 226.784 C 309.748 226.745,309.579 226.712,309.167 226.712 C 308.754 226.712,308.585 226.745,308.792 226.784 M300.795 226.954 C 301.094 226.991,301.544 226.990,301.795 226.952 C 302.045 226.914,301.800 226.884,301.250 226.885 C 300.700 226.886,300.495 226.917,300.795 226.954 M304.964 226.956 C 305.448 226.990,306.198 226.990,306.631 226.956 C 307.063 226.921,306.667 226.894,305.750 226.894 C 304.833 226.895,304.480 226.923,304.964 226.956 M227.375 240.615 C 227.535 240.657,227.798 240.657,227.958 240.615 C 228.119 240.573,227.987 240.539,227.667 240.539 C 227.346 240.539,227.215 240.573,227.375 240.615 M228.708 240.782 C 228.869 240.823,229.131 240.823,229.292 240.782 C 229.452 240.740,229.321 240.705,229.000 240.705 C 228.679 240.705,228.548 240.740,228.708 240.782 M252.294 241.451 C 252.501 241.491,252.801 241.490,252.960 241.448 C 253.120 241.406,252.950 241.374,252.583 241.375 C 252.217 241.377,252.086 241.411,252.294 241.451 M237.792 241.621 C 238.090 241.658,238.577 241.658,238.875 241.621 C 239.173 241.584,238.929 241.553,238.333 241.553 C 237.737 241.553,237.494 241.584,237.792 241.621 M249.458 241.621 C 249.756 241.658,250.244 241.658,250.542 241.621 C 250.840 241.584,250.596 241.553,250.000 241.553 C 249.404 241.553,249.160 241.584,249.458 241.621 M242.375 241.791 C 243.360 241.821,244.973 241.821,245.958 241.791 C 246.944 241.762,246.137 241.737,244.167 241.737 C 242.196 241.737,241.390 241.762,242.375 241.791 M174.000 257.488 C 174.748 257.922,181.001 260.054,181.134 259.922 C 181.168 259.887,180.346 259.587,179.306 259.254 C 178.267 258.921,176.654 258.352,175.721 257.991 C 174.101 257.363,173.460 257.176,174.000 257.488 M182.014 260.236 C 182.131 260.352,184.867 261.021,184.938 260.951 C 184.974 260.915,184.384 260.722,183.627 260.524 C 182.277 260.169,181.875 260.098,182.014 260.236 M186.014 261.226 C 186.146 261.372,189.331 262.029,189.550 261.956 C 189.647 261.923,189.056 261.766,188.238 261.606 C 187.420 261.446,186.563 261.271,186.333 261.218 C 186.104 261.164,185.960 261.168,186.014 261.226 M193.208 262.615 C 193.369 262.657,193.631 262.657,193.792 262.615 C 193.952 262.573,193.821 262.539,193.500 262.539 C 193.179 262.539,193.048 262.573,193.208 262.615 M194.627 262.785 C 194.834 262.824,195.134 262.823,195.294 262.781 C 195.453 262.739,195.283 262.707,194.917 262.709 C 194.550 262.711,194.420 262.745,194.627 262.785 M195.958 262.951 C 196.165 262.991,196.502 262.991,196.708 262.951 C 196.915 262.911,196.746 262.879,196.333 262.879 C 195.921 262.879,195.752 262.911,195.958 262.951 M213.375 262.948 C 213.535 262.990,213.798 262.990,213.958 262.948 C 214.119 262.906,213.987 262.872,213.667 262.872 C 213.346 262.872,213.215 262.906,213.375 262.948 M197.625 263.118 C 197.831 263.157,198.169 263.157,198.375 263.118 C 198.581 263.078,198.412 263.045,198.000 263.045 C 197.588 263.045,197.419 263.078,197.625 263.118 M211.458 263.118 C 211.665 263.157,212.002 263.157,212.208 263.118 C 212.415 263.078,212.246 263.045,211.833 263.045 C 211.421 263.045,211.252 263.078,211.458 263.118 M200.458 263.287 C 200.756 263.324,201.244 263.324,201.542 263.287 C 201.840 263.250,201.596 263.220,201.000 263.220 C 200.404 263.220,200.160 263.250,200.458 263.287 M208.292 263.287 C 208.590 263.324,209.077 263.324,209.375 263.287 C 209.673 263.250,209.429 263.220,208.833 263.220 C 208.237 263.220,207.994 263.250,208.292 263.287 " stroke="none" fill="#c9f6fc" fill-rule="evenodd"></path></g></svg>