<?xml version="1.0" encoding="UTF-8" standalone="no"?>
<svg
   xmlns:dc="http://purl.org/dc/elements/1.1/"
   xmlns:cc="http://creativecommons.org/ns#"
   xmlns:rdf="http://www.w3.org/1999/02/22-rdf-syntax-ns#"
   xmlns:svg="http://www.w3.org/2000/svg"
   xmlns="http://www.w3.org/2000/svg"
   xmlns:sodipodi="http://sodipodi.sourceforge.net/DTD/sodipodi-0.dtd"
   xmlns:inkscape="http://www.inkscape.org/namespaces/inkscape"
   class="icon"
   height="469.59393"
   viewBox="0 0 512 939.18787"
   version="1.1"
   id="svg4"
   sodipodi:docname="settingsMultiBlue.svg"
   width="512"
   inkscape:version="0.92.3 (2405546, 2018-03-11)">
  <metadata
     id="metadata10">
    <rdf:RDF>
      <cc:Work
         rdf:about="">
        <dc:format>image/svg+xml</dc:format>
        <dc:type
           rdf:resource="http://purl.org/dc/dcmitype/StillImage" />
        <dc:title></dc:title>
      </cc:Work>
    </rdf:RDF>
  </metadata>
  <defs
     id="defs8" />
  <sodipodi:namedview
     pagecolor="#ffffff"
     bordercolor="#666666"
     borderopacity="1"
     objecttolerance="10"
     gridtolerance="10"
     guidetolerance="10"
     inkscape:pageopacity="0"
     inkscape:pageshadow="2"
     inkscape:window-width="1920"
     inkscape:window-height="1017"
     id="namedview6"
     showgrid="false"
     inkscape:zoom="0.28027344"
     inkscape:cx="255.554"
     inkscape:cy="238.36583"
     inkscape:window-x="-8"
     inkscape:window-y="-8"
     inkscape:window-maximized="1"
     inkscape:current-layer="svg4" />
  <path
     d="m 366.40039,660.78834 c 0,-3.55299 -1.24785,-7.10971 -3.73419,-10.6627 -19.91317,-23.83228 -35.90908,-44.27597 -48.00269,-61.33105 7.46651,-14.57622 13.15652,-28.08952 17.05696,-40.52311 l 82.66952,-12.79972 c 3.20927,-0.3624 6.05428,-2.22295 8.54062,-5.59287 2.48635,-3.39234 3.71924,-6.85192 3.71924,-10.40678 V 420.7992 c 0,-3.90604 -1.23289,-7.37684 -3.71924,-10.3937 -2.48634,-3.01686 -5.51068,-4.8905 -9.06553,-5.59101 l -81.07236,-12.26733 c -3.91912,-12.09174 -9.95846,-26.67729 -18.13481,-43.73611 5.32574,-7.82703 13.33584,-18.4972 24.00415,-32.00117 10.66456,-13.5133 18.14414,-23.10936 22.39951,-28.79937 2.49381,-3.55485 3.73418,-6.93598 3.73418,-10.13217 0,-9.60166 -25.60317,-38.04611 -76.78898,-85.33707 -3.55298,-2.8394 -7.28717,-4.26097 -11.21189,-4.26097 -4.25724,0 -7.81209,1.23103 -10.67017,3.73045 l -62.9357,47.46656 c -14.57247,-7.46464 -27.90645,-12.97345 -39.99632,-16.53951 l -12.26733,-81.59541 c -0.34932,-3.55486 -2.12955,-6.67073 -5.32948,-9.33453 -3.2018,-2.66568 -6.75665,-4.00132 -10.67204,-4.00132 H 35.731615 c -8.17636,0 -13.50957,4.26658 -15.99778,12.79786 -4.27031,16.35831 -8.35569,43.74171 -12.26734,82.1334 -15.28606,4.97642 -28.97496,10.66643 -41.06296,17.06629 l -61.33106,-47.99521 c -3.55485,-2.49382 -7.287165,-3.73045 -11.200685,-3.73045 -6.76412,0 -20.80608,10.4871 -42.13708,31.46878 -21.33473,20.9742 -35.92029,36.79639 -43.73611,47.46469 -2.49195,2.84874 -3.73045,6.4036 -3.73045,10.67017 0,3.1962 1.23663,6.75105 3.73045,10.6627 19.90756,23.82855 35.90534,44.27223 47.99708,61.33106 -7.46464,14.58555 -13.15091,28.08951 -17.05882,40.53244 l -82.66953,12.79225 c -3.20366,0.35492 -6.04493,2.21922 -8.53688,5.591 -2.48634,3.38487 -3.73045,6.84632 -3.73045,10.39931 v 98.66731 c 0,3.91351 1.24411,7.37684 3.73045,10.3937 2.49195,3.02994 5.51068,4.71677 9.07301,5.06982 l 81.06489,12.79972 c 4.26657,13.50584 10.49457,28.08952 18.67093,43.73238 -5.69001,7.8289 -14.04196,18.6784 -25.06519,32.53729 -11.0307,13.87383 -18.316,23.29616 -21.86899,28.26885 -2.48821,3.55486 -3.73418,6.94346 -3.73418,10.12657 0,9.61474 25.60317,38.04984 76.80205,85.34454 3.55486,2.83754 7.28344,4.24977 11.20069,4.24977 4.6215,0 8.176345,-1.2329 10.662695,-3.72672 l 62.93195,-47.45909 c 14.57248,7.46651 27.90646,12.96971 40.00006,16.52644 l 12.26733,81.60288 c 0.35119,3.55299 2.13329,6.67259 5.32948,9.33266 3.19993,2.66568 6.75479,3.99571 10.66831,3.99571 h 99.192225 c 8.18196,0 13.51144,-4.26284 16.00152,-12.79785 4.26657,-16.71697 8.35194,-44.2685 12.26733,-82.6714 14.21755,-4.24976 27.90458,-9.77912 41.06297,-16.52456 l 61.33292,47.99521 c 3.55485,2.49382 7.28717,3.72672 11.20069,3.72672 6.75665,0 20.71829,-10.57304 41.87182,-31.73965 21.14606,-21.14046 35.81941,-37.06539 44.00137,-47.72808 2.48821,-2.48074 3.73606,-5.8544 3.73606,-10.12471 z M 181.85988,565.87016 c -26.66048,26.65674 -58.84097,39.99072 -96.526555,39.99072 -37.69491,0 -69.87541,-13.33584 -96.53589,-39.99072 -26.66421,-26.66982 -39.99819,-58.85218 -39.99819,-96.53962 0,-37.68558 13.33398,-69.86608 39.99819,-96.53029 26.66048,-26.66608 58.84285,-39.99632 96.53589,-39.99632 37.685585,0 69.866075,13.32837 96.526555,39.99632 26.66982,26.66422 40.00006,58.84471 40.00006,96.53028 0,37.68744 -13.32837,69.8698 -40.00006,96.53963 z m 506.66679,122.66212 c -4.6159,-10.30592 -9.95472,-19.54891 -15.99405,-27.73273 18.13667,-40.18499 27.19473,-64.71966 27.19473,-73.60399 0,-1.40663 -0.69677,-2.66007 -2.12955,-3.72672 -42.67694,-24.88585 -64.71405,-37.33251 -66.13749,-37.33251 l -3.19619,1.07224 c -14.57621,14.58369 -30.94013,34.48938 -49.06559,59.7339 -7.10785,-0.70798 -12.43359,-1.07225 -15.98844,-1.07225 -3.56607,0 -8.89181,0.36427 -16.00713,1.07225 -4.95961,-7.47211 -14.21568,-19.47792 -27.72525,-36.00248 -13.50583,-16.52457 -21.68966,-24.8018 -24.53466,-24.8018 -0.70985,0 -6.0412,2.84314 -16.00152,8.54623 -9.95285,5.69001 -20.44182,11.72373 -31.46505,18.13667 -11.03256,6.41294 -17.24002,9.95285 -18.66532,10.6683 -1.43278,1.06104 -2.13702,2.31449 -2.13702,3.72111 0,8.89928 9.06553,33.41526 27.1966,73.60399 -6.03373,8.18383 -11.37442,17.42682 -15.99405,27.72526 -52.98284,5.32574 -79.47333,10.84389 -79.47333,16.53203 v 74.6613 c 0,5.69001 26.49049,11.20069 79.47333,16.53204 4.25724,9.60352 9.59606,18.84652 15.99405,27.71965 -18.13107,40.18499 -27.1966,64.71965 -27.1966,73.60399 0,1.4197 0.70424,2.67315 2.13702,3.73419 43.36811,25.24451 65.42203,37.8649 66.13189,37.8649 2.84313,0 11.02696,-8.35568 24.53466,-25.06705 13.5077,-16.71511 22.75257,-28.7919 27.72525,-36.2584 7.10971,0.69677 12.44106,1.05356 16.00713,1.05356 3.55298,0 8.88059,-0.3568 15.98844,-1.05356 4.96708,7.4665 14.21755,19.54329 27.72525,36.2584 13.5077,16.71137 21.68406,25.06705 24.53653,25.06705 0.70985,0 22.76565,-12.62599 66.13749,-37.8649 1.43278,-1.06104 2.12955,-2.30702 2.12955,-3.73419 0,-8.8862 -9.06927,-33.42087 -27.19473,-73.60399 6.39986,-8.87313 11.72934,-18.11613 15.99405,-27.71965 C 741.50764,790.93377 768,785.42309 768,779.73308 v -74.6613 c 0,-5.69 -26.49236,-11.20816 -79.47333,-16.5395 z m -77.07105,102.12876 c -13.3153,13.33584 -29.41209,20.0159 -48.25861,20.0159 -18.85213,0 -34.94144,-6.68006 -48.26421,-20.0159 -13.33584,-13.33584 -20.0103,-29.41769 -20.0103,-48.26421 0,-18.48226 6.76412,-34.49498 20.27743,-47.99522 13.50583,-13.5077 29.50922,-20.26622 47.99521,-20.26622 18.48226,0 34.49499,6.75104 48.00829,20.26622 13.5021,13.50209 20.26622,29.51482 20.26622,47.99522 -0.0112,18.84652 -6.67259,34.92836 -20.01403,48.26421 z m 77.07105,-648.26322 c -4.6159,-10.31151 -9.95472,-19.5545 -15.99405,-27.73833 18.13667,-40.171925 27.19473,-64.706584 27.19473,-73.594656 0,-1.415964 -0.69677,-2.665674 -2.12955,-3.734186 C 654.92086,12.442928 632.88375,0 631.46031,0 l -3.19619,1.064775 c -14.57621,14.585554 -30.94013,34.491248 -49.06559,59.733891 -7.10785,-0.70611 -12.43359,-1.06477 -15.98844,-1.06477 -3.56607,0 -8.89181,0.35866 -16.00713,1.06477 C 542.24335,53.332167 532.98728,41.33383 519.47771,24.801793 505.97188,8.2660195 497.78805,0.001868 494.94305,0.001868 c -0.70985,0 -6.0412,2.841269 -16.00152,8.5350155 -9.95285,5.6956145 -20.44182,11.7368135 -31.46505,18.1385405 -11.03256,6.403596 -17.24002,9.956583 -18.66532,10.662697 -1.43278,1.066643 -2.13702,2.310749 -2.13702,3.734186 0,8.888072 9.06553,33.424599 27.1966,73.598393 -6.03373,8.18196 -11.37442,17.42309 -15.99405,27.73459 -52.98284,5.32947 -79.47333,10.8383 -79.47333,16.52831 v 74.6669 c 0,5.68626 26.49049,11.20067 79.47333,16.5283 4.25724,9.59605 9.59606,18.84465 15.99405,27.73459 -18.13107,40.18126 -27.1966,64.70658 -27.1966,73.59839 0,1.41409 0.70424,2.66381 2.13702,3.73045 43.36811,25.24265 65.42203,37.8649 66.13189,37.8649 2.84313,0 11.02696,-8.35194 24.53466,-25.06518 13.5077,-16.71324 22.75257,-28.79563 27.72525,-36.26587 7.10971,0.70611 12.44106,1.06664 16.00713,1.06664 3.55298,0 8.88059,-0.36053 15.98844,-1.06664 4.96708,7.47024 14.21755,19.55077 27.72525,36.26587 13.5077,16.71324 21.68406,25.06518 24.53653,25.06518 0.70985,0 22.76565,-12.62225 66.13749,-37.8649 1.43278,-1.06664 2.12955,-2.31075 2.12955,-3.73045 0,-8.89181 -9.06927,-33.41713 -27.19473,-73.59839 6.39986,-8.88994 11.72934,-18.13294 15.99405,-27.73459 C 741.50764,244.79932 768,239.28677 768,233.6005 v -74.6669 c 0,-5.69002 -26.49236,-11.20069 -79.47333,-16.53578 z m -77.07105,102.1325 c -13.3153,13.33584 -29.41209,20.00283 -48.25861,20.00283 -18.85213,0 -34.94144,-6.66699 -48.26421,-20.00283 -13.33584,-13.32837 -20.0103,-29.41955 -20.0103,-48.26421 0,-18.48786 6.76412,-34.49125 20.27743,-48.00268 13.50583,-13.51144 29.50922,-20.26809 47.99521,-20.26809 18.48226,0 34.49499,6.76412 48.00829,20.26809 13.5021,13.50957 20.26622,29.51482 20.26622,48.00268 -0.0112,18.84466 -6.67259,34.93584 -20.01403,48.26421 z"
     id="path2"
     style="fill:#00c3e8;fill-opacity:1"
     inkscape:connector-curvature="0" />
</svg>
