<?xml version="1.0" encoding="UTF-8" standalone="no"?>
<!-- Generator: Adobe Illustrator 19.0.0, SVG Export Plug-In . SVG Version: 6.00 Build 0)  -->

<svg
   xmlns:dc="http://purl.org/dc/elements/1.1/"
   xmlns:cc="http://creativecommons.org/ns#"
   xmlns:rdf="http://www.w3.org/1999/02/22-rdf-syntax-ns#"
   xmlns:svg="http://www.w3.org/2000/svg"
   xmlns="http://www.w3.org/2000/svg"
   xmlns:sodipodi="http://sodipodi.sourceforge.net/DTD/sodipodi-0.dtd"
   xmlns:inkscape="http://www.inkscape.org/namespaces/inkscape"
   version="1.1"
   id="Capa_1"
   x="0px"
   y="0px"
   viewBox="0 0 512 512"
   style="enable-background:new 0 0 512 512;"
   xml:space="preserve"
   sodipodi:docname="shareAvatar.svg"
   inkscape:version="0.92.3 (2405546, 2018-03-11)"><metadata
   id="metadata77"><rdf:RDF><cc:Work
       rdf:about=""><dc:format>image/svg+xml</dc:format><dc:type
         rdf:resource="http://purl.org/dc/dcmitype/StillImage" /></cc:Work></rdf:RDF></metadata><defs
   id="defs75">
	
	
	
	
	
</defs><sodipodi:namedview
   pagecolor="#ffffff"
   bordercolor="#666666"
   borderopacity="1"
   objecttolerance="10"
   gridtolerance="10"
   guidetolerance="10"
   inkscape:pageopacity="0"
   inkscape:pageshadow="2"
   inkscape:window-width="1920"
   inkscape:window-height="1017"
   id="namedview73"
   showgrid="false"
   inkscape:zoom="0.65186406"
   inkscape:cx="298.70096"
   inkscape:cy="127.16939"
   inkscape:window-x="-8"
   inkscape:window-y="-8"
   inkscape:window-maximized="1"
   inkscape:current-layer="Capa_1" />
<g
   style="stroke:#00c3e8;stroke-opacity:1"
   id="g8"
   transform="matrix(0.98804435,0,0,0.98205193,3.0606461,4.5947083)">
		<circle
   id="circle2"
   r="52.966"
   cy="61.792999"
   cx="256"
   style="fill:#a4c2f7;stroke:#00c3e8;stroke-opacity:1" />
		<circle
   id="circle4"
   r="52.966"
   cy="388.414"
   cx="61.792999"
   style="fill:#a4c2f7;stroke:#00c3e8;stroke-opacity:1" />
		<circle
   id="circle6"
   r="52.966"
   cy="388.414"
   cx="450.207"
   style="fill:#a4c2f7;stroke:#00c3e8;stroke-opacity:1" />
	</g><g
   style="stroke:#00c3e8;stroke-opacity:1"
   id="g14"
   transform="matrix(0.98804435,0,0,0.98205193,3.0606461,4.5947083)">
		<ellipse
   id="ellipse10"
   ry="52.966"
   rx="39.723999"
   cy="61.792999"
   cx="242.759"
   style="fill:#e3e7f2;stroke:#00c3e8;stroke-opacity:1" />
		<ellipse
   id="ellipse12"
   ry="52.966"
   rx="39.723999"
   cy="388.414"
   cx="48.551998"
   style="fill:#e3e7f2;stroke:#00c3e8;stroke-opacity:1" />
	</g><g
   style="stroke:#00c3e8;stroke-opacity:1"
   id="g22"
   transform="matrix(0.98804435,0,0,0.98205193,3.0606461,4.5947083)">
		<path
   inkscape:connector-curvature="0"
   id="path16"
   d="m 61.793,441.379 c 2.533,-0.02 5.062,-0.221 7.567,-0.601 -19.244,-3.681 -34.05,-25.687 -34.05,-52.364 0,-26.677 14.806,-48.683 34.05,-52.364 -19.622,-2.844 -39.188,5.515 -50.698,21.658 -11.51,16.144 -13.035,37.366 -3.95,54.989 9.085,17.623 27.254,28.692 47.081,28.682 z"
   style="fill:#ffffff;stroke:#00c3e8;stroke-opacity:1" />
		<path
   inkscape:connector-curvature="0"
   id="path18"
   d="m 256,114.759 c 2.533,-0.02 5.062,-0.221 7.567,-0.601 -19.244,-3.681 -34.05,-25.687 -34.05,-52.364 0,-26.677 14.806,-48.683 34.05,-52.364 -19.622,-2.844 -39.188,5.515 -50.698,21.658 -11.51,16.144 -13.035,37.366 -3.95,54.989 9.084,17.622 27.254,28.692 47.081,28.682 z"
   style="fill:#ffffff;stroke:#00c3e8;stroke-opacity:1" />
		<path
   inkscape:connector-curvature="0"
   id="path20"
   d="m 450.207,441.379 c 2.533,-0.02 5.062,-0.221 7.567,-0.601 -19.244,-3.681 -34.05,-25.687 -34.05,-52.364 0,-26.677 14.806,-48.683 34.05,-52.364 -19.622,-2.844 -39.188,5.515 -50.698,21.658 -11.51,16.144 -13.035,37.366 -3.95,54.989 9.084,17.623 27.254,28.692 47.081,28.682 z"
   style="fill:#ffffff;stroke:#00c3e8;stroke-opacity:1" />
	</g><ellipse
   id="ellipse24"
   ry="52.015362"
   rx="39.249073"
   cy="386.03741"
   cx="434.80243"
   style="fill:#e3e7f2;stroke:#00c3e8;stroke-width:0.98504359;stroke-opacity:1" /><g
   style="fill:#00c3e8;fill-opacity:1;stroke:#00c3e8;stroke-opacity:1"
   id="g38"
   transform="matrix(0.98804435,0,0,0.98205193,3.0606461,4.5947083)">
		<path
   inkscape:connector-curvature="0"
   id="path26"
   d="m 256,123.586 c -34.127,0 -61.793,-27.666 -61.793,-61.793 C 194.207,27.666 221.873,0 256,0 c 34.127,0 61.793,27.666 61.793,61.793 -0.04,34.111 -27.682,61.753 -61.793,61.793 z m 0,-105.931 c -24.377,0 -44.138,19.761 -44.138,44.138 0,24.377 19.761,44.138 44.138,44.138 24.377,0 44.138,-19.761 44.138,-44.138 C 300.109,37.428 280.365,17.684 256,17.655 Z"
   style="fill:#00c3e8;fill-opacity:1;stroke:#00c3e8;stroke-opacity:1" />
		<path
   inkscape:connector-curvature="0"
   id="path28"
   d="M 61.793,450.207 C 27.666,450.207 0,422.541 0,388.414 c 0,-34.127 27.666,-61.793 61.793,-61.793 34.127,0 61.793,27.666 61.793,61.793 -0.039,34.111 -27.682,61.753 -61.793,61.793 z m 0,-105.931 c -24.377,0 -44.138,19.761 -44.138,44.138 0,24.377 19.761,44.138 44.138,44.138 24.377,0 44.138,-19.761 44.138,-44.138 -0.028,-24.365 -19.773,-44.11 -44.138,-44.138 z"
   style="fill:#00c3e8;fill-opacity:1;stroke:#00c3e8;stroke-opacity:1" />
		<path
   inkscape:connector-curvature="0"
   id="path30"
   d="m 450.207,450.207 c -34.127,0 -61.793,-27.666 -61.793,-61.793 0,-34.127 27.666,-61.793 61.793,-61.793 34.127,0 61.793,27.665 61.793,61.793 -0.04,34.111 -27.682,61.753 -61.793,61.793 z m 0,-105.931 c -24.377,0 -44.138,19.761 -44.138,44.138 0,24.377 19.761,44.138 44.138,44.138 24.377,0 44.138,-19.761 44.138,-44.138 -0.029,-24.365 -19.773,-44.11 -44.138,-44.138 z"
   style="fill:#00c3e8;fill-opacity:1;stroke:#00c3e8;stroke-opacity:1" />
		<path
   inkscape:connector-curvature="0"
   id="path32"
   d="m 469.298,347.879 c -2.741,0.002 -5.327,-1.269 -7,-3.44 -1.672,-2.171 -2.241,-4.997 -1.539,-7.646 24.03,-90.419 -14.129,-185.891 -93.862,-234.836 -4.135,-2.564 -5.416,-7.99 -2.865,-12.133 2.551,-4.143 7.973,-5.441 12.124,-2.902 86.36,53.03 127.691,156.443 101.672,254.388 -1.026,3.871 -4.527,6.567 -8.53,6.569 z"
   style="fill:#00c3e8;fill-opacity:1;stroke:#00c3e8;stroke-opacity:1" />
		<path
   inkscape:connector-curvature="0"
   id="path34"
   d="m 256,512 c -64.517,-0.08 -126.033,-27.256 -169.539,-74.897 -2.125,-2.33 -2.846,-5.617 -1.89,-8.622 0.955,-3.005 3.441,-5.273 6.522,-5.948 3.08,-0.675 6.287,0.344 8.412,2.674 60.084,65.919 155.022,87.144 237.457,53.086 2.919,-1.235 6.276,-0.809 8.795,1.115 2.519,1.924 3.813,5.051 3.39,8.192 -0.423,3.141 -2.498,5.814 -5.436,7.004 C 315.908,506.131 286.098,512.044 256,512 Z"
   style="fill:#00c3e8;fill-opacity:1;stroke:#00c3e8;stroke-opacity:1" />
		<path
   inkscape:connector-curvature="0"
   id="path36"
   d="m 35.94,275.56 c -0.207,0 -0.418,-0.009 -0.629,-0.026 -2.335,-0.163 -4.51,-1.247 -6.046,-3.015 -1.535,-1.767 -2.305,-4.073 -2.14,-6.408 6.779,-99.5 77.295,-183.115 174.224,-206.586 4.733,-1.145 9.499,1.757 10.654,6.487 1.155,4.73 -1.737,9.503 -6.465,10.668 -89.462,21.664 -154.546,98.838 -160.801,190.673 -0.324,4.621 -4.165,8.204 -8.797,8.207 z"
   style="fill:#00c3e8;fill-opacity:1;stroke:#00c3e8;stroke-opacity:1" />
	</g>
<g
   id="g42">
</g>
<g
   id="g44">
</g>
<g
   id="g46">
</g>
<g
   id="g48">
</g>
<g
   id="g50">
</g>
<g
   id="g52">
</g>
<g
   id="g54">
</g>
<g
   id="g56">
</g>
<g
   id="g58">
</g>
<g
   id="g60">
</g>
<g
   id="g62">
</g>
<g
   id="g64">
</g>
<g
   id="g66">
</g>
<g
   id="g68">
</g>
<g
   id="g70">
</g>
</svg>