<?xml version="1.0" encoding="UTF-8" standalone="no"?>
<!-- Generator: Adobe Illustrator 19.0.0, SVG Export Plug-In . SVG Version: 6.00 Build 0)  -->

<svg
   xmlns:dc="http://purl.org/dc/elements/1.1/"
   xmlns:cc="http://creativecommons.org/ns#"
   xmlns:rdf="http://www.w3.org/1999/02/22-rdf-syntax-ns#"
   xmlns:svg="http://www.w3.org/2000/svg"
   xmlns="http://www.w3.org/2000/svg"
   xmlns:sodipodi="http://sodipodi.sourceforge.net/DTD/sodipodi-0.dtd"
   xmlns:inkscape="http://www.inkscape.org/namespaces/inkscape"
   version="1.1"
   id="Capa_1"
   x="0px"
   y="0px"
   viewBox="0 0 500.33899 463.72882"
   xml:space="preserve"
   sodipodi:docname="share.svg"
   inkscape:version="0.92.3 (2405546, 2018-03-11)"
   width="500.33899"
   height="463.72882"><metadata
   id="metadata91"><rdf:RDF><cc:Work
       rdf:about=""><dc:format>image/svg+xml</dc:format><dc:type
         rdf:resource="http://purl.org/dc/dcmitype/StillImage" /></cc:Work></rdf:RDF></metadata><defs
   id="defs89" /><sodipodi:namedview
   pagecolor="#ffffff"
   bordercolor="#666666"
   borderopacity="1"
   objecttolerance="10"
   gridtolerance="10"
   guidetolerance="10"
   inkscape:pageopacity="0"
   inkscape:pageshadow="2"
   inkscape:window-width="1920"
   inkscape:window-height="1017"
   id="namedview87"
   showgrid="false"
   inkscape:zoom="0.49166667"
   inkscape:cx="250.16949"
   inkscape:cy="231.86441"
   inkscape:window-x="-8"
   inkscape:window-y="-8"
   inkscape:window-maximized="1"
   inkscape:current-layer="Capa_1" />








<g
   id="g928"
   transform="matrix(1.0338983,0,0,0.94067797,2.0338983,6.1016949)"
   style="fill:#00c0e8;fill-opacity:1"><g
     id="g6"
     style="fill:#00c0e8;fill-opacity:1">
	<g
   id="g4"
   style="fill:#00c0e8;fill-opacity:1">
		<path
   id="path2"
   d="m 240,0 c -26.51,0 -48,21.49 -48,48 0,26.51 21.49,48 48,48 26.499,-0.026 47.974,-21.501 48,-48 C 288,21.49 266.51,0 240,0 Z m 0,80 c -17.673,0 -32,-14.327 -32,-32 0,-17.673 14.327,-32 32,-32 17.673,0 32,14.327 32,32 0,17.673 -14.327,32 -32,32 z"
   inkscape:connector-curvature="0"
   style="fill:#00c0e8;fill-opacity:1" />
	</g>
</g><g
     id="g12"
     style="fill:#00c0e8;fill-opacity:1">
	<g
   id="g10"
   style="fill:#00c0e8;fill-opacity:1">
		<path
   id="path8"
   d="m 272,104 h -1.888 l -1.688,0.84 c -17.901,8.913 -38.947,8.913 -56.848,0 L 209.888,104 H 208 c -22.08,0.026 -39.974,17.92 -40,40 v 48 c 0,13.255 10.745,24 24,24 h 96 c 13.255,0 24,-10.745 24,-24 v -48 c -0.026,-22.08 -17.92,-39.974 -40,-40 z m 24,88 c 0,4.418 -3.582,8 -8,8 h -96 c -4.418,0 -8,-3.582 -8,-8 v -48 c 0.002,-12.592 9.735,-23.042 22.296,-23.936 21.375,9.92 46.034,9.92 67.408,0 12.56,0.894 22.294,11.344 22.296,23.936 z"
   inkscape:connector-curvature="0"
   style="fill:#00c0e8;fill-opacity:1" />
	</g>
</g><g
     id="g18"
     style="fill:#00c0e8;fill-opacity:1">
	<g
   id="g16"
   style="fill:#00c0e8;fill-opacity:1">
		<path
   id="path14"
   d="m 408,264 c -26.51,0 -48,21.49 -48,48 0,26.51 21.49,48 48,48 26.51,0 48,-21.49 48,-48 -0.026,-26.499 -21.501,-47.974 -48,-48 z m 0,80 c -17.673,0 -32,-14.327 -32,-32 0,-17.673 14.327,-32 32,-32 17.673,0 32,14.327 32,32 0,17.673 -14.327,32 -32,32 z"
   inkscape:connector-curvature="0"
   style="fill:#00c0e8;fill-opacity:1" />
	</g>
</g><g
     id="g24"
     style="fill:#00c0e8;fill-opacity:1">
	<g
   id="g22"
   style="fill:#00c0e8;fill-opacity:1">
		<path
   id="path20"
   d="m 440,368 h -1.888 l -1.688,0.8 c -17.901,8.912 -38.947,8.912 -56.848,0 L 377.888,368 H 376 c -22.08,0.026 -39.974,17.92 -40,40 v 48 c 0,13.255 10.745,24 24,24 h 96 c 13.255,0 24,-10.745 24,-24 v -48 c -0.026,-22.08 -17.92,-39.974 -40,-40 z m 24,88 c 0,4.418 -3.582,8 -8,8 h -96 c -4.418,0 -8,-3.582 -8,-8 v -48 c 0.002,-12.592 9.735,-23.042 22.296,-23.936 21.375,9.92 46.033,9.92 67.408,0 12.561,0.894 22.294,11.344 22.296,23.936 z"
   inkscape:connector-curvature="0"
   style="fill:#00c0e8;fill-opacity:1" />
	</g>
</g><g
     id="g30"
     style="fill:#00c0e8;fill-opacity:1">
	<g
   id="g28"
   style="fill:#00c0e8;fill-opacity:1">
		<path
   id="path26"
   d="m 72,264 c -26.51,0 -48,21.49 -48,48 0,26.51 21.49,48 48,48 26.51,0 48,-21.49 48,-48 -0.026,-26.499 -21.501,-47.974 -48,-48 z m 0,80 c -17.673,0 -32,-14.327 -32,-32 0,-17.673 14.327,-32 32,-32 17.673,0 32,14.327 32,32 0,17.673 -14.327,32 -32,32 z"
   inkscape:connector-curvature="0"
   style="fill:#00c0e8;fill-opacity:1" />
	</g>
</g><g
     id="g36"
     style="fill:#00c0e8;fill-opacity:1">
	<g
   id="g34"
   style="fill:#00c0e8;fill-opacity:1">
		<path
   id="path32"
   d="m 104,368 h -1.888 l -1.688,0.8 c -17.901,8.912 -38.947,8.912 -56.848,0 L 41.888,368 H 40 C 17.92,368.026 0.026,385.92 0,408 v 48 c 0,13.255 10.745,24 24,24 h 96 c 13.255,0 24,-10.745 24,-24 v -48 c -0.026,-22.08 -17.92,-39.974 -40,-40 z m 24,88 c 0,4.418 -3.582,8 -8,8 H 24 c -4.418,0 -8,-3.582 -8,-8 v -48 c 0.002,-12.592 9.735,-23.042 22.296,-23.936 21.375,9.92 46.033,9.92 67.408,0 12.561,0.894 22.294,11.344 22.296,23.936 z"
   inkscape:connector-curvature="0"
   style="fill:#00c0e8;fill-opacity:1" />
	</g>
</g><g
     id="g42"
     style="fill:#00c0e8;fill-opacity:1">
	<g
   id="g40"
   style="fill:#00c0e8;fill-opacity:1">
		<path
   id="path38"
   d="m 319.372,406.276 c -0.004,-0.009 -0.008,-0.018 -0.012,-0.028 -1.732,-4.065 -6.431,-5.956 -10.495,-4.224 0,0 0,0 0,0 -36.125,15.14 -76.245,17.902 -114.104,7.856 l 7.488,-2.2 c 4.242,-1.242 6.674,-5.686 5.432,-9.928 -1.242,-4.242 -5.686,-6.674 -9.928,-5.432 l -32,9.384 c -0.12,0 -0.208,0.136 -0.32,0.176 -0.741,0.276 -1.437,0.662 -2.064,1.144 -0.278,0.15 -0.545,0.318 -0.8,0.504 -0.844,0.753 -1.513,1.681 -1.96,2.72 -0.434,1.046 -0.641,2.172 -0.608,3.304 0.195,1.083 0.462,2.152 0.8,3.2 0.048,0.112 0,0.24 0.088,0.352 l 16,30.616 c 2.046,3.919 6.881,5.438 10.8,3.392 3.919,-2.046 5.438,-6.881 3.392,-10.8 l -6.512,-12.448 c 43.014,12.93 89.195,10.417 130.552,-7.104 4.068,-1.721 5.972,-6.415 4.251,-10.484 z"
   inkscape:connector-curvature="0"
   style="fill:#00c0e8;fill-opacity:1" />
	</g>
</g><g
     id="g48"
     style="fill:#00c0e8;fill-opacity:1">
	<g
   id="g46"
   style="fill:#00c0e8;fill-opacity:1">
		<path
   id="path44"
   d="m 453.656,210.344 c -3.124,-3.123 -8.188,-3.123 -11.312,0 l -11.32,11.32 C 424.4,151.594 379.913,90.788 315.136,63.264 c -4.065,-1.732 -8.764,0.159 -10.496,4.224 -1.732,4.065 0.159,8.764 4.224,10.496 58.11,24.697 98.504,78.669 105.816,141.384 l -9.024,-9.024 c -3.178,-3.07 -8.242,-2.982 -11.312,0.196 -2.994,3.1 -2.994,8.015 0,11.116 l 24,24 c 3.12,3.128 8.186,3.135 11.314,0.014 0.005,-0.005 0.01,-0.01 0.014,-0.014 l 24,-24 c 3.119,-3.128 3.112,-8.192 -0.016,-11.312 z"
   inkscape:connector-curvature="0"
   style="fill:#00c0e8;fill-opacity:1" />
	</g>
</g><g
     id="g54"
     style="fill:#00c0e8;fill-opacity:1">
	<g
   id="g52"
   style="fill:#00c0e8;fill-opacity:1">
		<path
   id="path50"
   d="m 175.768,69.272 c -0.026,-0.467 -0.095,-0.93 -0.208,-1.384 0,-0.072 -0.088,-0.12 -0.12,-0.2 -0.032,-0.08 0,-0.136 0,-0.2 -0.218,-0.389 -0.47,-0.759 -0.752,-1.104 -0.259,-0.469 -0.565,-0.911 -0.912,-1.32 -0.473,-0.419 -0.997,-0.776 -1.56,-1.064 -0.281,-0.239 -0.581,-0.456 -0.896,-0.648 l -32,-14.616 c -4.087,-1.678 -8.761,0.275 -10.439,4.362 -1.587,3.865 0.068,8.301 3.799,10.182 l 16.568,7.576 C 86.875,104.237 47.955,169.256 48,240 c 0,4.418 3.582,8 8,8 4.418,0 8,-3.582 8,-8 -0.04,-62.293 32.901,-119.952 86.584,-151.552 l -5.784,12.088 c -1.907,3.977 -0.236,8.747 3.736,10.664 1.079,0.527 2.263,0.801 3.464,0.8 3.072,-0.004 5.87,-1.767 7.2,-4.536 l 16,-33.384 c 0,-0.08 0,-0.168 0.064,-0.248 0.208,-0.547 0.353,-1.116 0.432,-1.696 0.137,-0.431 0.239,-0.872 0.304,-1.32 -0.027,-0.521 -0.104,-1.038 -0.232,-1.544 z"
   inkscape:connector-curvature="0"
   style="fill:#00c0e8;fill-opacity:1" />
	</g>
</g></g>
<g
   id="g56"
   transform="translate(10.169492,-8.1355932)">
</g>
<g
   id="g58"
   transform="translate(10.169492,-8.1355932)">
</g>
<g
   id="g60"
   transform="translate(10.169492,-8.1355932)">
</g>
<g
   id="g62"
   transform="translate(10.169492,-8.1355932)">
</g>
<g
   id="g64"
   transform="translate(10.169492,-8.1355932)">
</g>
<g
   id="g66"
   transform="translate(10.169492,-8.1355932)">
</g>
<g
   id="g68"
   transform="translate(10.169492,-8.1355932)">
</g>
<g
   id="g70"
   transform="translate(10.169492,-8.1355932)">
</g>
<g
   id="g72"
   transform="translate(10.169492,-8.1355932)">
</g>
<g
   id="g74"
   transform="translate(10.169492,-8.1355932)">
</g>
<g
   id="g76"
   transform="translate(10.169492,-8.1355932)">
</g>
<g
   id="g78"
   transform="translate(10.169492,-8.1355932)">
</g>
<g
   id="g80"
   transform="translate(10.169492,-8.1355932)">
</g>
<g
   id="g82"
   transform="translate(10.169492,-8.1355932)">
</g>
<g
   id="g84"
   transform="translate(10.169492,-8.1355932)">
</g>
</svg>